<svg width="504" height="288" viewBox="0 0 504 288" fill="none" xmlns="http://www.w3.org/2000/svg">
<mask id="mask0_84_239" style="mask-type:luminance" maskUnits="userSpaceOnUse" x="0" y="0" width="504" height="288">
<path d="M504 0H0V288H504V0Z" fill="white"/>
</mask>
<g mask="url(#mask0_84_239)">
<g opacity="0.3">
<path d="M32.686 191.413C32.657 191.487 32.62 191.557 32.59 191.63C32.567 191.68 32.553 191.731 32.53 191.781C32.581 191.662 32.632 191.543 32.686 191.413Z" fill="white"/>
<path d="M4.99196 217.233C5.75696 216.531 6.51496 215.835 7.26496 215.144C7.98396 214.462 8.69696 213.787 9.40196 213.116C10.095 212.45 10.976 211.935 11.722 211.346C13.299 210.219 14.668 209.04 16.199 207.993C19.185 205.884 22.346 203.906 25.333 201.297C28.238 198.781 30.989 195.56 32.59 191.63C35.385 185.506 34.874 179.145 33.242 174.498C31.417 169.694 28.967 166.782 27.075 164.436C25.135 162.114 23.587 160.485 22.528 159.349C21.477 158.228 20.914 157.628 20.914 157.628C21.571 163.493 23.854 169.368 24.759 174.488C25.499 179.533 24.729 183.933 22.843 187.256L22.695 187.605C20.749 191.427 16.62 194.914 12.517 198.824C10.453 200.742 8.58696 202.929 6.98996 205.041C6.19796 206.089 5.43296 207.101 4.69596 208.077C4.00496 209.082 3.51096 210.207 2.97496 211.194C0.713959 215.127 -0.013041 218.716 -0.654041 221.056C-1.00004 222.221 -1.07204 223.178 -1.13104 223.822C-1.18704 224.463 -1.21704 224.802 -1.21704 224.802C-0.016041 222.904 1.55996 221.247 2.93796 219.616C3.64896 218.812 4.27696 217.983 4.99196 217.233Z" fill="white"/>
<path d="M39.2679 219.736C41.9219 215.773 45.3379 211.791 47.9379 207.109C48.6099 205.965 49.2059 204.765 49.7149 203.498C50.2789 202.308 50.6999 200.973 51.0619 199.633C51.4989 198.32 51.6729 197.001 51.8219 195.717C51.9099 194.524 52.0099 193.353 52.0009 192.236C52.0689 183.288 49.6719 176.379 47.1039 172.066C45.8619 169.899 44.5299 168.418 43.6149 167.479C42.6589 166.557 42.0859 166.159 42.0859 166.159C44.4459 171.895 44.2899 177.379 44.0069 182.577C43.8279 185.176 43.5059 187.725 43.0539 190.172C42.5649 192.62 42.1279 195.009 41.2589 196.816C39.6339 200.641 36.9749 204.347 34.2099 208.404C32.8389 210.468 31.4989 212.523 30.3049 214.888C28.9839 217.201 28.4029 219.656 27.6089 221.925C26.9999 224.258 26.6049 226.566 26.3729 228.756C26.3589 230.997 26.1079 233.091 26.4859 235.054C26.7339 237.016 26.9789 238.824 27.5339 240.413C28.0079 242.02 28.4189 243.48 29.0349 244.7C29.5919 245.939 30.0909 247.032 30.5539 247.963C31.0869 248.851 31.5419 249.61 31.9119 250.227C32.6729 251.425 33.0849 252.071 33.0849 252.071C32.1429 245.503 31.9589 239.211 33.1819 233.822C34.3529 228.44 36.7839 223.724 39.2679 219.736Z" fill="white"/>
<path d="M66.9121 215.422C67.4971 210.737 68.1241 206.298 68.2611 201.83C68.5161 193.11 66.7521 185.862 64.6061 181.374C64.0441 180.27 63.5431 179.29 63.1091 178.438C62.5511 177.659 62.0771 176.998 61.6951 176.464C60.9121 175.448 60.4981 174.911 60.4981 174.911C61.7661 180.869 61.4171 186.453 60.7071 191.737C59.9661 197.07 58.8221 202.039 57.6501 207.145C55.2651 217.479 54.0621 228.329 56.3071 237.875C57.4141 242.592 59.1831 246.852 61.4651 250.159C62.5491 251.832 63.8121 253.238 64.9121 254.526C66.1581 255.704 67.2631 256.801 68.3461 257.675C70.6011 259.34 72.3771 260.535 73.7301 261.148C75.0311 261.799 75.7351 262.152 75.7351 262.152C71.3651 256.929 68.3641 251.336 66.8871 245.913C65.3811 240.478 65.1521 235.222 65.4181 230.12C65.6781 225.029 66.3101 220.117 66.9121 215.422Z" fill="white"/>
<path d="M89.5551 222.546C87.9051 218.642 86.8921 214.721 86.0811 210.907C85.2491 207.082 84.6901 203.399 84.1961 200.205C83.8841 196.845 83.4121 193.275 82.7111 190.343C82.0181 187.358 81.0691 184.787 80.0531 182.791C79.0081 180.792 78.0011 179.359 77.1911 178.477C76.4451 177.57 75.9301 177.191 75.9301 177.191C77.3101 182.611 76.6441 187.403 76.0881 192.096C75.7621 194.468 75.4411 196.814 75.1231 199.133C74.7391 201.636 74.8551 204.201 74.8991 206.692C75.1031 211.588 75.9791 216.472 77.6131 221.01C79.2341 225.548 81.7041 229.659 84.5281 232.9C90.3031 239.394 96.6011 242.419 100.856 244.302C103.021 245.229 104.758 245.85 105.967 246.225C107.17 246.598 107.821 246.801 107.821 246.801C103.747 242.527 99.8691 238.456 96.7171 234.428C93.5431 230.402 91.1891 226.453 89.5551 222.546Z" fill="white"/>
<path d="M107.481 205.134C105.351 198.183 102.759 192.164 100.215 188.539C99.5711 187.646 98.9971 186.851 98.4991 186.159C97.9191 185.533 97.4281 185.001 97.0301 184.57C96.2231 183.754 95.7961 183.324 95.7961 183.324C98.5621 193.931 97.2811 203.244 99.4281 213.353C100.478 218.423 102.501 223.325 105.204 227.474C107.888 231.656 111.204 235.031 114.457 237.676C121.016 242.978 127.154 245.805 131.408 247.82C135.695 249.776 138.276 250.747 138.276 250.747C130.707 241.373 122.431 233.843 117.309 226.473C114.7 222.795 112.698 219.209 111.191 215.645C109.667 212.035 108.6 208.733 107.481 205.134Z" fill="white"/>
<path d="M-0.0619678 174.496C0.393032 173.994 0.841032 173.502 1.28003 173.019C1.43603 172.82 1.82403 172.448 2.10403 172.035L2.72803 171.104C3.47303 170.014 4.10603 168.882 4.66403 167.777C6.93303 163.357 7.59403 159.079 7.43203 156.222C7.44603 154.81 7.13803 153.687 6.99503 152.969C6.82603 152.245 6.70703 151.879 6.70703 151.879C4.68303 154.985 2.51803 157.282 0.466032 159.356C-1.57797 161.425 -3.60797 163.262 -5.53097 165.114C-6.13697 165.759 -6.12197 165.601 -6.78597 166.188C-7.29997 166.645 -7.80797 167.097 -8.30897 167.544C-9.27297 168.45 -10.276 169.407 -11.183 170.359C-13.007 172.292 -14.704 174.282 -16.106 176.402C-18.964 180.559 -20.543 184.867 -21.012 187.919C-21.249 189.461 -21.431 190.634 -21.417 191.476C-21.383 192.309 -21.364 192.768 -21.364 192.768C-15.934 187.088 -10.805 183.872 -6.27697 180.188C-4.03597 178.365 -1.90097 176.488 -0.0619678 174.496Z" fill="white"/>
<path d="M39.6019 122.362C40.0589 125.496 40.0779 128.077 39.6439 130.124L39.6059 130.3L39.5719 130.517C39.0069 134.06 37.2159 137.049 35.0559 139.46C32.8809 141.75 29.9859 143.7 27.6469 145.351C25.2859 147.004 23.3589 148.429 22.1099 149.456C20.8529 150.486 20.2319 151.118 20.2319 151.118C26.3449 150.195 32.0639 149.866 37.9129 147.331C43.7459 144.674 48.8189 138.934 50.1499 132.058L50.0829 132.43C51.1409 128.317 50.8239 124.391 50.1889 121.069C49.5419 117.7 48.5199 114.905 47.6659 112.371C46.7359 109.856 46.0789 107.587 45.4609 105.419C45.1189 104.333 44.7889 103.282 44.4719 102.271C44.1799 101.256 44.0999 100.279 43.8929 99.3329C42.9559 95.5569 42.9299 92.3249 42.6439 90.0329C42.3739 87.7319 42.5579 86.4459 42.4879 86.4419C41.2549 88.3489 40.5429 90.3839 39.7639 92.4529C39.3959 93.4879 38.9709 94.5289 38.6859 95.5859C38.4889 96.6669 38.2939 97.7379 38.1009 98.7979C37.9299 99.8909 37.7619 100.974 37.5949 102.047C37.4419 103.133 37.5529 104.174 37.5379 105.24C37.6009 107.342 37.5869 109.509 37.8439 111.523C38.3129 115.604 39.1829 119.249 39.6019 122.362Z" fill="white"/>
<path d="M62.2889 119.731C60.4689 125.49 59.9769 130.556 59.0169 134.628C58.5539 136.645 58.0339 138.542 57.4059 140.074C56.7299 141.887 56.4079 142.311 55.2939 143.649C53.1219 146.018 50.4019 148.199 48.0759 150.058C45.6479 151.922 43.5569 153.528 41.8449 154.843C38.3639 157.482 36.4399 159.031 36.4399 159.031C41.9569 158.427 47.3969 157.221 52.6009 155.203C55.2109 154.206 57.7529 152.985 60.2259 151.351C61.4689 150.556 62.6719 149.578 63.8739 148.389C64.4509 147.709 65.1419 146.952 65.5769 146.26L66.7279 144.216C69.6439 138.706 70.3779 133.159 71.1089 128.574C71.2829 127.45 71.4549 126.337 71.6249 125.241C71.7789 124.141 71.9709 123.16 72.1669 122.239C72.2939 121.285 72.6109 120.369 72.9109 119.463C73.1859 118.544 73.4559 117.642 73.7219 116.756C76.1559 109.788 80.1619 104.818 83.6189 101.442C84.4939 100.603 85.2769 99.851 85.9609 99.194C86.6979 98.573 87.3259 98.042 87.8369 97.61C88.8559 96.713 89.4069 96.228 89.4069 96.228C83.1889 97.504 77.1519 99.979 72.3239 104.27C67.4789 108.556 64.3269 114.109 62.2889 119.731Z" fill="white"/>
<path d="M87.7631 123.147C79.7331 131.87 75.5151 141.437 71.8931 148.068C68.1721 154.838 64.6441 159.716 61.7621 162.782C61.0301 163.55 60.3801 164.233 59.8171 164.826C59.1941 165.346 58.6661 165.787 58.2401 166.145C57.3781 166.901 56.9241 167.299 56.9241 167.299C62.4091 166.892 67.9051 164.093 72.3911 160.407C76.9041 156.739 80.6541 152.103 83.6651 147.601C89.5781 138.732 94.3251 130.494 99.5851 124.819C104.711 119.054 110.411 115.705 115.024 114.007C117.324 113.228 119.213 112.541 120.555 112.281C121.894 111.924 122.619 111.731 122.619 111.731C116.323 110.1 109.469 110.253 103.254 112.515C97.0241 114.729 91.7451 118.802 87.7631 123.147Z" fill="white"/>
<path d="M103.875 137.098C99.2271 139.618 95.4841 142.997 92.5311 146.371C89.6101 149.801 87.4271 153.156 85.5681 156.497C85.1741 157.211 84.7891 157.907 84.4141 158.586C84.0791 159.184 83.8331 159.793 83.4681 160.372C82.6561 161.514 82.0171 162.655 81.2351 163.696C79.7201 165.801 78.3241 167.64 77.1741 169.164C74.8511 172.192 73.5891 173.976 73.5891 173.976C78.2891 172.492 82.7651 170.422 86.8701 167.587C87.8681 166.828 88.8631 166.04 89.8491 165.224C90.7801 164.332 91.6551 163.327 92.5421 162.332C94.0211 160.684 95.4801 159.059 96.9181 157.456C102.615 150.949 107.997 146.079 113.658 142.94C119.266 139.702 125.116 137.913 129.213 136.477C131.299 135.784 132.955 135.236 134.089 134.859C135.228 134.457 135.847 134.24 135.847 134.24C130.292 133.022 124.79 132.395 119.338 132.732C113.906 133.068 108.504 134.557 103.875 137.098Z" fill="white"/>
<path d="M138.495 167.888C136.661 168.732 134.925 169.632 133.348 170.7C132.523 171.192 131.847 171.759 131.16 172.3C130.479 172.842 129.787 173.434 129.285 173.742C128.196 174.494 127.176 175.247 126.215 175.992C125.735 176.373 125.27 176.744 124.819 177.103C124.31 177.452 123.816 177.791 123.34 178.118C121.43 179.442 119.817 180.673 118.505 181.714C115.813 183.7 114.401 185.004 114.401 185.004C118.773 185.126 123.03 184.632 127.193 183.767C131.229 182.813 135.937 180.817 138.712 179.376C144.892 176.615 151.308 175.079 157.099 173.777C162.904 172.57 168.076 171.699 171.797 171.114C175.548 170.511 177.77 170.155 177.77 170.155C168.932 165.683 159.363 163.982 150.671 164.818C146.322 165.234 142.188 166.294 138.495 167.888Z" fill="white"/>
<path d="M8.23697 147.365C8.17297 148.004 8.13797 148.346 8.13797 148.346C11.121 147.084 13.665 144.585 15.412 141.715C17.196 138.828 18.19 135.613 18.694 132.525C18.758 132.119 18.819 131.818 18.878 131.206L18.896 129.88C18.897 129.146 18.896 128.418 18.895 127.699C18.876 126.238 18.762 124.901 18.622 123.564C18.357 120.918 17.88 118.508 17.493 116.362C16.634 112.053 15.855 108.501 15.518 105.787C15.361 104.447 15.111 103.315 15.048 102.555C14.972 101.787 14.931 101.366 14.931 101.366C12.363 104.145 10.674 107.507 9.53597 110.928C8.52897 114.337 8.06097 117.771 7.97197 120.829C7.84397 123.93 8.02797 126.71 8.21797 129.225C8.27997 129.853 8.34097 130.47 8.40197 131.074L8.47097 131.659L8.49297 132.373C8.53297 133.456 8.57097 134.495 8.60597 135.488C8.76197 139.414 8.72897 142.501 8.51597 144.73C8.48797 145.887 8.28897 146.725 8.23697 147.365Z" fill="white"/>
<path d="M35.94 163.118C41.229 165.203 46.822 167.013 52.432 169.038C58.087 170.937 63.881 172.719 69.654 174.552C75.485 176.2 81.278 177.976 87.044 179.49C92.813 180.994 98.47 182.549 104.002 183.827C107.705 184.743 111.295 185.575 114.821 186.369C117.405 190.342 118.003 194.281 118.837 198.126C119.631 202.163 120.649 206.098 122.456 210.167C126.354 218.39 133.177 223.688 139.149 227.002C145.266 230.267 150.874 231.702 154.825 232.358C158.791 233.012 161.135 232.963 161.135 232.963C152.984 226.896 146.178 221.285 140.767 216.043C138.068 213.422 135.744 210.895 133.799 208.466C131.784 206.06 130.476 203.725 128.91 201.195C127.358 198.726 125.955 196.356 124.463 194.254C122.946 192.124 121.337 190.367 119.879 189.083C118.313 187.858 117.113 187.026 116.101 186.655C117.383 186.941 118.694 187.243 119.946 187.512C125.018 188.674 129.851 189.592 134.295 190.518C134.633 190.585 134.954 190.647 135.287 190.712C136.816 191.931 138.371 193.094 139.949 194.181C141.706 195.327 143.505 196.243 145.279 197.164C147.058 198.065 148.832 198.893 150.586 199.642C152.348 200.298 154.089 200.886 155.796 201.408C159.211 202.487 162.498 203.234 165.589 203.658C168.68 204.121 171.567 204.429 174.21 204.456C179.493 204.617 183.771 204.128 186.712 203.626C189.656 203.125 191.273 202.586 191.273 202.586C177.904 194.483 164.182 191.959 153.396 190.959C150.702 190.734 148.245 190.479 145.99 190.423C143.755 190.316 141.71 190.432 140.099 190.313C137.843 190.234 136.201 190.273 135.386 190.305C135.049 190.234 134.725 190.166 134.384 190.094C129.956 189.104 125.141 188.117 120.09 186.883C115.026 185.716 109.7 184.415 104.217 182.975C99.426 181.796 94.528 180.403 89.561 179.019C94.343 178.688 99.163 176.767 103.397 174.313C107.855 171.764 111.909 168.625 115.542 166.15C122.761 161.124 129.869 158.135 136.945 156.32C143.952 154.456 150.491 153.281 155.05 152.143C159.636 151.051 162.283 150.156 162.283 150.156C156.372 148.914 150.741 147.84 145.148 147.358C139.574 146.875 133.998 147.009 128.695 148.159C123.403 149.293 118.479 151.411 114.443 154.107C110.425 156.749 107.066 159.982 104.628 162.638C99.576 168.162 96.119 172.367 93.307 175.034C92.611 175.707 91.991 176.305 91.454 176.825C90.881 177.3 90.397 177.702 90.005 178.026C89.549 178.424 89.234 178.7 89.036 178.873C88.47 178.715 87.916 178.56 87.347 178.403C81.613 176.81 75.859 174.953 70.067 173.225C64.334 171.315 58.583 169.455 52.972 167.483C47.409 165.383 41.865 163.501 36.629 161.349C31.413 159.151 26.281 157.238 21.58 155.046C16.884 152.85 12.391 150.885 8.34198 148.876C4.33798 146.781 0.665977 144.861 -2.58702 143.157C-5.86702 141.504 -8.50502 139.679 -10.792 138.373C-15.299 135.657 -17.876 134.105 -17.876 134.105L-19.374 136.444C-19.374 136.444 -16.744 137.978 -12.145 140.662C-9.81502 141.948 -7.11802 143.754 -3.78602 145.376C-0.480022 147.045 3.24898 148.929 7.31698 150.984C11.426 152.948 15.974 154.862 20.73 157.002C25.486 159.137 30.67 160.986 35.94 163.118Z" fill="white"/>
</g>
<path d="M11.0119 64.6929C10.9429 64.7329 10.8709 64.7639 10.8019 64.8029C10.7529 64.8279 10.7099 64.8589 10.6609 64.8829C10.7739 64.8209 10.8879 64.7609 11.0119 64.6929Z" fill="white"/>
<path d="M-26.744 67.5429C-25.708 67.4729 -24.682 67.4029 -23.664 67.3329C-22.676 67.2509 -21.698 67.1679 -20.728 67.0849C-19.771 66.9989 -18.761 67.1469 -17.811 67.1529C-15.875 67.2589 -14.07 67.1939 -12.221 67.3329C-8.572 67.5529 -4.86799 67.9839 -0.905994 67.8139C2.93401 67.6649 7.095 66.8699 10.801 64.8019C16.81 61.7679 20.386 56.4829 22.016 51.8349C23.594 46.9439 23.501 43.1399 23.489 40.1259C23.426 37.1009 23.235 34.8609 23.118 33.3139C22.998 31.7819 22.934 30.9619 22.934 30.9619C19.782 35.9509 17.892 41.9639 15.399 46.5269C12.824 50.9279 9.473 53.8819 5.924 55.2979L5.591 55.4779C1.683 57.2459 -3.719 57.3869 -9.366 57.8759C-12.176 58.0829 -15 58.6239 -17.566 59.2749C-18.839 59.5979 -20.069 59.9099 -21.254 60.2109C-22.422 60.5639 -23.51 61.1329 -24.545 61.5689C-28.768 63.2269 -31.578 65.5739 -33.541 66.9999C-34.539 67.6939 -35.193 68.3959 -35.643 68.8609C-36.087 69.3259 -36.323 69.5719 -36.323 69.5719C-34.199 68.8399 -31.934 68.5319 -29.838 68.1199C-28.78 67.9359 -27.771 67.6809 -26.744 67.5429Z" fill="white"/>
<path d="M-1.55001 90.9156C2.99899 89.4806 8.15399 88.5066 13.11 86.4766C14.349 86.0036 15.565 85.4386 16.754 84.7676C17.938 84.1916 19.101 83.4126 20.221 82.5926C21.383 81.8406 22.343 80.9196 23.261 80.0096C24.075 79.1326 24.885 78.2816 25.576 77.4036C31.221 70.4606 33.667 63.5686 34.358 58.5966C34.743 56.1286 34.629 54.1396 34.501 52.8346C34.331 51.5176 34.133 50.8486 34.133 50.8486C32.39 56.8016 28.842 60.9846 25.373 64.8666C23.609 66.7836 21.765 68.5716 19.882 70.1996C17.971 71.8046 16.136 73.3976 14.329 74.2646C10.67 76.2346 6.27799 77.4666 1.58399 78.9056C-0.776009 79.6596 -3.10601 80.4276 -5.51601 81.5276C-7.99301 82.5076 -9.98001 84.0616 -12.018 85.3356C-13.951 86.7766 -15.702 88.3316 -17.251 89.8956C-18.663 91.6366 -20.167 93.1146 -21.099 94.8836C-22.132 96.5706 -23.07 98.1356 -23.63 99.7216C-24.264 101.273 -24.856 102.67 -25.138 104.006C-25.477 105.322 -25.771 106.487 -25.992 107.503C-26.131 108.53 -26.25 109.407 -26.346 110.119C-26.5 111.53 -26.583 112.292 -26.583 112.292C-23.214 106.576 -19.425 101.548 -15.103 98.1056C-10.827 94.6406 -5.98101 92.4776 -1.55001 90.9156Z" fill="white"/>
<path d="M22.7271 104.825C26.1111 101.533 29.3761 98.4599 32.2741 95.0569C37.9231 88.4089 41.0751 81.6479 42.2051 76.8039C42.4561 75.5909 42.6781 74.5129 42.8711 73.5769C42.9221 72.6199 42.9661 71.8079 43.0011 71.1529C43.0241 69.8699 43.0371 69.1929 43.0371 69.1929C40.3031 74.6369 36.5411 78.7779 32.6851 82.4589C28.7731 86.1589 24.7751 89.3229 20.6691 92.5769C12.3501 99.1539 4.6291 106.873 0.416101 115.728C-1.6679 120.102 -2.9489 124.534 -3.2339 128.541C-3.4339 130.525 -3.3259 132.412 -3.2719 134.105C-3.0349 135.804 -2.8579 137.35 -2.5589 138.71C-1.8389 141.419 -1.1989 143.462 -0.526899 144.786C0.0821013 146.108 0.411101 146.823 0.411101 146.823C0.264101 140.014 1.4161 133.773 3.6521 128.616C5.8721 123.432 8.9791 119.186 12.3741 115.369C15.7601 111.553 19.3231 108.114 22.7271 104.825Z" fill="white"/>
<path d="M35.952 124.537C37.104 120.458 38.763 116.764 40.514 113.28C42.255 109.774 44.121 106.549 45.73 103.747C47.586 100.93 49.449 97.8468 50.734 95.1208C52.058 92.3568 52.925 89.7568 53.379 87.5638C53.813 85.3498 53.922 83.6027 53.841 82.4067C53.825 81.2327 53.661 80.6147 53.661 80.6147C51.351 85.7087 47.836 89.0327 44.47 92.3497C42.733 93.9977 41.016 95.6287 39.319 97.2397C37.455 98.9537 35.943 101.029 34.42 103.001C31.52 106.951 29.152 111.311 27.591 115.874C26.02 120.429 25.379 125.183 25.559 129.478C26.009 138.157 29.035 144.454 31.181 148.583C32.292 150.659 33.26 152.23 33.969 153.278C34.675 154.321 35.057 154.886 35.057 154.886C34.548 149.003 34.064 143.402 34.121 138.287C34.156 133.162 34.785 128.609 35.952 124.537Z" fill="white"/>
<path d="M60.8269 122.146C63.5079 115.389 65.2459 109.07 65.5259 104.65C65.5809 103.55 65.6299 102.571 65.6729 101.72C65.6109 100.869 65.5599 100.146 65.5189 99.5619C65.3989 98.4209 65.3349 97.8179 65.3349 97.8179C60.8649 107.827 54.0449 114.297 49.4039 123.531C47.0549 128.145 45.5709 133.236 45.0879 138.164C44.5689 143.106 45.0499 147.813 45.9349 151.911C47.7419 160.149 50.7669 166.192 52.8289 170.423C54.9529 174.629 56.3609 177.001 56.3609 177.001C56.3099 164.953 54.5549 153.902 55.1629 144.948C55.4249 140.447 56.1029 136.396 57.1539 132.671C58.2209 128.901 59.4519 125.656 60.8269 122.146Z" fill="white"/>
<path d="M-3.98101 31.0207C-3.31201 30.9127 -2.65501 30.8087 -2.01001 30.7067C-1.76401 30.6487 -1.22801 30.6017 -0.752008 30.4537L0.316994 30.1167C1.57999 29.7317 2.78099 29.2427 3.90799 28.7297C8.44199 26.6977 11.631 23.7707 13.29 21.4397C14.184 20.3457 14.644 19.2777 14.982 18.6267C15.302 17.9557 15.438 17.5967 15.438 17.5967C11.917 18.7567 8.79099 19.1967 5.89299 19.5337C3.00399 19.8717 0.270992 20.0367 -2.38701 20.2817C-3.26301 20.4067 -3.15201 20.2917 -4.03801 20.3357C-4.72401 20.3717 -5.40401 20.4067 -6.07501 20.4427C-7.39401 20.5477 -8.77401 20.6677 -10.078 20.8447C-12.71 21.2147 -15.278 21.7067 -17.698 22.4857C-22.527 23.9447 -26.452 26.3217 -28.725 28.4107C-29.874 29.4657 -30.749 30.2677 -31.265 30.9347C-31.759 31.6057 -32.031 31.9767 -32.031 31.9767C-24.242 30.9357 -18.228 31.6307 -12.391 31.5847C-9.50201 31.5567 -6.66201 31.4267 -3.98101 31.0207Z" fill="white"/>
<path d="M59.5639 15.1086C57.9629 17.8416 56.3649 19.8676 54.7459 21.1946L54.6059 21.3086L54.4439 21.4566C51.7879 23.8696 48.5229 25.0826 45.3299 25.6156C42.2009 26.0446 38.7219 25.7566 35.8649 25.5846C32.9889 25.3996 30.5939 25.3076 28.9769 25.3286C27.3519 25.3476 26.4729 25.4526 26.4729 25.4526C31.8219 28.5516 36.4919 31.8696 42.6419 33.5456C48.8559 35.1166 56.4039 33.8066 61.7399 29.2706L61.4549 29.5186C64.8509 26.9686 67.0569 23.7056 68.6379 20.7156C70.2379 17.6816 71.1869 14.8606 72.1039 12.3486C72.9499 9.80361 73.8549 7.6216 74.7269 5.54361C75.1389 4.48161 75.5379 3.45561 75.9229 2.46761C76.3289 1.49261 76.8779 0.680605 77.3069 -0.187395C78.9359 -3.7214 80.9349 -6.26039 82.1439 -8.22839C83.3709 -10.1934 84.3179 -11.0824 84.2659 -11.1294C82.1109 -10.4114 80.2839 -9.26839 78.3829 -8.13939C77.4489 -7.56139 76.4659 -7.01439 75.5829 -6.36739C74.7529 -5.64639 73.9319 -4.93239 73.1189 -4.22539C72.3029 -3.47839 71.4949 -2.73839 70.6929 -2.00539C69.8939 -1.2534 69.3309 -0.371395 68.6529 0.451605C67.3879 2.1326 66.0239 3.81461 64.9649 5.54761C62.7809 9.02761 61.1819 12.4156 59.5639 15.1086Z" fill="white"/>
<path d="M78.9189 27.2325C73.8989 30.5915 70.3489 34.2385 67.0549 36.8175C65.4329 38.1025 63.8419 39.2585 62.3939 40.0625C60.7329 41.0555 60.2169 41.1855 58.5119 41.5335C55.3359 42.0255 51.8499 42.0285 48.8719 42.0265C45.8119 41.9645 43.1749 41.9105 41.0169 41.8685C36.6499 41.7535 34.1799 41.7605 34.1799 41.7605C38.8639 44.7365 43.8649 47.1945 49.1879 48.8715C51.8489 49.7235 54.5959 50.3595 57.5479 50.6295C59.0149 50.7855 60.5659 50.7745 62.2469 50.5975C63.1219 50.4275 64.1349 50.2685 64.9069 49.9995L67.0829 49.1225C72.8029 46.6435 76.8429 42.7715 80.2779 39.6485C81.1169 38.8795 81.9459 38.1185 82.7639 37.3685C83.5719 36.6065 84.3349 35.9605 85.0629 35.3635C85.7589 34.6975 86.5779 34.1815 87.3789 33.6605C88.1679 33.1155 88.9429 32.5795 89.7039 32.0535C95.9589 28.1345 102.192 26.7585 107.001 26.2835C108.208 26.1755 109.29 26.0775 110.234 25.9925C111.197 25.9675 112.019 25.9465 112.689 25.9285C114.045 25.8655 114.779 25.8305 114.779 25.8305C109.127 22.9405 102.868 21.0995 96.4169 21.4335C89.9539 21.7515 84.0229 24.1165 78.9189 27.2325Z" fill="white"/>
<path d="M96.6719 45.8189C84.9519 47.6099 75.6799 52.4429 68.7089 55.3569C61.5729 58.3159 55.7699 59.9199 51.6049 60.5119C50.5539 60.6539 49.6199 60.7809 48.8089 60.8919C47.9969 60.9089 47.3099 60.9229 46.7529 60.9359C45.6079 60.9869 45.0039 61.0139 45.0039 61.0139C49.5399 64.1239 55.5809 65.3739 61.3859 65.2989C67.2019 65.2559 73.0259 63.9799 78.1909 62.3469C88.3499 59.1189 97.2039 55.6529 104.856 54.5109C112.46 53.2139 119.004 54.1609 123.665 55.7189C125.947 56.5479 127.851 57.1919 129.062 57.8279C130.331 58.3859 131.017 58.6879 131.017 58.6879C127.122 53.4799 121.675 49.3159 115.409 47.1979C109.161 45.0349 102.495 44.9159 96.6719 45.8189Z" fill="white"/>
<path d="M100.531 66.7799C95.3281 65.8429 90.2941 66.1419 85.8801 66.9299C81.4561 67.7819 77.6551 69.0369 74.1161 70.4839C73.3631 70.7949 72.6271 71.0979 71.9101 71.3939C71.2751 71.6519 70.7021 71.9729 70.0551 72.1969C68.7071 72.5809 67.4961 73.0719 66.2341 73.3959C63.7361 74.0929 61.4971 74.6549 59.6471 75.1269C55.9411 76.0399 53.8411 76.6429 53.8411 76.6429C58.4371 78.4219 63.2251 79.6029 68.2011 79.9549C69.4541 79.9859 70.7241 79.9929 72.0031 79.9709C73.2881 79.8559 74.5991 79.6189 75.9131 79.3959C78.0971 79.0339 80.2531 78.6769 82.3761 78.3239C90.8901 76.8039 98.1351 76.3659 104.516 77.4529C110.918 78.4289 116.603 80.6889 120.698 82.1279C122.759 82.8909 124.395 83.4969 125.516 83.9129C126.657 84.3109 127.275 84.5279 127.275 84.5279C123.7 80.1049 119.796 76.1779 115.33 73.0329C110.88 69.9019 105.732 67.6889 100.531 66.7799Z" fill="white"/>
<path d="M108.316 112.452C106.357 111.964 104.439 111.582 102.54 111.431C101.588 111.299 100.706 111.319 99.8321 111.313C98.9621 111.31 98.0521 111.34 97.4671 111.267C96.1471 111.174 94.8801 111.124 93.6641 111.105C93.0511 111.103 92.4571 111.102 91.8801 111.099C91.2651 111.054 90.6671 111.009 90.0911 110.967C87.7731 110.808 85.7441 110.761 84.0691 110.753C80.7261 110.621 78.8091 110.757 78.8091 110.757C82.1461 113.584 85.7781 115.86 89.5681 117.785C93.3151 119.562 98.2381 120.946 101.305 121.556C107.855 123.263 113.824 126.073 119.159 128.676C124.445 131.362 129.027 133.914 132.297 135.783C135.602 137.656 137.559 138.768 137.559 138.768C133.455 129.754 127.047 122.446 119.739 117.666C116.085 115.272 112.195 113.515 108.316 112.452Z" fill="white"/>
<path d="M19.452 15.0268C19.003 15.4858 18.762 15.7308 18.762 15.7308C21.879 16.6098 25.427 16.2488 28.585 15.0998C31.782 13.9608 34.567 12.0718 36.89 9.97676C37.194 9.69976 37.429 9.50376 37.858 9.06176L38.701 8.03776C39.16 7.46476 39.614 6.89676 40.063 6.33476C40.961 5.18276 41.708 4.06676 42.434 2.93676C43.881 0.704758 45.015 -1.47424 46.053 -3.39124C48.075 -7.29124 49.687 -10.5522 51.12 -12.8802C51.835 -14.0242 52.347 -15.0642 52.773 -15.6972C53.194 -16.3442 53.425 -16.6982 53.425 -16.6982C49.683 -16.1332 46.263 -14.5642 43.238 -12.6052C40.322 -10.5732 37.81 -8.18424 35.829 -5.85324C33.791 -3.51224 32.197 -1.22724 30.774 0.854757C30.43 1.38376 30.092 1.90376 29.762 2.41276L29.451 2.91276L29.022 3.48476C28.376 4.35576 27.757 5.18976 27.164 5.98676C24.832 9.14976 22.877 11.5378 21.318 13.1458C20.572 14.0288 19.893 14.5588 19.452 15.0268Z" fill="white"/>
<path d="M31.2349 44.637C34.0609 49.569 37.2959 54.478 40.4099 59.565C43.6379 64.582 47.0479 69.593 50.4089 74.632C53.9309 79.563 57.3429 84.569 60.8989 89.354C64.4629 94.134 67.9069 98.883 71.4279 103.337C73.7459 106.367 76.0289 109.259 78.2859 112.083C77.8209 116.799 75.8259 120.249 74.0739 123.771C72.1709 127.419 70.5069 131.127 69.3739 135.433C67.2779 144.288 69.2939 152.688 71.8849 159.008C74.6199 165.379 78.1009 170.004 80.7749 172.986C83.4629 175.974 85.3229 177.402 85.3229 177.402C82.7519 167.572 80.9449 158.938 79.9959 151.464C79.5269 147.731 79.2919 144.306 79.2919 141.194C79.2229 138.057 79.6599 135.416 80.0199 132.462C80.3509 129.564 80.7369 126.838 80.8859 124.264C81.0329 121.654 80.8749 119.276 80.5389 117.363C80.0819 115.428 79.6649 114.028 79.1069 113.106C79.9289 114.13 80.7639 115.185 81.5729 116.178C84.8059 120.255 88.0059 123.992 90.8959 127.492C91.1179 127.755 91.3299 128.004 91.5489 128.264C91.9809 130.171 92.4679 132.051 93.0199 133.886C93.6759 135.878 94.5069 137.718 95.3169 139.546C96.1429 141.361 97.0099 143.116 97.9119 144.797C98.8769 146.411 99.8699 147.957 100.875 149.432C102.867 152.408 104.966 155.046 107.114 157.308C109.237 159.601 111.299 161.646 113.346 163.319C117.369 166.746 121.015 169.038 123.625 170.484C126.236 171.933 127.835 172.522 127.835 172.522C122.462 157.841 113.327 147.295 105.532 139.774C103.57 137.915 101.811 136.18 100.085 134.727C98.4069 133.246 96.7389 132.059 95.5549 130.96C93.8429 129.488 92.5369 128.493 91.8799 128.008C91.6619 127.742 91.4509 127.487 91.2299 127.217C88.3909 123.677 85.2499 119.897 82.0779 115.777C78.8539 111.701 75.5099 107.357 72.1279 102.806C69.1249 98.892 66.1709 94.743 63.1579 90.559C67.0979 93.289 72.0619 94.802 76.9009 95.532C81.9739 96.328 87.1009 96.411 91.4829 96.749C100.26 97.338 107.677 99.446 114.335 102.451C120.97 105.375 126.809 108.544 131.08 110.505C135.343 112.518 137.968 113.474 137.968 113.474C134.13 108.811 130.404 104.453 126.34 100.582C122.291 96.721 117.854 93.341 112.995 90.926C108.156 88.504 102.987 87.08 98.1519 86.662C93.3639 86.213 88.7219 86.638 85.1579 87.188C77.7619 88.344 72.4349 89.465 68.5739 89.79C67.6099 89.88 66.7519 89.961 66.0079 90.03C65.2639 90.043 64.6349 90.054 64.1259 90.062C63.5209 90.088 63.1029 90.106 62.8399 90.117C62.4959 89.64 62.1609 89.172 61.8149 88.695C58.3339 83.868 55.0019 78.822 51.5599 73.854C48.2779 68.78 44.9499 63.734 41.8029 58.688C38.7729 53.572 35.6209 48.638 32.8779 43.686C30.1789 38.71 27.3679 34.009 25.0689 29.361C22.7749 24.712 20.4959 20.37 18.5899 16.271C16.7729 12.133 15.1069 8.33898 13.6319 4.97598C12.1039 1.63598 11.1849 -1.43802 10.2159 -3.88602C8.39492 -8.82402 7.35292 -11.645 7.35292 -11.645L4.72192 -10.755C4.72192 -10.755 5.81692 -7.91402 7.72992 -2.94502C8.74492 -0.485019 9.72192 2.60998 11.3099 5.95798C12.8479 9.32698 14.5819 13.128 16.4729 17.274C18.4529 21.375 20.8079 25.712 23.1829 30.355C25.5609 34.996 28.4529 39.679 31.2349 44.637Z" fill="white"/>
</g>
</svg>
