<svg width="504" height="299" viewBox="0 0 504 299" fill="none" xmlns="http://www.w3.org/2000/svg">
<mask id="mask0_84_174" style="mask-type:luminance" maskUnits="userSpaceOnUse" x="0" y="0" width="504" height="300">
<path d="M504 0H0V300H504V0Z" fill="white"/>
</mask>
<g mask="url(#mask0_84_174)">
<g opacity="0.3">
<path d="M471.07 97.7105C471.099 97.6334 471.136 97.5605 471.166 97.4844C471.189 97.4324 471.203 97.3792 471.226 97.3271C471.176 97.4511 471.124 97.5751 471.07 97.7105Z" fill="white"/>
<path d="M498.764 70.8146C497.999 71.5459 497.241 72.2709 496.491 72.9907C495.771 73.7011 495.059 74.4042 494.354 75.1042C493.661 75.7969 492.78 76.3334 492.034 76.948C490.456 78.1219 489.088 79.35 487.557 80.4407C484.571 82.6375 481.41 84.698 478.423 87.4157C475.518 90.0365 472.767 93.3917 471.166 97.4855C468.371 103.865 468.882 110.491 470.514 115.33C472.339 120.334 474.789 123.368 476.681 125.811C478.621 128.23 480.169 129.927 481.228 131.109C482.279 132.277 482.842 132.902 482.842 132.902C482.185 126.793 479.902 120.673 478.997 115.34C478.256 110.084 479.027 105.501 480.913 102.04L481.061 101.676C483.007 97.6948 487.137 94.0636 491.239 89.9896C493.303 87.9917 495.169 85.7136 496.766 83.5136C497.558 82.4219 498.323 81.3677 499.06 80.3511C499.751 79.3042 500.245 78.1323 500.781 77.1042C503.042 73.0073 503.769 69.2688 504.41 66.8313C504.756 65.6177 504.828 64.6209 504.887 63.95C504.943 63.2823 504.973 62.9292 504.973 62.9292C503.772 64.9073 502.196 66.6323 500.818 68.3323C500.107 69.1698 499.479 70.0334 498.764 70.8146Z" fill="white"/>
<path d="M464.489 68.2082C461.835 72.3364 458.419 76.4843 455.819 81.3614C455.147 82.553 454.551 83.803 454.042 85.1228C453.478 86.3624 453.057 87.753 452.695 89.1489C452.258 90.5166 452.084 91.8905 451.935 93.228C451.847 94.4707 451.747 95.6905 451.756 96.8541C451.688 106.175 454.085 113.372 456.653 117.864C457.895 120.122 459.227 121.666 460.142 122.643C461.098 123.603 461.671 124.018 461.671 124.018C459.311 118.043 459.467 112.33 459.75 106.916C459.929 104.208 460.251 101.553 460.703 99.0041C461.192 96.4541 461.629 93.9655 462.498 92.0832C464.123 88.0989 466.782 84.2384 469.547 80.0124C470.918 77.8624 472.258 75.7218 473.452 73.2582C474.774 70.8489 475.354 68.2916 476.148 65.928C476.757 63.4978 477.152 61.0937 477.384 58.8124C477.398 56.478 477.649 54.2968 477.271 52.252C477.023 50.2082 476.778 48.3249 476.223 46.6697C475.749 44.9957 475.338 43.4749 474.722 42.2041C474.165 40.9134 473.666 39.7739 473.203 38.8041C472.67 37.8791 472.215 37.0884 471.845 36.4457C471.084 35.1978 470.672 34.5249 470.672 34.5249C471.614 41.3666 471.798 47.9218 470.575 53.5343C469.403 59.1405 466.973 64.0541 464.489 68.2082Z" fill="white"/>
<path d="M436.844 72.702C436.259 77.5822 435.632 82.2062 435.495 86.8603C435.24 95.9436 437.004 103.495 439.15 108.169C439.712 109.319 440.213 110.339 440.647 111.227C441.205 112.038 441.679 112.727 442.061 113.283C442.845 114.342 443.258 114.901 443.258 114.901C441.99 108.695 442.339 102.878 443.049 97.3738C443.791 91.8186 444.935 86.6426 446.106 81.3239C448.491 70.5593 449.694 59.2572 447.449 49.3134C446.342 44.3999 444.573 39.9624 442.291 36.5176C441.207 34.7739 439.944 33.3103 438.844 31.9687C437.598 30.7416 436.493 29.5989 435.41 28.6884C433.155 26.9541 431.379 25.7093 430.026 25.0707C428.725 24.3926 428.021 24.0249 428.021 24.0249C432.391 29.4655 435.392 35.2916 436.869 40.9405C438.375 46.602 438.603 52.077 438.338 57.3905C438.078 62.6947 437.447 67.8114 436.844 72.702Z" fill="white"/>
<path d="M414.201 65.2802C415.851 69.3479 416.865 73.4312 417.675 77.4042C418.507 81.3885 419.066 85.225 419.56 88.5521C419.872 92.0521 420.344 95.7708 421.045 98.825C421.739 101.934 422.687 104.614 423.703 106.692C424.748 108.774 425.755 110.267 426.565 111.185C427.311 112.13 427.826 112.526 427.826 112.526C426.446 106.88 427.112 101.889 427.668 97C427.994 94.5292 428.315 92.0854 428.633 89.6698C429.017 87.0625 428.901 84.3906 428.857 81.7958C428.653 76.6958 427.777 71.6083 426.143 66.8812C424.522 62.1542 422.052 57.8708 419.228 54.4958C413.453 47.7313 407.156 44.5802 402.9 42.6188C400.735 41.6531 398.998 41.0063 397.79 40.6156C396.587 40.2271 395.936 40.0156 395.936 40.0156C400.01 44.4688 403.888 48.7083 407.04 52.9042C410.213 57.0979 412.567 61.2104 414.201 65.2802Z" fill="white"/>
<path d="M396.276 83.4189C398.406 90.6595 400.998 96.9293 403.542 100.705C404.186 101.636 404.76 102.464 405.259 103.185C405.839 103.837 406.33 104.391 406.728 104.84C407.535 105.69 407.962 106.138 407.962 106.138C405.196 95.0887 406.477 85.3876 404.33 74.8574C403.28 69.5762 401.257 64.4699 398.554 60.148C395.87 55.7918 392.554 52.2772 389.301 49.521C382.742 43.998 376.604 41.0533 372.35 38.9543C368.063 36.9168 365.482 35.9043 365.482 35.9043C373.051 45.6689 381.327 53.5126 386.449 61.1897C389.058 65.021 391.06 68.7564 392.567 72.4689C394.089 76.2293 395.156 79.6699 396.276 83.4189Z" fill="white"/>
<path d="M503.818 115.332C503.363 115.855 502.915 116.368 502.476 116.871C502.32 117.078 501.932 117.465 501.652 117.896L501.028 118.865C500.283 120.001 499.65 121.18 499.092 122.331C496.823 126.935 496.162 131.392 496.324 134.368C496.31 135.838 496.618 137.008 496.761 137.756C496.93 138.51 497.049 138.892 497.049 138.892C499.073 135.656 501.238 133.263 503.29 131.103C505.334 128.947 507.364 127.034 509.287 125.105C509.893 124.433 509.878 124.598 510.542 123.986C511.056 123.51 511.564 123.039 512.065 122.574C513.029 121.629 514.032 120.633 514.939 119.642C516.763 117.628 518.46 115.555 519.862 113.347C522.72 109.017 524.299 104.529 524.768 101.35C525.005 99.7436 525.187 98.5217 525.173 97.6447C525.139 96.777 525.12 96.2988 525.12 96.2988C519.69 102.215 514.561 105.565 510.033 109.403C507.792 111.302 505.657 113.257 503.818 115.332Z" fill="white"/>
<path d="M464.154 169.638C463.696 166.374 463.678 163.685 464.112 161.553L464.15 161.369L464.183 161.142C464.748 157.452 466.539 154.338 468.699 151.827C470.874 149.441 473.769 147.41 476.108 145.69C478.469 143.969 480.396 142.484 481.645 141.414C482.902 140.341 483.523 139.683 483.523 139.683C477.41 140.645 471.691 140.987 465.842 143.628C460.009 146.396 454.936 152.375 453.605 159.537L453.672 159.15C452.614 163.434 452.931 167.524 453.566 170.984C454.213 174.494 455.235 177.405 456.089 180.045C457.019 182.664 457.676 185.028 458.294 187.286C458.636 188.417 458.966 189.512 459.283 190.565C459.575 191.623 459.655 192.64 459.862 193.626C460.799 197.559 460.825 200.926 461.111 203.313C461.381 205.71 461.197 207.05 461.267 207.054C462.501 205.067 463.213 202.948 463.992 200.792C464.36 199.714 464.785 198.63 465.07 197.529C465.267 196.403 465.462 195.287 465.655 194.183C465.826 193.045 465.994 191.916 466.161 190.799C466.315 189.667 466.203 188.583 466.218 187.473C466.155 185.283 466.169 183.027 465.913 180.928C465.443 176.678 464.573 172.882 464.154 169.638Z" fill="white"/>
<path d="M441.467 172.379C443.287 166.38 443.779 161.103 444.739 156.861C445.202 154.76 445.722 152.784 446.35 151.188C447.026 149.3 447.347 148.858 448.462 147.464C450.634 144.997 453.354 142.725 455.68 140.788C458.108 138.847 460.199 137.174 461.911 135.804C465.393 133.054 467.316 131.441 467.316 131.441C461.799 132.071 456.359 133.327 451.155 135.429C448.545 136.467 446.003 137.739 443.53 139.441C442.287 140.27 441.084 141.288 439.882 142.527C439.305 143.235 438.614 144.024 438.179 144.745L437.028 146.874C434.112 152.613 433.378 158.392 432.647 163.167C432.473 164.338 432.302 165.498 432.132 166.639C431.978 167.785 431.785 168.807 431.59 169.766C431.463 170.76 431.146 171.714 430.846 172.659C430.571 173.616 430.301 174.556 430.035 175.479C427.601 182.737 423.595 187.914 420.138 191.431C419.263 192.305 418.48 193.088 417.796 193.773C417.059 194.42 416.431 194.973 415.919 195.423C414.9 196.357 414.349 196.862 414.349 196.862C420.567 195.533 426.604 192.955 431.432 188.485C436.278 184.021 439.43 178.235 441.467 172.379Z" fill="white"/>
<path d="M415.993 168.822C424.023 159.736 428.241 149.77 431.863 142.862C435.584 135.811 439.112 130.729 441.994 127.535C442.726 126.735 443.376 126.024 443.939 125.406C444.562 124.864 445.09 124.405 445.516 124.032C446.378 123.245 446.832 122.83 446.832 122.83C441.347 123.254 435.851 126.17 431.365 130.009C426.852 133.83 423.102 138.659 420.091 143.349C414.178 152.587 409.431 161.169 404.171 167.08C399.045 173.084 393.345 176.574 388.732 178.343C386.432 179.154 384.543 179.87 383.201 180.14C381.862 180.512 381.137 180.713 381.137 180.713C387.433 182.412 394.287 182.253 400.502 179.897C406.733 177.589 412.011 173.347 415.993 168.822Z" fill="white"/>
<path d="M399.881 154.289C404.528 151.664 408.272 148.144 411.225 144.629C414.146 141.056 416.329 137.562 418.188 134.081C418.582 133.338 418.967 132.613 419.342 131.905C419.677 131.282 419.923 130.648 420.288 130.045C421.1 128.855 421.739 127.667 422.521 126.582C424.036 124.39 425.432 122.475 426.582 120.887C428.905 117.731 430.167 115.874 430.167 115.874C425.467 117.419 420.991 119.575 416.886 122.529C415.888 123.32 414.893 124.141 413.907 124.992C412.976 125.921 412.101 126.968 411.214 128.004C409.735 129.721 408.276 131.414 406.839 133.083C401.142 139.862 395.76 144.934 390.099 148.204C384.492 151.578 378.641 153.441 374.544 154.937C372.458 155.657 370.802 156.229 369.667 156.622C368.528 157.041 367.909 157.267 367.909 157.267C373.464 158.535 378.966 159.189 384.418 158.838C389.85 158.488 395.252 156.935 399.881 154.289Z" fill="white"/>
<path d="M365.261 122.216C367.095 121.337 368.831 120.4 370.408 119.287C371.233 118.775 371.909 118.184 372.596 117.621C373.277 117.056 373.969 116.439 374.471 116.119C375.56 115.335 376.58 114.551 377.541 113.775C378.021 113.378 378.486 112.991 378.937 112.618C379.445 112.254 379.94 111.901 380.416 111.56C382.326 110.181 383.939 108.899 385.251 107.814C387.944 105.746 389.355 104.387 389.355 104.387C384.983 104.26 380.726 104.775 376.563 105.676C372.527 106.67 367.819 108.749 365.044 110.25C358.864 113.126 352.448 114.726 346.657 116.082C340.852 117.339 335.68 118.247 331.959 118.856C328.208 119.484 325.986 119.855 325.986 119.855C334.824 124.513 344.393 126.285 353.085 125.414C357.434 124.98 361.568 123.877 365.261 122.216Z" fill="white"/>
<path d="M495.52 143.594C495.584 142.928 495.619 142.572 495.619 142.572C492.636 143.886 490.092 146.489 488.345 149.479C486.561 152.486 485.567 155.835 485.063 159.052C484.999 159.475 484.938 159.788 484.879 160.426L484.861 161.807C484.86 162.572 484.861 163.329 484.862 164.079C484.881 165.601 484.995 166.994 485.135 168.386C485.4 171.143 485.877 173.653 486.264 175.888C487.123 180.377 487.902 184.077 488.239 186.903C488.396 188.299 488.646 189.478 488.709 190.27C488.785 191.07 488.826 191.508 488.826 191.508C491.394 188.613 493.083 185.111 494.221 181.548C495.228 177.997 495.696 174.42 495.785 171.234C495.913 168.003 495.729 165.108 495.539 162.488C495.477 161.834 495.416 161.192 495.355 160.562L495.286 159.953L495.264 159.208C495.224 158.08 495.186 156.998 495.151 155.963C494.995 151.874 495.028 148.658 495.241 146.336C495.268 145.134 495.468 144.261 495.52 143.594Z" fill="white"/>
<path d="M467.816 127.185C462.527 125.013 456.934 123.128 451.324 121.018C445.669 119.04 439.875 117.185 434.102 115.275C428.271 113.558 422.478 111.708 416.712 110.132C410.943 108.565 405.286 106.945 399.754 105.614C396.051 104.66 392.461 103.793 388.935 102.966C386.351 98.8279 385.753 94.7248 384.919 90.7195C384.125 86.5143 383.107 82.4154 381.3 78.1768C377.402 69.6112 370.579 64.0925 364.607 60.6404C358.49 57.2393 352.882 55.7445 348.931 55.0612C344.965 54.381 342.621 54.431 342.621 54.431C350.772 60.7508 357.578 66.5956 362.989 72.056C365.688 74.7862 368.012 77.4185 369.957 79.9487C371.972 82.455 373.28 84.8872 374.846 87.5227C376.398 90.0945 377.801 92.5633 379.293 94.7529C380.81 96.9716 382.419 98.8018 383.877 100.139C385.443 101.415 386.643 102.282 387.655 102.668C386.373 102.371 385.062 102.056 383.81 101.776C378.738 100.565 373.905 99.6091 369.461 98.6445C369.123 98.5747 368.802 98.5102 368.469 98.4425C366.94 97.1727 365.385 95.9612 363.807 94.8289C362.05 93.6362 360.251 92.681 358.477 91.7216C356.698 90.7831 354.925 89.9206 353.17 89.1404C351.408 88.457 349.667 87.8445 347.96 87.2997C344.545 86.1758 341.258 85.3977 338.167 84.956C335.076 84.4737 332.189 84.1529 329.546 84.1247C324.263 83.957 319.985 84.4664 317.044 84.9893C314.1 85.5112 312.483 86.0727 312.483 86.0727C325.852 94.5133 339.574 97.1425 350.36 98.1841C353.054 98.4185 355.511 98.6841 357.766 98.7425C360.001 98.8539 362.046 98.7331 363.657 98.857C365.913 98.9393 367.554 98.8987 368.37 98.8654C368.707 98.9393 369.03 99.0102 369.372 99.0852C373.8 100.116 378.615 101.146 383.666 102.43C388.731 103.646 394.056 105.001 399.539 106.501C404.33 107.729 409.228 109.18 414.195 110.622C409.413 110.966 404.593 112.967 400.359 115.524C395.901 118.179 391.847 121.449 388.214 124.027C380.995 129.262 373.887 132.376 366.811 134.266C359.804 136.208 353.266 137.432 348.706 138.617C344.12 139.755 341.473 140.687 341.473 140.687C347.384 141.981 353.015 143.1 358.608 143.602C364.182 144.105 369.758 143.965 375.061 142.766C380.353 141.585 385.277 139.379 389.313 136.571C393.331 133.818 396.69 130.451 399.128 127.684C404.18 121.93 407.637 117.55 410.449 114.772C411.145 114.071 411.765 113.448 412.302 112.906C412.874 112.411 413.359 111.992 413.751 111.655C414.207 111.24 414.522 110.953 414.72 110.773C415.286 110.936 415.84 111.099 416.409 111.262C422.143 112.922 427.898 114.856 433.689 116.656C439.422 118.646 445.173 120.583 450.784 122.637C456.347 124.825 461.891 126.785 467.127 129.027C472.343 131.316 477.475 133.309 482.175 135.592C486.871 137.88 491.364 139.927 495.413 142.02C499.417 144.202 503.089 146.202 506.342 147.977C509.622 149.699 512.261 151.6 514.547 152.96C519.055 155.789 521.631 157.406 521.631 157.406L523.129 154.97C523.129 154.97 520.499 153.372 515.9 150.576C513.57 149.236 510.873 147.355 507.541 145.665C504.235 143.927 500.506 141.964 496.438 139.824C492.329 137.778 487.78 135.784 483.025 133.555C478.271 131.331 473.086 129.406 467.816 127.185Z" fill="white"/>
</g>
<path d="M492.745 229.712C492.814 229.67 492.886 229.638 492.955 229.597C493.004 229.571 493.047 229.539 493.096 229.513C492.982 229.577 492.868 229.641 492.745 229.712Z" fill="white"/>
<path d="M530.5 226.742C529.464 226.815 528.437 226.888 527.42 226.961C526.432 227.047 525.454 227.133 524.484 227.22C523.527 227.309 522.517 227.155 521.567 227.149C519.631 227.038 517.826 227.106 515.977 226.961C512.328 226.732 508.624 226.283 504.662 226.46C500.822 226.615 496.661 227.443 492.955 229.598C486.946 232.758 483.37 238.263 481.74 243.104C480.162 248.199 480.255 252.161 480.267 255.301C480.33 258.452 480.521 260.785 480.638 262.398C480.758 263.993 480.822 264.848 480.822 264.848C483.974 259.651 485.864 253.387 488.357 248.634C490.931 244.05 494.283 240.973 497.832 239.498L498.165 239.31C502.073 237.468 507.475 237.322 513.122 236.812C515.932 236.597 518.755 236.033 521.322 235.355C522.595 235.018 523.825 234.693 525.01 234.38C526.178 234.012 527.266 233.42 528.301 232.965C532.524 231.238 535.334 228.793 537.297 227.308C538.295 226.586 538.949 225.854 539.399 225.37C539.843 224.885 540.079 224.629 540.079 224.629C537.955 225.391 535.69 225.712 533.594 226.141C532.536 226.333 531.527 226.598 530.5 226.742Z" fill="white"/>
<path d="M505.306 202.395C500.757 203.889 495.602 204.904 490.646 207.019C489.407 207.511 488.191 208.1 487.002 208.799C485.818 209.399 484.655 210.21 483.535 211.064C482.373 211.849 481.413 212.807 480.494 213.755C479.68 214.669 478.87 215.555 478.179 216.47C472.534 223.702 470.088 230.881 469.397 236.06C469.012 238.631 469.126 240.703 469.254 242.062C469.424 243.434 469.622 244.131 469.622 244.131C471.365 237.93 474.913 233.573 478.382 229.529C480.146 227.531 481.99 225.669 483.873 223.974C485.784 222.302 487.619 220.643 489.426 219.739C493.085 217.687 497.477 216.404 502.171 214.905C504.531 214.12 506.862 213.321 509.271 212.174C511.748 211.153 513.735 209.534 515.773 208.206C517.706 206.705 519.457 205.085 521.006 203.456C522.418 201.643 523.922 200.103 524.854 198.26C525.887 196.503 526.825 194.873 527.385 193.221C528.019 191.605 528.611 190.15 528.893 188.758C529.232 187.388 529.526 186.174 529.747 185.115C529.886 184.047 530.005 183.132 530.101 182.39C530.255 180.921 530.338 180.127 530.338 180.127C526.969 186.081 523.18 191.319 518.858 194.904C514.583 198.515 509.738 200.769 505.306 202.395Z" fill="white"/>
<path d="M481.029 187.906C477.645 191.335 474.38 194.536 471.482 198.081C465.833 205.006 462.681 212.049 461.552 217.095C461.301 218.358 461.079 219.481 460.886 220.456C460.835 221.453 460.791 222.299 460.756 222.981C460.733 224.318 460.72 225.023 460.72 225.023C463.454 219.352 467.216 215.038 471.072 211.204C474.984 207.35 478.982 204.054 483.088 200.664C491.407 193.813 499.128 185.773 503.341 176.549C505.425 171.993 506.706 167.376 506.991 163.202C507.191 161.135 507.083 159.17 507.029 157.406C506.792 155.636 506.615 154.026 506.316 152.609C505.596 149.787 504.956 147.659 504.284 146.28C503.675 144.903 503.346 144.158 503.346 144.158C503.493 151.251 502.341 157.752 500.105 163.124C497.885 168.524 494.778 172.947 491.383 176.923C487.996 180.898 484.434 184.481 481.029 187.906Z" fill="white"/>
<path d="M467.805 167.373C466.653 171.622 464.994 175.47 463.244 179.099C461.503 182.75 459.637 186.11 458.028 189.029C456.172 191.963 454.309 195.175 453.024 198.015C451.7 200.895 450.833 203.603 450.379 205.887C449.945 208.194 449.836 210.013 449.918 211.259C449.934 212.482 450.098 213.126 450.098 213.126C452.408 207.82 455.923 204.357 459.289 200.902C461.026 199.185 462.743 197.486 464.44 195.808C466.304 194.023 467.816 191.861 469.339 189.807C472.239 185.693 474.607 181.151 476.168 176.398C477.739 171.653 478.38 166.701 478.2 162.227C477.75 153.186 474.724 146.627 472.578 142.326C471.467 140.162 470.499 138.527 469.79 137.435C469.084 136.349 468.702 135.76 468.702 135.76C469.211 141.888 469.695 147.723 469.638 153.051C469.601 158.388 468.971 163.132 467.805 167.373Z" fill="white"/>
<path d="M442.929 169.863C440.248 176.902 438.51 183.484 438.23 188.088C438.175 189.234 438.126 190.254 438.083 191.14C438.145 192.027 438.196 192.78 438.237 193.388C438.357 194.577 438.421 195.205 438.421 195.205C442.891 184.779 449.711 178.039 454.352 168.421C456.701 163.614 458.185 158.311 458.668 153.178C459.186 148.03 458.706 143.127 457.82 138.858C456.013 130.277 452.988 123.982 450.926 119.575C448.802 115.193 447.393 112.723 447.393 112.723C447.444 125.273 449.199 136.784 448.591 146.112C448.329 150.801 447.652 155.021 446.6 158.901C445.535 162.828 444.304 166.207 442.929 169.863Z" fill="white"/>
<path d="M507.737 264.786C507.068 264.898 506.411 265.007 505.766 265.113C505.52 265.174 504.984 265.223 504.508 265.377L503.439 265.728C502.176 266.129 500.975 266.638 499.848 267.173C495.314 269.289 492.125 272.338 490.466 274.767C489.573 275.906 489.112 277.019 488.774 277.697C488.454 278.396 488.318 278.77 488.318 278.77C491.839 277.561 494.965 277.103 497.863 276.752C500.752 276.4 503.485 276.228 506.143 275.973C507.019 275.843 506.908 275.961 507.794 275.917C508.48 275.879 509.16 275.843 509.831 275.805C511.15 275.696 512.53 275.571 513.833 275.386C516.465 275.001 519.033 274.488 521.453 273.677C526.282 272.157 530.207 269.681 532.48 267.505C533.629 266.406 534.504 265.57 535.02 264.876C535.514 264.176 535.786 263.791 535.786 263.791C527.997 264.875 521.983 264.151 516.146 264.199C513.258 264.227 510.418 264.363 507.737 264.786Z" fill="white"/>
<path d="M444.193 281.36C445.794 278.514 447.392 276.403 449.011 275.021L449.151 274.902L449.313 274.748C451.969 272.234 455.234 270.971 458.427 270.416C461.556 269.969 465.035 270.269 467.892 270.448C470.768 270.641 473.163 270.737 474.78 270.715C476.405 270.695 477.284 270.585 477.284 270.585C471.935 267.357 467.265 263.901 461.115 262.155C454.901 260.519 447.353 261.883 442.017 266.609L442.302 266.351C438.906 269.007 436.7 272.406 435.12 275.521C433.52 278.681 432.571 281.62 431.654 284.237C430.808 286.888 429.903 289.16 429.031 291.325C428.619 292.431 428.22 293.5 427.836 294.529C427.43 295.545 426.881 296.392 426.452 297.295C424.824 300.976 422.824 303.621 421.615 305.671C420.388 307.718 419.441 308.644 419.493 308.693C421.648 307.945 423.475 306.754 425.376 305.578C426.31 304.976 427.293 304.406 428.176 303.732C429.006 302.981 429.827 302.238 430.64 301.501C431.456 300.723 432.264 299.952 433.066 299.189C433.865 298.405 434.428 297.487 435.106 296.629C436.371 294.878 437.735 293.126 438.794 291.321C440.976 287.696 442.574 284.166 444.193 281.36Z" fill="white"/>
<path d="M424.837 268.731C429.858 265.232 433.407 261.434 436.701 258.747C438.323 257.409 439.914 256.204 441.362 255.367C443.023 254.332 443.539 254.197 445.244 253.835C448.42 253.322 451.906 253.319 454.885 253.321C457.945 253.386 460.582 253.442 462.74 253.486C467.107 253.605 469.577 253.598 469.577 253.598C464.893 250.498 459.892 247.938 454.569 246.191C451.908 245.303 449.161 244.641 446.209 244.36C444.742 244.197 443.191 244.209 441.51 244.393C440.635 244.571 439.622 244.736 438.85 245.016L436.673 245.929C430.953 248.512 426.913 252.545 423.478 255.798C422.639 256.599 421.81 257.392 420.992 258.173C420.184 258.967 419.421 259.64 418.693 260.262C417.997 260.955 417.178 261.493 416.377 262.036C415.589 262.603 414.813 263.162 414.052 263.71C407.798 267.792 401.564 269.225 396.755 269.72C395.548 269.832 394.466 269.935 393.522 270.024C392.559 270.05 391.737 270.072 391.067 270.091C389.711 270.156 388.977 270.193 388.977 270.193C394.629 273.203 400.888 275.121 407.339 274.773C413.802 274.442 419.733 271.977 424.837 268.731Z" fill="white"/>
<path d="M407.085 249.371C418.805 247.505 428.077 242.471 435.049 239.435C442.185 236.353 447.987 234.682 452.153 234.065C453.204 233.918 454.138 233.785 454.949 233.67C455.76 233.652 456.448 233.637 457.005 233.624C458.15 233.571 458.754 233.543 458.754 233.543C454.218 230.303 448.177 229.001 442.372 229.079C436.556 229.124 430.732 230.453 425.567 232.154C415.408 235.516 406.554 239.127 398.902 240.316C391.298 241.668 384.754 240.681 380.093 239.058C377.811 238.195 375.907 237.524 374.696 236.861C373.427 236.279 372.741 235.965 372.741 235.965C376.636 241.39 382.083 245.728 388.349 247.934C394.595 250.187 401.261 250.311 407.085 249.371Z" fill="white"/>
<path d="M403.225 227.537C408.428 228.513 413.462 228.202 417.876 227.381C422.3 226.494 426.101 225.186 429.64 223.679C430.393 223.355 431.129 223.039 431.846 222.731C432.481 222.462 433.054 222.128 433.701 221.895C435.049 221.495 436.26 220.983 437.522 220.646C440.021 219.921 442.259 219.334 444.109 218.843C447.815 217.891 449.915 217.263 449.915 217.263C445.319 215.41 440.531 214.18 435.555 213.813C434.302 213.781 433.032 213.774 431.753 213.797C430.469 213.915 429.157 214.163 427.843 214.396C425.659 214.773 423.503 215.145 421.38 215.512C412.866 217.096 405.621 217.552 399.24 216.42C392.839 215.403 387.153 213.049 383.058 211.55C380.997 210.755 379.361 210.124 378.24 209.69C377.099 209.276 376.481 209.05 376.481 209.05C380.056 213.657 383.96 217.748 388.426 221.024C392.876 224.284 398.024 226.59 403.225 227.537Z" fill="white"/>
<path d="M395.44 179.961C397.399 180.469 399.317 180.867 401.216 181.025C402.168 181.162 403.049 181.142 403.924 181.148C404.794 181.151 405.704 181.12 406.289 181.196C407.609 181.293 408.876 181.345 410.092 181.364C410.704 181.367 411.299 181.368 411.876 181.371C412.491 181.418 413.089 181.464 413.666 181.508C415.984 181.674 418.013 181.723 419.688 181.731C423.031 181.869 424.948 181.727 424.948 181.727C421.611 178.782 417.979 176.411 414.189 174.405C410.442 172.554 405.52 171.112 402.452 170.477C395.902 168.699 389.933 165.772 384.599 163.06C379.313 160.262 374.731 157.604 371.461 155.658C368.156 153.707 366.199 152.549 366.199 152.549C370.303 161.938 376.711 169.551 384.019 174.53C387.672 177.024 391.561 178.854 395.44 179.961Z" fill="white"/>
<path d="M484.304 281.447C484.753 280.969 484.994 280.714 484.994 280.714C481.877 279.798 478.329 280.174 475.171 281.371C471.974 282.557 469.189 284.525 466.866 286.707C466.562 286.996 466.327 287.2 465.898 287.661L465.055 288.727C464.596 289.324 464.142 289.916 463.693 290.501C462.795 291.701 462.048 292.864 461.322 294.041C459.875 296.366 458.741 298.636 457.703 300.632C455.681 304.695 454.069 308.092 452.636 310.517C451.922 311.709 451.409 312.792 450.983 313.451C450.562 314.125 450.331 314.494 450.331 314.494C454.072 313.905 457.493 312.271 460.518 310.23C463.434 308.114 465.946 305.625 467.927 303.197C469.965 300.759 471.559 298.378 472.982 296.21C473.326 295.659 473.664 295.118 473.994 294.587L474.305 294.066L474.734 293.47C475.38 292.563 475.999 291.694 476.592 290.864C478.924 287.569 480.879 285.081 482.438 283.406C483.184 282.486 483.863 281.934 484.304 281.447Z" fill="white"/>
<path d="M472.521 250.602C469.695 245.465 466.46 240.351 463.346 235.052C460.118 229.826 456.708 224.605 453.347 219.357C449.825 214.222 446.413 209.006 442.857 204.022C439.293 199.043 435.849 194.096 432.328 189.456C430.009 186.3 427.727 183.287 425.47 180.346C425.936 175.433 427.93 171.84 429.682 168.171C431.585 164.371 433.249 160.508 434.382 156.023C436.478 146.799 434.462 138.049 431.871 131.466C429.136 124.829 425.655 120.011 422.981 116.905C420.294 113.792 418.433 112.305 418.433 112.305C421.004 122.545 422.811 131.539 423.76 139.324C424.229 143.212 424.464 146.78 424.465 150.022C424.534 153.29 424.097 156.041 423.737 159.118C423.406 162.136 423.02 164.976 422.871 167.657C422.724 170.376 422.882 172.853 423.218 174.847C423.675 176.862 424.092 178.321 424.65 179.281C423.828 178.215 422.993 177.115 422.184 176.081C418.951 171.834 415.751 167.942 412.861 164.296C412.639 164.022 412.427 163.762 412.208 163.492C411.776 161.505 411.289 159.547 410.737 157.635C410.081 155.56 409.25 153.644 408.44 151.74C407.614 149.849 406.747 148.021 405.845 146.27C404.879 144.589 403.887 142.978 402.882 141.442C400.89 138.341 398.791 135.594 396.643 133.237C394.52 130.849 392.457 128.719 390.411 126.976C386.388 123.406 382.742 121.019 380.132 119.512C377.521 118.003 375.922 117.39 375.922 117.39C381.295 132.682 390.43 143.668 398.225 151.502C400.187 153.439 401.946 155.246 403.672 156.759C405.35 158.302 407.018 159.539 408.202 160.684C409.914 162.218 411.22 163.254 411.877 163.759C412.095 164.036 412.306 164.302 412.527 164.583C415.366 168.271 418.507 172.208 421.679 176.5C424.903 180.746 428.247 185.271 431.628 190.011C434.631 194.089 437.585 198.41 440.598 202.769C436.658 199.925 431.694 198.349 426.855 197.589C421.782 196.759 416.655 196.673 412.273 196.321C403.496 195.707 396.079 193.511 389.421 190.381C382.786 187.335 376.947 184.034 372.676 181.992C368.413 179.895 365.788 178.9 365.788 178.9C369.626 183.757 373.352 188.297 377.416 192.329C381.465 196.351 385.903 199.872 390.761 202.387C395.6 204.91 400.769 206.394 405.604 206.829C410.392 207.297 415.034 206.854 418.598 206.281C425.994 205.077 431.321 203.909 435.183 203.571C436.147 203.477 437.005 203.394 437.749 203.321C438.493 203.307 439.122 203.296 439.631 203.287C440.236 203.26 440.654 203.242 440.917 203.23C441.261 203.727 441.596 204.215 441.942 204.711C445.423 209.74 448.755 214.996 452.196 220.172C455.478 225.457 458.806 230.714 461.953 235.97C464.983 241.299 468.136 246.439 470.878 251.597C473.577 256.78 476.387 261.677 478.687 266.519C480.981 271.361 483.26 275.884 485.166 280.154C486.983 284.465 488.649 288.417 490.124 291.92C491.652 295.399 492.571 298.601 493.54 301.151C495.361 306.295 496.403 309.233 496.403 309.233L499.034 308.306C499.034 308.306 497.939 305.347 496.026 300.171C495.011 297.608 494.034 294.384 492.446 290.896C490.908 287.386 489.174 283.427 487.283 279.108C485.303 274.836 482.948 270.319 480.573 265.482C478.195 260.645 475.303 255.767 472.521 250.602Z" fill="white"/>
</g>
</svg>
