<svg width="142" height="30" viewBox="0 0 142 30" fill="none" xmlns="http://www.w3.org/2000/svg">
<path d="M13 0L26 7.5V22.5L13 30L0 22.5V7.5L13 0Z" fill="#00BF63"/>
<path d="M16.5915 10.75V18.9167C16.5915 20.05 16.2635 20.9333 15.6075 21.5667C14.9514 22.1889 14.073 22.5 12.9722 22.5C11.8603 22.5 10.9596 22.1778 10.2702 21.5333C9.59192 20.8889 9.25278 19.9889 9.25278 18.8333H11.5878C11.599 19.3333 11.7157 19.7222 11.9381 20C12.1716 20.2778 12.5052 20.4167 12.9388 20.4167C13.3614 20.4167 13.6838 20.2833 13.9062 20.0167C14.1286 19.75 14.2398 19.3833 14.2398 18.9167V10.75H16.5915Z" fill="white"/>
<path d="M16.4359 7.5V9.38333H11.5823V12.3667H15.3017V14.2167H11.5823V19.1333H9.24722V7.5H16.4359Z" fill="white"/>
<path d="M46.04 7.96V17.52C46.04 19 45.62 20.14 44.78 20.94C43.9533 21.74 42.8333 22.14 41.42 22.14C39.94 22.14 38.7533 21.72 37.86 20.88C36.9667 20.04 36.52 18.8467 36.52 17.3H39.92C39.92 17.8867 40.04 18.3333 40.28 18.64C40.52 18.9333 40.8667 19.08 41.32 19.08C41.7333 19.08 42.0533 18.9467 42.28 18.68C42.5067 18.4133 42.62 18.0267 42.62 17.52V7.96H46.04ZM53.8825 22.16C52.7892 22.16 51.8025 21.9267 50.9225 21.46C50.0558 20.9933 49.3692 20.3267 48.8625 19.46C48.3692 18.5933 48.1225 17.58 48.1225 16.42C48.1225 15.2733 48.3758 14.2667 48.8825 13.4C49.3892 12.52 50.0825 11.8467 50.9625 11.38C51.8425 10.9133 52.8292 10.68 53.9225 10.68C55.0158 10.68 56.0025 10.9133 56.8825 11.38C57.7625 11.8467 58.4558 12.52 58.9625 13.4C59.4692 14.2667 59.7225 15.2733 59.7225 16.42C59.7225 17.5667 59.4625 18.58 58.9425 19.46C58.4358 20.3267 57.7358 20.9933 56.8425 21.46C55.9625 21.9267 54.9758 22.16 53.8825 22.16ZM53.8825 19.2C54.5358 19.2 55.0892 18.96 55.5425 18.48C56.0092 18 56.2425 17.3133 56.2425 16.42C56.2425 15.5267 56.0158 14.84 55.5625 14.36C55.1225 13.88 54.5758 13.64 53.9225 13.64C53.2558 13.64 52.7025 13.88 52.2625 14.36C51.8225 14.8267 51.6025 15.5133 51.6025 16.42C51.6025 17.3133 51.8158 18 52.2425 18.48C52.6825 18.96 53.2292 19.2 53.8825 19.2ZM64.9569 12.42C65.2769 11.9 65.7369 11.48 66.3369 11.16C66.9369 10.84 67.6235 10.68 68.3969 10.68C69.3169 10.68 70.1502 10.9133 70.8969 11.38C71.6435 11.8467 72.2302 12.5133 72.6569 13.38C73.0969 14.2467 73.3169 15.2533 73.3169 16.4C73.3169 17.5467 73.0969 18.56 72.6569 19.44C72.2302 20.3067 71.6435 20.98 70.8969 21.46C70.1502 21.9267 69.3169 22.16 68.3969 22.16C67.6102 22.16 66.9235 22.0067 66.3369 21.7C65.7502 21.38 65.2902 20.96 64.9569 20.44V22H61.5369V7.2H64.9569V12.42ZM69.8369 16.4C69.8369 15.5467 69.5969 14.88 69.1169 14.4C68.6502 13.9067 68.0702 13.66 67.3769 13.66C66.6969 13.66 66.1169 13.9067 65.6369 14.4C65.1702 14.8933 64.9369 15.5667 64.9369 16.42C64.9369 17.2733 65.1702 17.9467 65.6369 18.44C66.1169 18.9333 66.6969 19.18 67.3769 19.18C68.0569 19.18 68.6369 18.9333 69.1169 18.44C69.5969 17.9333 69.8369 17.2533 69.8369 16.4ZM84.2511 7.96V10.7H78.5311V13.66H82.8111V16.32H78.5311V22H75.1111V7.96H84.2511ZM97.0686 10.84V22H93.6486V20.48C93.3019 20.9733 92.8286 21.3733 92.2286 21.68C91.6419 21.9733 90.9886 22.12 90.2686 22.12C89.4153 22.12 88.6619 21.9333 88.0086 21.56C87.3553 21.1733 86.8486 20.62 86.4886 19.9C86.1286 19.18 85.9486 18.3333 85.9486 17.36V10.84H89.3486V16.9C89.3486 17.6467 89.5419 18.2267 89.9286 18.64C90.3153 19.0533 90.8353 19.26 91.4886 19.26C92.1553 19.26 92.6819 19.0533 93.0686 18.64C93.4553 18.2267 93.6486 17.6467 93.6486 16.9V10.84H97.0686ZM104.065 22.16C103.092 22.16 102.225 21.9933 101.465 21.66C100.705 21.3267 100.105 20.8733 99.6652 20.3C99.2252 19.7133 98.9785 19.06 98.9252 18.34H102.305C102.345 18.7267 102.525 19.04 102.845 19.28C103.165 19.52 103.558 19.64 104.025 19.64C104.452 19.64 104.778 19.56 105.005 19.4C105.245 19.2267 105.365 19.0067 105.365 18.74C105.365 18.42 105.198 18.1867 104.865 18.04C104.532 17.88 103.992 17.7067 103.245 17.52C102.445 17.3333 101.778 17.14 101.245 16.94C100.712 16.7267 100.252 16.4 99.8652 15.96C99.4785 15.5067 99.2852 14.9 99.2852 14.14C99.2852 13.5 99.4585 12.92 99.8052 12.4C100.165 11.8667 100.685 11.4467 101.365 11.14C102.058 10.8333 102.878 10.68 103.825 10.68C105.225 10.68 106.325 11.0267 107.125 11.72C107.938 12.4133 108.405 13.3333 108.525 14.48H105.365C105.312 14.0933 105.138 13.7867 104.845 13.56C104.565 13.3333 104.192 13.22 103.725 13.22C103.325 13.22 103.018 13.3 102.805 13.46C102.592 13.6067 102.485 13.8133 102.485 14.08C102.485 14.4 102.652 14.64 102.985 14.8C103.332 14.96 103.865 15.12 104.585 15.28C105.412 15.4933 106.085 15.7067 106.605 15.92C107.125 16.12 107.578 16.4533 107.965 16.92C108.365 17.3733 108.572 17.9867 108.585 18.76C108.585 19.4133 108.398 20 108.025 20.52C107.665 21.0267 107.138 21.4267 106.445 21.72C105.765 22.0133 104.972 22.16 104.065 22.16ZM112.398 9.68C111.798 9.68 111.304 9.50667 110.918 9.16C110.544 8.8 110.358 8.36 110.358 7.84C110.358 7.30667 110.544 6.86667 110.918 6.52C111.304 6.16 111.798 5.98 112.398 5.98C112.984 5.98 113.464 6.16 113.838 6.52C114.224 6.86667 114.418 7.30667 114.418 7.84C114.418 8.36 114.224 8.8 113.838 9.16C113.464 9.50667 112.984 9.68 112.398 9.68ZM114.098 10.84V22H110.678V10.84H114.098ZM121.656 22.16C120.563 22.16 119.576 21.9267 118.696 21.46C117.829 20.9933 117.143 20.3267 116.636 19.46C116.143 18.5933 115.896 17.58 115.896 16.42C115.896 15.2733 116.149 14.2667 116.656 13.4C117.163 12.52 117.856 11.8467 118.736 11.38C119.616 10.9133 120.603 10.68 121.696 10.68C122.789 10.68 123.776 10.9133 124.656 11.38C125.536 11.8467 126.229 12.52 126.736 13.4C127.243 14.2667 127.496 15.2733 127.496 16.42C127.496 17.5667 127.236 18.58 126.716 19.46C126.209 20.3267 125.509 20.9933 124.616 21.46C123.736 21.9267 122.749 22.16 121.656 22.16ZM121.656 19.2C122.309 19.2 122.863 18.96 123.316 18.48C123.783 18 124.016 17.3133 124.016 16.42C124.016 15.5267 123.789 14.84 123.336 14.36C122.896 13.88 122.349 13.64 121.696 13.64C121.029 13.64 120.476 13.88 120.036 14.36C119.596 14.8267 119.376 15.5133 119.376 16.42C119.376 17.3133 119.589 18 120.016 18.48C120.456 18.96 121.003 19.2 121.656 19.2ZM136.11 10.72C137.417 10.72 138.457 11.1467 139.23 12C140.017 12.84 140.41 14 140.41 15.48V22H137.01V15.94C137.01 15.1933 136.817 14.6133 136.43 14.2C136.044 13.7867 135.524 13.58 134.87 13.58C134.217 13.58 133.697 13.7867 133.31 14.2C132.924 14.6133 132.73 15.1933 132.73 15.94V22H129.31V10.84H132.73V12.32C133.077 11.8267 133.544 11.44 134.13 11.16C134.717 10.8667 135.377 10.72 136.11 10.72Z" fill="#00BF63"/>
</svg>
