<svg width="396" height="396" viewBox="0 0 396 396" fill="none" xmlns="http://www.w3.org/2000/svg">
<circle cx="198" cy="198" r="198" fill="#37C9FF" fill-opacity="0.1"/>
<circle cx="198.5" cy="197.5" r="156.5" fill="#37C9FF" fill-opacity="0.1"/>
<circle cx="198.5" cy="197.5" r="121.5" fill="#37C9FF" fill-opacity="0.1"/>
<path d="M125.57 158.71C124.811 158.255 123.945 158.01 123.061 157.999C122.176 157.989 121.304 158.213 120.535 158.649C119.765 159.085 119.125 159.718 118.68 160.482C118.234 161.247 118 162.115 118 163V243C118 249.63 120.634 255.989 125.322 260.678C130.011 265.366 136.37 268 143 268H253C259.63 268 265.989 265.366 270.678 260.678C275.366 255.989 278 249.63 278 243V163C278 162.115 277.766 161.247 277.32 160.482C276.875 159.718 276.235 159.085 275.465 158.649C274.696 158.213 273.824 157.989 272.939 157.999C272.055 158.01 271.189 158.255 270.43 158.71L198 202.17L125.57 158.71Z" fill="#367AF2"/>
<path d="M125.57 158.71C124.811 158.255 123.945 158.01 123.061 157.999C122.176 157.989 121.304 158.213 120.535 158.649C119.765 159.085 119.125 159.718 118.68 160.482C118.234 161.247 118 162.115 118 163V243C118 249.63 120.634 255.989 125.322 260.678C130.011 265.366 136.37 268 143 268H253C259.63 268 265.989 265.366 270.678 260.678C275.366 255.989 278 249.63 278 243V163C278 162.115 277.766 161.247 277.32 160.482C276.875 159.718 276.235 159.085 275.465 158.649C274.696 158.213 273.824 157.989 272.939 157.999C272.055 158.01 271.189 158.255 270.43 158.71L198 202.17L125.57 158.71Z" fill="url(#paint0_linear_90_335)"/>
<path d="M125.57 158.71C124.811 158.255 123.945 158.01 123.061 157.999C122.176 157.989 121.304 158.213 120.535 158.649C119.765 159.085 119.125 159.718 118.68 160.482C118.234 161.247 118 162.115 118 163V243C118 249.63 120.634 255.989 125.322 260.678C130.011 265.366 136.37 268 143 268H253C259.63 268 265.989 265.366 270.678 260.678C275.366 255.989 278 249.63 278 243V163C278 162.115 277.766 161.247 277.32 160.482C276.875 159.718 276.235 159.085 275.465 158.649C274.696 158.213 273.824 157.989 272.939 157.999C272.055 158.01 271.189 158.255 270.43 158.71L198 202.17L125.57 158.71Z" fill="url(#paint1_linear_90_335)"/>
<path d="M125.57 158.71C124.811 158.255 123.945 158.01 123.061 157.999C122.176 157.989 121.304 158.213 120.535 158.649C119.765 159.085 119.125 159.718 118.68 160.482C118.234 161.247 118 162.115 118 163V243C118 249.63 120.634 255.989 125.322 260.678C130.011 265.366 136.37 268 143 268H253C259.63 268 265.989 265.366 270.678 260.678C275.366 255.989 278 249.63 278 243V163C278 162.115 277.766 161.247 277.32 160.482C276.875 159.718 276.235 159.085 275.465 158.649C274.696 158.213 273.824 157.989 272.939 157.999C272.055 158.01 271.189 158.255 270.43 158.71L198 202.17L125.57 158.71Z" fill="url(#paint2_linear_90_335)" fill-opacity="0.75"/>
<path d="M125.57 158.71C124.811 158.255 123.945 158.01 123.061 157.999C122.176 157.989 121.304 158.213 120.535 158.649C119.765 159.085 119.125 159.718 118.68 160.482C118.234 161.247 118 162.115 118 163V243C118 249.63 120.634 255.989 125.322 260.678C130.011 265.366 136.37 268 143 268H253C259.63 268 265.989 265.366 270.678 260.678C275.366 255.989 278 249.63 278 243V163C278 162.115 277.766 161.247 277.32 160.482C276.875 159.718 276.235 159.085 275.465 158.649C274.696 158.213 273.824 157.989 272.939 157.999C272.055 158.01 271.189 158.255 270.43 158.71L198 202.17L125.57 158.71Z" fill="url(#paint3_linear_90_335)" fill-opacity="0.7"/>
<path d="M143 138C136.37 138 130.011 140.634 125.322 145.322C120.634 150.011 118 156.37 118 163V169C118 169.871 118.229 170.727 118.662 171.483C119.095 172.239 119.718 172.869 120.47 173.31L195.47 217.31C196.237 217.76 197.111 217.997 198 217.997C198.889 217.997 199.763 217.76 200.53 217.31L275.53 173.31C276.282 172.869 276.905 172.239 277.338 171.483C277.771 170.727 278 169.871 278 169V163C278 156.37 275.366 150.011 270.678 145.322C265.989 140.634 259.63 138 253 138H143Z" fill="url(#paint4_linear_90_335)"/>
<defs>
<linearGradient id="paint0_linear_90_335" x1="218.31" y1="179.56" x2="267.23" y2="264.16" gradientUnits="userSpaceOnUse">
<stop offset="0.228" stop-color="#0094F0" stop-opacity="0"/>
<stop offset="0.431" stop-color="#0094F0"/>
</linearGradient>
<linearGradient id="paint1_linear_90_335" x1="175.14" y1="169.58" x2="120.72" y2="269.34" gradientUnits="userSpaceOnUse">
<stop offset="0.228" stop-color="#0094F0" stop-opacity="0"/>
<stop offset="0.431" stop-color="#0094F0"/>
</linearGradient>
<linearGradient id="paint2_linear_90_335" x1="240.19" y1="223.63" x2="248.57" y2="277.91" gradientUnits="userSpaceOnUse">
<stop stop-color="#2764E7" stop-opacity="0"/>
<stop offset="1" stop-color="#2764E7"/>
</linearGradient>
<linearGradient id="paint3_linear_90_335" x1="222.76" y1="171.51" x2="238.06" y2="282.1" gradientUnits="userSpaceOnUse">
<stop offset="0.533" stop-color="#FF6CE8" stop-opacity="0"/>
<stop offset="1" stop-color="#FF6CE8"/>
</linearGradient>
<linearGradient id="paint4_linear_90_335" x1="165.53" y1="113.07" x2="221.94" y2="249.18" gradientUnits="userSpaceOnUse">
<stop stop-color="#6CE0FF"/>
<stop offset="0.462" stop-color="#29C3FF"/>
<stop offset="1" stop-color="#4894FE"/>
</linearGradient>
</defs>
</svg>
