<svg width="55" height="55" viewBox="0 0 55 55" fill="none" xmlns="http://www.w3.org/2000/svg">
<path fill-rule="evenodd" clip-rule="evenodd" d="M26.7715 1.33035C24.9465 0.141901 22.695 -0.206561 20.6814 0.111676C18.6701 0.429576 16.5581 1.476 15.3148 3.48613C14.833 4.26503 14.5256 5.11615 14.3897 6.01918C12.4328 5.88813 10.4521 6.4816 8.96367 7.72298C7.45637 8.98003 6.49352 10.8608 6.49352 13.1421C6.49352 13.8904 6.59627 14.6579 6.8002 15.4414C6.05745 15.5986 5.34242 15.873 4.6733 16.2507C2.46355 17.4982 0.910947 19.7666 0.297822 22.221C-0.326575 24.7205 -0.0271928 27.6168 1.7513 30.0978C2.65225 31.3548 3.87257 32.4228 5.40575 33.2625C5.02632 33.7703 4.70572 34.3178 4.44527 34.8913C3.38122 37.2338 3.3011 40.0095 4.11397 42.45C4.93837 44.9252 6.7439 47.2177 9.5906 48.3135C11.4458 49.0277 13.5654 49.1662 15.8888 48.6872C15.9949 49.8735 16.3186 50.9515 16.8746 51.8942C18.0649 53.9127 20.059 54.8645 22.0135 54.9867C23.8807 55.1035 25.9395 54.445 27.5 53.1145C29.0605 54.445 31.1192 55.1035 32.9865 54.9867C34.941 54.8645 36.935 53.9127 38.1255 51.8942C38.6812 50.9515 39.005 49.8735 39.1112 48.6872C41.4345 49.1662 43.5542 49.0277 45.4095 48.3135C48.256 47.2177 50.0615 44.9252 50.886 42.45C51.699 40.0095 51.6187 37.2338 50.5547 34.8913C50.2942 34.3178 49.9737 33.7703 49.5942 33.2625C51.1275 32.4228 52.3477 31.3548 53.2487 30.0978C55.0272 27.6168 55.3265 24.7205 54.7022 22.221C54.089 19.7666 52.5365 17.4982 50.3267 16.2507C49.6575 15.873 48.9425 15.5986 48.1997 15.4414C48.4037 14.6579 48.5065 13.8904 48.5065 13.1421C48.5065 10.8608 47.5437 8.98003 46.0362 7.72298C44.5477 6.4816 42.5672 5.88813 40.6102 6.01918C40.4745 5.11615 40.167 4.26503 39.6852 3.48613C38.4417 1.476 36.33 0.429576 34.3185 0.111676C32.305 -0.206561 30.0535 0.141901 28.2285 1.33035C27.4652 1.82743 27.5347 1.82743 26.7715 1.33035ZM30.0082 47.6295V41.322C30.0112 40.1235 30.2832 38.3643 30.9847 36.9995C31.6432 35.718 32.4865 35.067 33.7705 35.067C35.1557 35.067 36.2787 33.9433 36.2787 32.5568C36.2787 31.1705 35.1557 30.0465 33.7705 30.0465C32.3005 30.0465 31.054 30.4 30.0082 30.9735V28.771C30.0112 27.5725 30.2832 25.8135 30.9847 24.4485C31.6432 23.167 32.4865 22.516 33.7705 22.516C35.1557 22.516 36.2787 21.3922 36.2787 20.0059C36.2787 18.6195 35.1557 17.4957 33.7705 17.4957C32.3005 17.4957 31.054 17.8489 30.0082 18.4226V7.4383C30.0125 6.44633 30.4177 5.89448 30.9647 5.5382C31.609 5.11865 32.571 4.91808 33.536 5.0706C34.5032 5.22348 35.1347 5.6676 35.4197 6.12855C35.6507 6.50195 35.9315 7.33225 35.2275 8.97635C34.7537 10.0824 35.131 11.3692 36.1267 12.0438C37.1225 12.7184 38.4562 12.591 39.3065 11.7401C40.2257 10.8203 41.8907 10.8008 42.8247 11.5797C43.1987 11.8916 43.49 12.3641 43.49 13.1421C43.49 13.9856 43.137 15.3658 41.7625 17.2918C41.0587 18.2779 41.1592 19.6264 42.0015 20.497C42.8437 21.3675 44.1872 21.5116 45.1947 20.8394C46.2752 20.1185 47.1415 20.2166 47.862 20.6234C48.7092 21.1016 49.508 22.1278 49.8355 23.4388C50.1517 24.7045 49.9807 26.044 49.1725 27.1715C48.3665 28.296 46.6912 29.5303 43.3912 30.0808C42.1707 30.2843 41.281 31.348 41.2955 32.586C41.3097 33.824 42.224 34.8668 43.4487 35.0418C44.703 35.221 45.5175 35.933 45.988 36.9685C46.4915 38.0775 46.5682 39.5377 46.127 40.8625C45.6972 42.1525 44.8377 43.1547 43.6085 43.6277C42.3745 44.1027 40.3497 44.2022 37.3167 42.8225C36.4402 42.4237 35.4132 42.5625 34.6735 43.179C33.9337 43.7958 33.612 44.7818 33.8455 45.7165C34.1552 46.9568 34.667 49.8515 32.6735 49.9762C31.296 50.0622 30.0155 49.0137 30.0082 47.6295ZM24.9917 7.4383C24.9875 6.44633 24.5822 5.89448 24.0352 5.5382C23.391 5.11865 22.4289 4.91808 21.4639 5.0706C20.4967 5.22348 19.8653 5.6676 19.5802 6.12855C19.3492 6.50195 19.0685 7.33225 19.7725 8.97635C20.2461 10.0824 19.8689 11.3692 18.8733 12.0438C17.8776 12.7184 16.5437 12.591 15.6935 11.7401C14.7744 10.8203 13.1091 10.8008 12.1751 11.5797C11.8013 11.8916 11.51 12.3641 11.51 13.1421C11.51 13.9856 11.8629 15.3658 13.2375 17.2918C13.9413 18.2779 13.8407 19.6264 12.9984 20.497C12.1561 21.3675 10.8126 21.5116 9.80515 20.8394C8.72467 20.1185 7.8585 20.2166 7.138 20.6234C6.29085 21.1016 5.49197 22.1278 5.16452 23.4388C4.84832 24.7045 5.01925 26.044 5.82737 27.1715C6.63355 28.296 8.30872 29.5303 11.6088 30.0808C12.8291 30.2843 13.7189 31.348 13.7045 32.586C13.6902 33.824 12.7759 34.8668 11.5512 35.0418C10.297 35.221 9.4825 35.933 9.0121 36.9685C8.50847 38.0775 8.43182 39.5377 8.87305 40.8625C9.30275 42.1525 10.1622 43.1547 11.3914 43.6277C12.6255 44.1027 14.6504 44.2022 17.6832 42.8225C18.5597 42.4237 19.5868 42.5625 20.3266 43.179C21.0663 43.7958 21.388 44.7818 21.1545 45.7165C20.8447 46.9568 20.3331 49.8515 22.3264 49.9762C23.704 50.0622 24.9845 49.0137 24.9917 47.6295V47.618V41.323C24.9887 40.1245 24.717 38.3648 24.0152 36.9995C23.3567 35.718 22.5135 35.067 21.2294 35.067C19.8441 35.067 18.7211 33.9433 18.7211 32.5568C18.7211 31.1705 19.8441 30.0465 21.2294 30.0465C22.6995 30.0465 23.946 30.4 24.9917 30.9735V28.772C24.9887 27.5735 24.717 25.8138 24.0152 24.4485C23.3567 23.167 22.5135 22.516 21.2294 22.516C19.8441 22.516 18.7211 21.3922 18.7211 20.0059C18.7211 18.6195 19.8441 17.4957 21.2294 17.4957C22.6995 17.4957 23.946 17.8489 24.9917 18.4226V7.4383Z" fill="white"/>
</svg>
