<svg width="20" height="20" viewBox="0 0 20 20" fill="none" xmlns="http://www.w3.org/2000/svg">
<path d="M8.33301 1.66663C7.83301 1.66663 7.49967 1.99996 7.49967 2.49996V17.5C7.49967 18 7.83301 18.3333 8.33301 18.3333C8.83301 18.3333 9.16634 18 9.16634 17.5V2.49996C9.16634 1.99996 8.83301 1.66663 8.33301 1.66663ZM4.16634 9.99996C3.66634 9.99996 3.33301 10.3333 3.33301 10.8333V17.5C3.33301 18 3.66634 18.3333 4.16634 18.3333C4.66634 18.3333 4.99967 18 4.99967 17.5V10.8333C4.99967 10.3333 4.66634 9.99996 4.16634 9.99996ZM12.4997 6.66663C11.9997 6.66663 11.6663 6.99996 11.6663 7.49996V17.5C11.6663 18 11.9997 18.3333 12.4997 18.3333C12.9997 18.3333 13.333 18 13.333 17.5V7.49996C13.333 6.99996 12.9997 6.66663 12.4997 6.66663ZM16.6663 13.3333C16.1663 13.3333 15.833 13.6666 15.833 14.1666V17.5C15.833 18 16.1663 18.3333 16.6663 18.3333C17.1663 18.3333 17.4997 18 17.4997 17.5V14.1666C17.4997 13.6666 17.1663 13.3333 16.6663 13.3333Z" fill="black"/>
</svg>
