<svg width="60" height="60" viewBox="0 0 60 60" fill="none" xmlns="http://www.w3.org/2000/svg">
<path fill-rule="evenodd" clip-rule="evenodd" d="M39.2127 9.57861C41.3999 7.04364 42.8742 3.51294 42.4707 0C39.3188 0.12 35.5056 2.01344 33.2456 4.54541C31.2161 6.79238 29.4445 10.3827 29.9208 13.8267C33.4367 14.0876 37.0254 12.1166 39.2127 9.57861ZM47.097 31.875C47.1849 40.9559 55.409 43.9766 55.5 44.0156C55.4333 44.2286 54.1865 48.3199 51.168 52.5498C48.5561 56.2038 45.8471 59.8429 41.5789 59.9209C37.3864 59.9959 36.0365 57.5391 31.2404 57.5391C26.4473 57.5391 24.9487 59.8426 20.9808 59.9956C16.8612 60.1426 13.7214 56.0423 11.0913 52.4004C5.7097 44.9515 1.5992 31.3503 7.12033 22.1704C9.86269 17.6135 14.7619 14.7234 20.0828 14.6514C24.1266 14.5764 27.9459 17.2588 30.4183 17.2588C32.8907 17.2588 37.5321 14.0338 42.4101 14.5078C44.4517 14.5888 50.1851 15.2966 53.8649 20.4595C53.5676 20.6365 47.0242 24.2851 47.097 31.875Z" fill="black"/>
</svg>
