<svg width="18" height="18" viewBox="0 0 18 18" fill="none" xmlns="http://www.w3.org/2000/svg">
<path d="M9.00029 0C6.61343 0 4.32432 0.948178 2.63655 2.63596C0.94878 4.32372 0.000601936 6.61284 0.000601936 8.9997C-0.0131908 10.1854 0.210177 11.3618 0.65757 12.46C1.10496 13.5581 1.76736 14.5558 2.60583 15.3942C3.44428 16.2327 4.4419 16.8951 5.54002 17.3425C6.63813 17.7898 7.8146 18.0132 9.00029 17.9994C9.20487 17.9994 9.40112 17.9181 9.54573 17.7734C9.69044 17.6288 9.7717 17.4326 9.7717 17.228C9.7717 17.0234 9.69044 16.8272 9.54573 16.6826C9.40112 16.5378 9.20487 16.4566 9.00029 16.4566C8.01794 16.4676 7.0434 16.2823 6.13368 15.9115C5.22399 15.5406 4.39756 14.9918 3.70292 14.2971C3.00827 13.6024 2.45941 12.776 2.08857 11.8663C1.71773 10.9566 1.53238 9.98206 1.54341 8.9997C1.54612 7.02285 2.33264 5.12773 3.73048 3.72989C5.12833 2.33203 7.02345 1.54553 9.00029 1.54281C13.9476 1.54281 16.4572 4.05244 16.4572 8.9997V10.4191C16.4744 10.626 16.4484 10.8343 16.381 11.0308C16.3136 11.2271 16.2062 11.4074 16.0655 11.5602C15.9249 11.7131 15.7541 11.835 15.5639 11.9184C15.3737 12.0018 15.1683 12.0449 14.9607 12.0449C14.753 12.0449 14.5476 12.0018 14.3574 11.9184C14.1673 11.835 13.9964 11.7131 13.8558 11.5602C13.7152 11.4074 13.6077 11.2271 13.5404 11.0308C13.4729 10.8343 13.447 10.626 13.4641 10.4191V5.2764C13.4641 5.07181 13.3829 4.8756 13.2382 4.73093C13.0936 4.58627 12.8973 4.50499 12.6927 4.50499C12.4882 4.50499 12.2919 4.58627 12.1473 4.73093C12.0026 4.8756 11.9213 5.07181 11.9213 5.2764V5.6261C11.1118 4.92096 10.0739 4.53357 9.00029 4.53585C7.81645 4.53585 6.68101 5.00615 5.84388 5.84328C5.00674 6.68041 4.53645 7.81585 4.53645 8.9997C4.53645 10.1835 5.00674 11.3189 5.84388 12.1561C6.68101 12.9933 7.81645 13.4636 9.00029 13.4636C9.63305 13.4614 10.258 13.3235 10.8329 13.059C11.4078 12.7947 11.9193 12.41 12.3328 11.931C12.6653 12.5117 13.1805 12.9663 13.7982 13.2238C14.4159 13.4813 15.1014 13.5274 15.7479 13.3549C16.3946 13.1825 16.966 12.801 17.3733 12.27C17.7806 11.739 18.0009 11.0882 18 10.4191V8.9997C18 3.19875 14.8012 0 9.00029 0ZM9.00029 11.9207C8.42257 11.9207 7.8578 11.7494 7.37747 11.4285C6.89709 11.1075 6.52269 10.6513 6.30161 10.1175C6.08051 9.58381 6.02267 8.99651 6.13539 8.42979C6.24809 7.86317 6.52629 7.34273 6.93481 6.93421C7.34332 6.5257 7.86376 6.24749 8.43038 6.13478C8.99711 6.02207 9.5844 6.07992 10.1181 6.301C10.6519 6.5221 11.1081 6.89649 11.4291 7.37687C11.75 7.8572 11.9213 8.42197 11.9213 8.9997C11.9187 9.77357 11.61 10.5149 11.0628 11.0622C10.5155 11.6094 9.77417 11.9181 9.00029 11.9207Z" fill="#757575"/>
</svg>
