<svg width="22" height="22" viewBox="0 0 22 22" fill="none" xmlns="http://www.w3.org/2000/svg">
<path opacity="0.5" d="M17.1867 8.24998V8.8954C17.1867 9.66999 17.4078 10.4272 17.822 11.0717L18.8371 12.6511C19.7644 14.0936 19.0566 16.0544 17.4438 16.5106C13.225 17.7039 8.77501 17.7039 4.55616 16.5106C2.94346 16.0544 2.23559 14.0936 3.16283 12.6511L4.17798 11.0717C4.59224 10.4272 4.8133 9.66999 4.8133 8.8954V8.24998C4.8133 4.70616 7.58318 1.83331 11 1.83331C14.4168 1.83331 17.1867 4.70616 17.1867 8.24998Z" fill="#1C274C"/>
<path d="M11.6875 5.5C11.6875 5.12031 11.3797 4.8125 11 4.8125C10.6203 4.8125 10.3125 5.12031 10.3125 5.5V9.16667C10.3125 9.54635 10.6203 9.85417 11 9.85417C11.3797 9.85417 11.6875 9.54635 11.6875 9.16667V5.5Z" fill="#1C274C"/>
<path d="M6.63956 16.9995C7.23625 18.8376 8.96286 20.1664 10.9998 20.1664C13.0368 20.1664 14.7634 18.8376 15.3601 16.9995C12.4767 17.5406 9.52288 17.5406 6.63956 16.9995Z" fill="#1C274C"/>
</svg>
