<svg width="20" height="20" viewBox="0 0 20 20" fill="none" xmlns="http://www.w3.org/2000/svg">
<g opacity="0.5">
<path d="M7.49998 2.5H5.83331C5.83331 1.08333 6.91665 0 8.33331 0V1.66667C7.83331 1.66667 7.49998 2 7.49998 2.5Z" fill="#1C274C"/>
<path d="M14.1667 2.5H12.5C12.5 2 12.1667 1.66667 11.6667 1.66667V0C13.0833 0 14.1667 1.08333 14.1667 2.5Z" fill="#1C274C"/>
<path d="M14.1666 5H5.83331V2.5H7.49998V3.33333H12.5V2.5H14.1666V5Z" fill="#1C274C"/>
<path d="M11.6666 0H8.33331V1.66667H11.6666V0Z" fill="#1C274C"/>
<path d="M17.5 4.99998H2.49999C1.99999 4.99998 1.66666 4.66665 1.66666 4.16665C1.66666 3.66665 1.99999 3.33331 2.49999 3.33331H17.5C18 3.33331 18.3333 3.66665 18.3333 4.16665C18.3333 4.66665 18 4.99998 17.5 4.99998Z" fill="#1C274C"/>
<path d="M15.8333 20H4.16665C3.66665 20 3.33331 19.6667 3.33331 19.1667V7.50002C3.33331 7.00002 3.66665 6.66669 4.16665 6.66669H15.8333C16.3333 6.66669 16.6666 7.00002 16.6666 7.50002V19.1667C16.6666 19.6667 16.3333 20 15.8333 20ZM4.99998 18.3334H15V8.33335H4.99998V18.3334Z" fill="#1C274C"/>
<path d="M8.33333 16.6667C7.83333 16.6667 7.5 16.3333 7.5 15.8333V10.8333C7.5 10.3333 7.83333 10 8.33333 10C8.83333 10 9.16667 10.3333 9.16667 10.8333V15.8333C9.16667 16.3333 8.83333 16.6667 8.33333 16.6667Z" fill="#1C274C"/>
<path d="M11.6666 16.6667C11.1666 16.6667 10.8333 16.3333 10.8333 15.8333V10.8333C10.8333 10.3333 11.1666 10 11.6666 10C12.1666 10 12.5 10.3333 12.5 10.8333V15.8333C12.5 16.3333 12.1666 16.6667 11.6666 16.6667Z" fill="#1C274C"/>
</g>
</svg>
