<svg width="44" height="44" viewBox="0 0 44 44" fill="none" xmlns="http://www.w3.org/2000/svg">
<path d="M25.6667 22.9167H18.3334C17.8271 22.9167 17.4167 23.3271 17.4167 23.8333V27.796C17.4167 28.1709 17.6449 28.5079 17.9929 28.6471L19.2765 29.1606C21.0248 29.8599 22.9752 29.8599 24.7236 29.1606L26.0071 28.6471C26.3551 28.5079 26.5834 28.1709 26.5834 27.796V23.8333C26.5834 23.3271 26.1729 22.9167 25.6667 22.9167Z" fill="#E0E0E0"/>
<path d="M14.6864 28.1768L5.51074 25.4241C5.56591 31.134 5.89947 36.3925 7.91618 38.1852C10.3325 40.333 14.2216 40.333 21.9998 40.333C29.778 40.333 33.6671 40.333 36.0834 38.1852C38.1001 36.3925 38.4337 31.134 38.4889 25.4241L29.3136 28.1767C29.1738 29.52 28.3016 30.6912 27.0284 31.2005L25.7449 31.7139C23.3409 32.6755 20.6591 32.6755 18.2551 31.7139L16.9716 31.2005C15.6985 30.6912 14.8262 29.5201 14.6864 28.1768Z" fill="#E0E0E0"/>
<path fill-rule="evenodd" clip-rule="evenodd" d="M19.3617 4.125C19.1536 4.12497 18.9916 4.12495 18.8384 4.13423C16.8942 4.25197 15.1918 5.479 14.4653 7.28613C14.4068 7.43176 14.3547 7.58749 14.2851 7.79626C14.1323 8.20754 13.7817 8.67531 13.2906 9.04907C13.236 9.09068 13.1811 9.12998 13.1262 9.16698C9.17736 9.17157 7.11616 9.24449 5.69544 10.4005C5.404 10.6376 5.13762 10.904 4.90049 11.1954C3.66669 12.7118 3.66669 14.9578 3.66669 19.4497C3.66669 20.5895 3.66669 21.1594 3.94311 21.604C3.99696 21.6906 4.05794 21.7726 4.12541 21.849C4.4718 22.2415 5.01767 22.4053 6.10943 22.7328L14.6667 25.3V23.8333C14.6667 21.8083 16.3083 20.1667 18.3334 20.1667H25.6667C27.6917 20.1667 29.3334 21.8083 29.3334 23.8333V25.3L37.8906 22.7328C38.9824 22.4053 39.5282 22.2415 39.8746 21.849C39.9421 21.7726 40.0031 21.6906 40.0569 21.604C40.3334 21.1594 40.3334 20.5895 40.3334 19.4497C40.3334 14.9578 40.3334 12.7118 39.0996 11.1954C38.8624 10.904 38.596 10.6376 38.3046 10.4005C36.8839 9.24449 34.8227 9.17157 30.8739 9.16698C30.819 9.13 30.7642 9.09072 30.7095 9.04913C30.2186 8.67543 29.868 8.20769 29.7152 7.79633L29.7096 7.7797C29.6439 7.58231 29.5926 7.42855 29.5354 7.28614C28.8089 5.47901 27.1065 4.25197 25.1624 4.13423C25.0091 4.12495 24.8471 4.12497 24.639 4.125H19.3617ZM27.3138 9.16667C27.2608 9.05729 27.2119 8.94607 27.1676 8.83321L27.1646 8.82656L27.1571 8.80864L27.1483 8.78663L27.1399 8.76483L27.1333 8.74663L27.13 8.73746L27.1222 8.71505L27.1152 8.69439L27.1114 8.68291L27.1064 8.6676L27.1023 8.65463L27.099 8.64414C27.0268 8.42779 27.0047 8.36374 26.9839 8.31188C26.6536 7.49046 25.8798 6.93272 24.9961 6.8792C24.937 6.87562 24.8645 6.87501 24.6016 6.87501H19.3991C19.1362 6.87501 19.0637 6.87562 19.0046 6.8792C18.1209 6.93272 17.3471 7.49046 17.0169 8.31188C16.9957 8.36452 16.9725 8.43098 16.9013 8.6442L16.898 8.65479L16.8939 8.66769L16.8889 8.68298L16.885 8.69447L16.878 8.71518L16.8702 8.73762L16.867 8.7468L16.8603 8.76504L16.8519 8.78698L16.843 8.8092L16.8353 8.82736L16.8325 8.83377C16.7882 8.94644 16.7394 9.05747 16.6865 9.16667H27.3138Z" fill="#E0E0E0"/>
</svg>
