<svg width="18" height="19" viewBox="0 0 18 19" fill="none" xmlns="http://www.w3.org/2000/svg">
<path d="M11.721 3.80698C11.721 3.4265 11.7199 3.11693 11.6844 2.84451C11.6495 2.57775 11.5871 2.39801 11.4976 2.2686C11.3442 2.04662 10.9502 1.75581 9.66983 1.75581H8.33029C7.05011 1.75583 6.65632 2.04663 6.50282 2.2686C6.41338 2.39801 6.35059 2.57775 6.31576 2.84451C6.28019 3.11693 6.27913 3.42651 6.27913 3.80698V3.84884H11.721V3.80698ZM16.3286 9.90683C14.7516 10.8424 13.0389 11.4498 11.288 11.7363C11.2834 11.7976 11.2775 11.8589 11.2694 11.9194C11.2351 12.1727 11.16 12.46 10.9763 12.7223C10.5846 13.2817 9.89287 13.4767 9.00006 13.4767C8.11218 13.4767 7.42225 13.2843 7.02902 12.7295C6.84415 12.4686 6.76767 12.1822 6.7324 11.9289C6.72424 11.8702 6.71786 11.8107 6.7131 11.7513C4.9642 11.4856 3.25331 10.8862 1.67677 9.96602L2.132 14.8245C2.21591 15.6003 2.38966 16.1485 2.80635 16.5293C3.23027 16.9166 4.03278 17.2442 5.65122 17.2442H12.3489C13.9673 17.2442 14.7698 16.9166 15.1938 16.5293C15.6104 16.1485 15.7839 15.6003 15.8678 14.8245L16.3286 9.90683ZM10.0453 10.1289C9.98567 10.1282 9.91769 10.1279 9.83727 10.1279H8.16285C8.08224 10.1279 8.01422 10.1282 7.95453 10.1289C7.95388 10.1886 7.95355 10.2566 7.95355 10.3372V11.1996C7.95355 11.4352 7.95566 11.6085 7.97611 11.7556C7.9958 11.897 8.02713 11.9661 8.05362 12.0035C8.08335 12.0453 8.23108 12.2209 9.00006 12.2209C9.77275 12.2209 9.91874 12.0436 9.94781 12.0021C9.97445 11.9641 10.0056 11.8941 10.025 11.751C10.0451 11.6022 10.0466 11.428 10.0466 11.1911V10.3372C10.0466 10.2566 10.0459 10.1886 10.0453 10.1289ZM11.3024 10.4595C13.1241 10.1306 14.8926 9.42022 16.4774 8.3194L16.4957 8.12711L16.497 8.11664C16.6046 7.14447 16.4933 6.43887 16.0984 5.96933C15.7094 5.50691 14.8998 5.10465 13.1861 5.10465H4.81401C3.10029 5.10465 2.29072 5.50691 1.90177 5.96933C1.53152 6.40953 1.41078 7.05711 1.48578 7.93743L1.50311 8.11664L1.50442 8.12711L1.52895 8.38874C3.11798 9.47066 4.88484 10.1716 6.69773 10.4772V10.3372C6.69773 10.1433 6.69689 9.94455 6.71474 9.78387C6.73208 9.62781 6.77857 9.36847 6.98651 9.16054C7.19439 8.95274 7.45348 8.90644 7.60951 8.8891C7.77016 8.87125 7.96891 8.87209 8.16285 8.87209H9.83727C10.0312 8.87209 10.2299 8.87125 10.3906 8.8891C10.5467 8.90644 10.806 8.95263 11.0139 9.16054C11.2219 9.36847 11.2684 9.62781 11.2857 9.78387C11.3036 9.94454 11.3024 10.1433 11.3024 10.3372V10.4595ZM12.9768 3.84884H13.1861C15.0472 3.84884 16.3182 4.27961 17.0595 5.1609C17.7923 6.03216 17.8628 7.17633 17.746 8.24386L17.7463 8.24419L17.7064 8.66933C17.706 8.70473 17.7025 8.73987 17.6962 8.77464L17.1184 14.9419C17.1181 14.9446 17.1177 14.9473 17.1174 14.95C17.0252 15.8108 16.8093 16.7547 16.0408 17.4568C15.278 18.1537 14.096 18.5 12.3489 18.5H5.65122C3.9041 18.5 2.72214 18.1537 1.95933 17.4568C1.19082 16.7547 0.974946 15.8108 0.882726 14.95C0.882435 14.9473 0.882001 14.9446 0.881745 14.9419L0.253838 8.24419L0.254165 8.24386C0.137349 7.17633 0.207798 6.03216 0.940611 5.1609C1.68188 4.27961 2.95288 3.84884 4.81401 3.84884H5.02331V3.80698C5.02331 3.44654 5.02226 3.05079 5.07041 2.68198C5.1193 2.30749 5.22427 1.90981 5.46972 1.55469C5.98605 0.807679 6.93183 0.500012 8.33029 0.5H9.66983C11.0684 0.5 12.0144 0.807615 12.5307 1.55469C12.7762 1.90981 12.8808 2.3075 12.9297 2.68198C12.9779 3.05079 12.9768 3.44654 12.9768 3.80698V3.84884Z" fill="#757575"/>
</svg>
