<svg width="40" height="40" viewBox="0 0 40 40" fill="none" xmlns="http://www.w3.org/2000/svg">
<path d="M35.1485 11.6336C33.7318 10.0669 31.3651 9.28356 27.9318 9.28356H27.5318V9.21689C27.5318 6.41689 27.5318 2.95023 21.2651 2.95023H18.7318C12.4651 2.95023 12.4651 6.43356 12.4651 9.21689V9.30023H12.0651C8.61506 9.30023 6.26506 10.0836 4.84839 11.6502C3.19839 13.4836 3.24839 15.9502 3.41506 17.6335L3.43173 17.7502L3.59839 19.5002C3.61506 19.5169 3.64839 19.5502 3.68173 19.5669C4.23173 19.9335 4.79839 20.3002 5.39839 20.6335C5.63173 20.7835 5.88173 20.9169 6.13173 21.0502C8.98173 22.6169 12.1151 23.6669 15.2984 24.1835C15.4484 25.7502 16.1317 27.5835 19.7818 27.5835C23.4318 27.5835 24.1485 25.7669 24.2651 24.1502C27.6651 23.6002 30.9485 22.4169 33.9151 20.6835C34.0151 20.6335 34.0818 20.5835 34.1651 20.5335C34.9318 20.1002 35.6485 19.6335 36.3485 19.1169C36.3818 19.1002 36.4151 19.0669 36.4318 19.0335L36.4985 18.4335L36.5818 17.6502C36.5985 17.5502 36.5985 17.4669 36.6151 17.3502C36.7485 15.6669 36.7151 13.3669 35.1485 11.6336ZM21.8151 23.0502C21.8151 24.8169 21.8151 25.0835 19.7651 25.0835C17.7151 25.0835 17.7151 24.7669 17.7151 23.0669V20.9669H21.8151V23.0502ZM14.8484 9.28356V9.21689C14.8484 6.38356 14.8484 5.33356 18.7318 5.33356H21.2651C25.1485 5.33356 25.1485 6.40023 25.1485 9.21689V9.30023H14.8484V9.28356Z" fill="#00BF63"/>
<path opacity="0.4" d="M34.167 20.5C34.0836 20.55 34.0003 20.6 33.917 20.65C30.9503 22.3834 27.667 23.55 24.267 24.1167C24.1336 25.7167 23.4336 27.55 19.7836 27.55C16.1336 27.55 15.4336 25.7334 15.3002 24.15C12.1169 23.65 8.98355 22.6 6.13355 21.0167C5.88355 20.8834 5.63355 20.75 5.40022 20.6C4.80022 20.2667 4.23355 19.9 3.68355 19.5334C3.65022 19.5167 3.61689 19.4834 3.60022 19.4667L4.61689 30.3167C4.96689 33.6334 6.33355 37.05 13.6669 37.05H26.367C33.7003 37.05 35.067 33.6334 35.417 30.3L36.467 19C36.4503 19.0334 36.417 19.0667 36.3836 19.0834C35.667 19.6 34.9336 20.0834 34.167 20.5Z" fill="#00BF63"/>
</svg>
