<svg width="40" height="40" viewBox="0 0 40 40" fill="none" xmlns="http://www.w3.org/2000/svg">
<g clip-path="url(#clip0_481_8647)">
<path d="M40 0H0V40H40V0Z" fill="white"/>
<path fill-rule="evenodd" clip-rule="evenodd" d="M10 27.0863H12.3958V11.0544C12.3958 10.9144 12.5114 10.7988 12.6514 10.7988H20.7666C20.9066 10.7988 21.0221 10.9144 21.0221 11.0544V17.0651H28.2031C28.3431 17.0651 28.4587 17.1807 28.4587 17.3207V27.0847H30V29.1989H10V27.0863ZM14.4466 13.2109H16.1068C16.1572 13.2109 16.1996 13.2533 16.1996 13.3037V15.3155C16.1996 15.3659 16.1572 15.4082 16.1068 15.4082H14.4466C14.3962 15.4082 14.3538 15.3659 14.3538 15.3155V13.3037C14.3538 13.2533 14.3962 13.2109 14.4466 13.2109ZM17.2591 23.2175H18.9193C18.9697 23.2175 19.012 23.2598 19.012 23.3103V25.322C19.012 25.3724 18.9697 25.4147 18.9193 25.4147H17.2591C17.2086 25.4147 17.1664 25.3724 17.1664 25.322V23.3103C17.1664 23.2582 17.2086 23.2175 17.2591 23.2175ZM14.4466 23.2175H16.1068C16.1572 23.2175 16.1996 23.2598 16.1996 23.3103V25.322C16.1996 25.3724 16.1572 25.4147 16.1068 25.4147H14.4466C14.3962 25.4147 14.3538 25.3724 14.3538 25.322V23.3103C14.3538 23.2582 14.3962 23.2175 14.4466 23.2175ZM17.2591 19.8809H18.9193C18.9697 19.8809 19.012 19.9232 19.012 19.9737V21.9854C19.012 22.0358 18.9697 22.0781 18.9193 22.0781H17.2591C17.2086 22.0781 17.1664 22.0358 17.1664 21.9854V19.9753C17.1664 19.9232 17.2086 19.8809 17.2591 19.8809ZM14.4466 19.8809H16.1068C16.1572 19.8809 16.1996 19.9232 16.1996 19.9737V21.9854C16.1996 22.0358 16.1572 22.0781 16.1068 22.0781H14.4466C14.3962 22.0781 14.3538 22.0358 14.3538 21.9854V19.9753C14.3538 19.9232 14.3962 19.8809 14.4466 19.8809ZM17.2591 16.5459H18.9193C18.9697 16.5459 19.012 16.5882 19.012 16.6387V18.6504C19.012 18.7009 18.9697 18.7432 18.9193 18.7432H17.2591C17.2086 18.7432 17.1664 18.7009 17.1664 18.6504V16.6387C17.1664 16.5882 17.2086 16.5459 17.2591 16.5459ZM14.4466 16.5459H16.1068C16.1572 16.5459 16.1996 16.5882 16.1996 16.6387V18.6504C16.1996 18.7009 16.1572 18.7432 16.1068 18.7432H14.4466C14.3962 18.7432 14.3538 18.7009 14.3538 18.6504V16.6387C14.3538 16.5882 14.3962 16.5459 14.4466 16.5459ZM17.2591 13.2109H18.9193C18.9697 13.2109 19.012 13.2533 19.012 13.3037V15.3155C19.012 15.3659 18.9697 15.4082 18.9193 15.4082H17.2591C17.2086 15.4082 17.1664 15.3659 17.1664 15.3155V13.3037C17.1664 13.2533 17.2086 13.2109 17.2591 13.2109ZM13.7712 11.9903H19.6175C19.7184 11.9903 19.8014 12.0895 19.8014 12.21V26.1862C19.8014 26.3067 19.7184 26.4059 19.6175 26.4059H13.7712C13.6702 26.4059 13.5872 26.3067 13.5872 26.1862V12.21C13.5872 12.0895 13.6702 11.9903 13.7712 11.9903ZM21.818 19.4951H23.4782C23.5286 19.4951 23.571 19.5375 23.571 19.5879V21.5996C23.571 21.6501 23.5286 21.6924 23.4782 21.6924H21.818C21.7676 21.6924 21.7253 21.6501 21.7253 21.5996V19.5879C21.7253 19.5375 21.7676 19.4951 21.818 19.4951ZM24.6305 23.2175H26.2907C26.3412 23.2175 26.3835 23.2598 26.3835 23.3103V25.322C26.3835 25.3724 26.3412 25.4147 26.2907 25.4147H24.6305C24.5801 25.4147 24.5378 25.3724 24.5378 25.322V23.3103C24.5378 23.2582 24.5801 23.2175 24.6305 23.2175ZM21.818 23.2175H23.4782C23.5286 23.2175 23.571 23.2598 23.571 23.3103V25.322C23.571 25.3724 23.5286 25.4147 23.4782 25.4147H21.818C21.7676 25.4147 21.7253 25.3724 21.7253 25.322V23.3103C21.7253 23.2582 21.7676 23.2175 21.818 23.2175ZM24.6305 19.4951H26.2907C26.3412 19.4951 26.3835 19.5375 26.3835 19.5879V21.5996C26.3835 21.6501 26.3412 21.6924 26.2907 21.6924H24.6305C24.5801 21.6924 24.5378 21.6501 24.5378 21.5996V19.5879C24.5378 19.5375 24.5801 19.4951 24.6305 19.4951ZM21.2077 18.2565H27.054C27.155 18.2565 27.238 18.3558 27.238 18.4763V26.1862C27.238 26.3067 27.155 26.4059 27.054 26.4059H21.2077C21.1068 26.4059 21.0238 26.3067 21.0238 26.1862V18.4763C21.0238 18.3558 21.1068 18.2565 21.2077 18.2565Z" fill="#00BF63"/>
</g>
<defs>
<clipPath id="clip0_481_8647">
<rect width="40" height="40" fill="white"/>
</clipPath>
</defs>
</svg>
