<svg width="22" height="22" viewBox="0 0 22 22" fill="none" xmlns="http://www.w3.org/2000/svg">
<g clip-path="url(#clip0_440_2138)">
<path opacity="0.5" d="M9.16643 18.3334H12.8331C16.2901 18.3334 18.0185 18.3334 19.0925 17.2594C20.1665 16.1855 20.1665 14.457 20.1665 11C20.1665 10.5949 20.1649 9.52602 20.1632 9.16669H1.83332C1.83159 9.52602 1.8331 10.5949 1.8331 11C1.8331 14.457 1.8331 16.1855 2.90704 17.2594C3.98099 18.3334 5.70946 18.3334 9.16643 18.3334Z" fill="#1C274C"/>
<path d="M9.16195 3.66669H12.8381C16.3039 3.66669 18.0369 3.66669 19.1136 4.68949C19.8888 5.42592 20.1059 6.4855 20.1667 8.25002V9.16669H1.83334V8.25002C1.89412 6.4855 2.11119 5.42592 2.88642 4.68949C3.96313 3.66669 5.69607 3.66669 9.16195 3.66669Z" fill="#1C274C"/>
<path d="M11.4583 13.9792C11.0787 13.9792 10.7708 14.287 10.7708 14.6667C10.7708 15.0464 11.0787 15.3542 11.4583 15.3542H12.8333C13.213 15.3542 13.5208 15.0464 13.5208 14.6667C13.5208 14.287 13.213 13.9792 12.8333 13.9792H11.4583Z" fill="#1C274C"/>
<path d="M5.5 13.9792C5.12031 13.9792 4.8125 14.287 4.8125 14.6667C4.8125 15.0464 5.12031 15.3542 5.5 15.3542H9.16667C9.54635 15.3542 9.85417 15.0464 9.85417 14.6667C9.85417 14.287 9.54635 13.9792 9.16667 13.9792H5.5Z" fill="#1C274C"/>
</g>
<defs>
<clipPath id="clip0_440_2138">
<rect width="22" height="22" fill="white"/>
</clipPath>
</defs>
</svg>
