<svg width="50" height="50" viewBox="0 0 50 50" fill="none" xmlns="http://www.w3.org/2000/svg">
<rect width="50" height="50" rx="25" fill="#EE6A5F" fill-opacity="0.1"/>
<path d="M25.0001 10C16.7289 10 10 16.7289 10 25C10 33.2711 16.7288 40 25 40C33.2712 40 40 33.2711 40 25C40 16.7289 33.2712 10 25.0001 10ZM25.0001 15.0704C26.8196 15.0704 28.5261 15.5628 29.9942 16.4206L16.4207 29.9941C15.5628 28.526 15.0704 26.8195 15.0704 25C15.0704 19.5248 19.5249 15.0704 25.0001 15.0704ZM25.0001 34.9296C23.1805 34.9296 21.4741 34.4372 20.006 33.5794L33.5796 20.0059C34.4374 21.4741 34.9298 23.1805 34.9298 25C34.9298 30.4752 30.4752 34.9296 25.0001 34.9296Z" fill="#F05752"/>
</svg>
