<svg width="100" height="100" viewBox="0 0 100 100" fill="none" xmlns="http://www.w3.org/2000/svg">
<rect width="100" height="100" rx="50" fill="#00BF63" fill-opacity="0.1"/>
<path d="M70.8333 52.0833V56.25C70.8333 56.8025 70.6138 57.3324 70.2231 57.7231C69.8324 58.1138 69.3025 58.3333 68.75 58.3333H64.5833C64.0308 58.3333 63.5009 58.1138 63.1102 57.7231C62.7195 57.3324 62.5 56.8025 62.5 56.25V52.0833C62.5 51.5308 62.7195 51.0009 63.1102 50.6102C63.5009 50.2195 64.0308 50 64.5833 50H68.75C69.3025 50 69.8324 50.2195 70.2231 50.6102C70.6138 51.0009 70.8333 51.5308 70.8333 52.0833ZM68.75 37.5H64.5833C64.0308 37.5 63.5009 37.7195 63.1102 38.1102C62.7195 38.5009 62.5 39.0308 62.5 39.5833V43.75C62.5 44.3025 62.7195 44.8324 63.1102 45.2231C63.5009 45.6138 64.0308 45.8333 64.5833 45.8333H68.75C69.3025 45.8333 69.8324 45.6138 70.2231 45.2231C70.6138 44.8324 70.8333 44.3025 70.8333 43.75V39.5833C70.8333 39.0308 70.6138 38.5009 70.2231 38.1102C69.8324 37.7195 69.3025 37.5 68.75 37.5Z" fill="#F8F8F8"/>
<path opacity="0.5" d="M62.5003 29.1667H33.3337C31.0325 29.1667 29.167 31.0322 29.167 33.3334V66.6668C29.167 68.9679 31.0325 70.8334 33.3337 70.8334H62.5003C64.8015 70.8334 66.667 68.9679 66.667 66.6668V33.3334C66.667 31.0322 64.8015 29.1667 62.5003 29.1667Z" fill="#00BF63"/>
<path d="M52.9163 49.5833C53.7277 48.5014 54.1663 47.1856 54.1663 45.8333C54.1663 44.1756 53.5079 42.5859 52.3358 41.4138C51.1637 40.2417 49.5739 39.5833 47.9163 39.5833C46.2587 39.5833 44.669 40.2417 43.4969 41.4138C42.3248 42.5859 41.6663 44.1756 41.6663 45.8333C41.6663 47.1856 42.105 48.5014 42.9163 49.5833C41.8814 50.3595 41.0413 51.366 40.4628 52.5231C39.8842 53.6803 39.583 54.9562 39.583 56.2499V58.3333C39.583 58.8858 39.8025 59.4157 40.1932 59.8064C40.5839 60.1971 41.1138 60.4166 41.6663 60.4166H54.1663C54.7189 60.4166 55.2488 60.1971 55.6395 59.8064C56.0302 59.4157 56.2497 58.8858 56.2497 58.3333V56.2499C56.2497 54.9562 55.9485 53.6803 55.3699 52.5231C54.7913 51.366 53.9513 50.3595 52.9163 49.5833Z" fill="#F8F8F8"/>
</svg>
