<svg width="22" height="22" viewBox="0 0 22 22" fill="none" xmlns="http://www.w3.org/2000/svg">
<path d="M20.1667 11.9167V13.75C20.1667 13.9931 20.0701 14.2263 19.8982 14.3982C19.7263 14.5701 19.4931 14.6667 19.25 14.6667H17.4167C17.1736 14.6667 16.9404 14.5701 16.7685 14.3982C16.5966 14.2263 16.5 13.9931 16.5 13.75V11.9167C16.5 11.6736 16.5966 11.4404 16.7685 11.2685C16.9404 11.0966 17.1736 11 17.4167 11H19.25C19.4931 11 19.7263 11.0966 19.8982 11.2685C20.0701 11.4404 20.1667 11.6736 20.1667 11.9167ZM19.25 5.5H17.4167C17.1736 5.5 16.9404 5.59658 16.7685 5.76849C16.5966 5.94039 16.5 6.17355 16.5 6.41667V8.25C16.5 8.49312 16.5966 8.72627 16.7685 8.89818C16.9404 9.07009 17.1736 9.16667 17.4167 9.16667H19.25C19.4931 9.16667 19.7263 9.07009 19.8982 8.89818C20.0701 8.72627 20.1667 8.49312 20.1667 8.25V6.41667C20.1667 6.17355 20.0701 5.94039 19.8982 5.76849C19.7263 5.59658 19.4931 5.5 19.25 5.5Z" fill="#F8F8F8"/>
<path opacity="0.5" d="M16.5 1.83334H3.66668C2.65415 1.83334 1.83334 2.65415 1.83334 3.66668V18.3333C1.83334 19.3459 2.65415 20.1667 3.66668 20.1667H16.5C17.5125 20.1667 18.3333 19.3459 18.3333 18.3333V3.66668C18.3333 2.65415 17.5125 1.83334 16.5 1.83334Z" fill="#1C274C"/>
<path d="M12.2833 10.8167C12.6403 10.3406 12.8333 9.76167 12.8333 9.16666C12.8333 8.43731 12.5436 7.73784 12.0279 7.22211C11.5121 6.70639 10.8127 6.41666 10.0833 6.41666C9.35398 6.41666 8.6545 6.70639 8.13878 7.22211C7.62305 7.73784 7.33332 8.43731 7.33332 9.16666C7.33332 9.76167 7.52631 10.3406 7.88332 10.8167C7.42794 11.1582 7.05833 11.6011 6.80376 12.1102C6.54919 12.6193 6.41666 13.1808 6.41666 13.75V14.6667C6.41666 14.9098 6.51323 15.1429 6.68514 15.3148C6.85705 15.4867 7.09021 15.5833 7.33332 15.5833H12.8333C13.0764 15.5833 13.3096 15.4867 13.4815 15.3148C13.6534 15.1429 13.75 14.9098 13.75 14.6667V13.75C13.75 13.1808 13.6175 12.6193 13.3629 12.1102C13.1083 11.6011 12.7387 11.1582 12.2833 10.8167Z" fill="#F8F8F8"/>
</svg>
