<svg width="13" height="15" viewBox="0 0 13 15" fill="none" xmlns="http://www.w3.org/2000/svg">
<path fill-rule="evenodd" clip-rule="evenodd" d="M8.375 0.78125H5.83974C4.69114 0.78124 3.78137 0.781233 3.06936 0.87696C2.3366 0.975477 1.7435 1.18305 1.27578 1.65078C0.80805 2.1185 0.600477 2.7116 0.50196 3.44436C0.406233 4.15637 0.40624 5.06614 0.40625 6.21473V10C0.40625 11.1702 1.26378 12.14 2.3847 12.3154C2.47093 12.7929 2.63595 13.2005 2.96772 13.5323C3.34392 13.9085 3.81759 14.0703 4.38016 14.1459C4.92201 14.2188 5.61096 14.2188 6.46571 14.2188H8.40929C9.26404 14.2188 9.95299 14.2188 10.4948 14.1459C11.0574 14.0703 11.5311 13.9085 11.9073 13.5323C12.2835 13.1561 12.4453 12.6824 12.5209 12.1198C12.5938 11.578 12.5938 10.889 12.5938 10.0343V6.84071C12.5938 5.98596 12.5938 5.29701 12.5209 4.75516C12.4453 4.19259 12.2835 3.71892 11.9073 3.34272C11.5755 3.01095 11.1679 2.84593 10.6904 2.7597C10.515 1.63878 9.54515 0.78125 8.375 0.78125ZM9.70583 2.66948C9.51657 2.1164 8.99222 1.71875 8.375 1.71875H5.875C4.68324 1.71875 3.83657 1.71975 3.19428 1.8061C2.56548 1.89064 2.2032 2.04918 1.93869 2.31369C1.67418 2.5782 1.51564 2.94047 1.4311 3.56928C1.34475 4.21157 1.34375 5.05824 1.34375 6.25V10C1.34375 10.6172 1.7414 11.1416 2.29448 11.3308C2.28124 10.9496 2.28124 10.5186 2.28125 10.0343V6.8407C2.28124 5.98596 2.28123 5.29701 2.35408 4.75516C2.42971 4.19259 2.59152 3.71892 2.96772 3.34272C3.34392 2.96652 3.81759 2.80471 4.38016 2.72908C4.92201 2.65623 5.61096 2.65624 6.4657 2.65625H8.4093C8.89356 2.65624 9.32461 2.65624 9.70583 2.66948ZM3.63063 4.00563C3.80361 3.83265 4.04647 3.71988 4.50508 3.65822C4.97717 3.59475 5.60287 3.59375 6.5 3.59375H8.375C9.27214 3.59375 9.89783 3.59475 10.3699 3.65822C10.8285 3.71988 11.0714 3.83266 11.2444 4.00563C11.4173 4.17861 11.5301 4.42147 11.5918 4.88008C11.6553 5.35217 11.6562 5.97787 11.6562 6.875V10C11.6562 10.8971 11.6553 11.5228 11.5918 11.9949C11.5301 12.4535 11.4173 12.6964 11.2444 12.8694C11.0714 13.0423 10.8285 13.1551 10.3699 13.2168C9.89783 13.2803 9.27214 13.2813 8.375 13.2813H6.5C5.60287 13.2813 4.97717 13.2803 4.50508 13.2168C4.04647 13.1551 3.80361 13.0423 3.63063 12.8694C3.45765 12.6964 3.34488 12.4535 3.28322 11.9949C3.21975 11.5228 3.21875 10.8971 3.21875 10V6.875C3.21875 5.97787 3.21975 5.35217 3.28322 4.88008C3.34488 4.42147 3.45765 4.17861 3.63063 4.00563Z" fill="#00BF63"/>
</svg>
