<svg width="32" height="32" viewBox="0 0 32 32" fill="none" xmlns="http://www.w3.org/2000/svg">
<path fill-rule="evenodd" clip-rule="evenodd" d="M28.0002 10.6666C28.0002 8.45749 26.2094 6.66663 24.0002 6.66663H13.3335C11.1244 6.66663 9.3335 8.45749 9.3335 10.6666V26.6666C9.3335 28.8758 11.1244 30.6666 13.3335 30.6666H24.0002C26.2094 30.6666 28.0002 28.8758 28.0002 26.6666V10.6666ZM25.3335 10.6666C25.3335 9.93025 24.7366 9.33329 24.0002 9.33329H13.3335C12.5971 9.33329 12.0002 9.93025 12.0002 10.6666V26.6666C12.0002 27.403 12.5971 28 13.3335 28H24.0002C24.7366 28 25.3335 27.403 25.3335 26.6666V10.6666Z" fill="#0F0F0F"/>
<path d="M8 4.00004H21.3333C22.0697 4.00004 22.6667 3.40308 22.6667 2.66671C22.6667 1.93033 22.0697 1.33337 21.3333 1.33337H8C5.79087 1.33337 4 3.12424 4 5.33337V24C4 24.7364 4.59696 25.3334 5.33333 25.3334C6.06971 25.3334 6.66667 24.7364 6.66667 24V5.33337C6.66667 4.597 7.26363 4.00004 8 4.00004Z" fill="#0F0F0F"/>
</svg>
