<svg width="15" height="18" viewBox="0 0 15 18" fill="none" xmlns="http://www.w3.org/2000/svg">
<path d="M10.1999 0.5H6.9548C5.48463 0.499992 4.32013 0.499975 3.40876 0.62546C2.47083 0.754601 1.71167 1.02669 1.11299 1.63982C0.514306 2.25293 0.248607 3.03038 0.122508 3.99093C-2.47855e-05 4.92425 -8.19416e-06 6.11682 1.39129e-07 7.62241V12.5844C1.39129e-07 13.8663 0.766621 14.9648 1.85597 15.4253C1.7999 14.6523 1.79994 13.5676 1.79999 12.6652V8.40704C1.79993 7.3176 1.79987 6.37898 1.89856 5.6273C2.00431 4.82172 2.24281 4.04953 2.8544 3.4232C3.46599 2.79686 4.22001 2.55262 5.00662 2.44432C5.74061 2.34326 6.65721 2.34331 7.72096 2.34337H10.2789C11.3427 2.34331 12.2573 2.34326 12.9913 2.44432C12.5522 1.30562 11.4679 0.5 10.1999 0.5Z" fill="#1C274C"/>
<path d="M3.00007 8.48796C3.00007 6.17068 3.00007 5.01205 3.703 4.29217C4.40594 3.57229 5.53731 3.57229 7.80004 3.57229H10.2C12.4628 3.57229 13.5941 3.57229 14.2971 4.29217C15 5.01205 15 6.17069 15 8.48796V12.5844C15 14.9016 15 16.0603 14.2971 16.7801C13.5941 17.5 12.4628 17.5 10.2 17.5H7.80004C5.53731 17.5 4.40594 17.5 3.703 16.7801C3.00007 16.0603 3.00007 14.9016 3.00007 12.5844V8.48796Z" fill="#1C274C"/>
</svg>
