<svg width="20" height="21" viewBox="0 0 20 21" fill="none" xmlns="http://www.w3.org/2000/svg">
<path opacity="0.3" fill-rule="evenodd" clip-rule="evenodd" d="M15.8333 9.66667C16.2538 9.66653 16.6588 9.82534 16.9671 10.1112C17.2754 10.3972 17.4643 10.789 17.4958 11.2083L17.5 11.3333V16.3333C17.5001 16.7538 17.3413 17.1588 17.0554 17.4671C16.7695 17.7754 16.3776 17.9643 15.9583 17.9958L15.8333 18H12.5C12.0795 18.0001 11.6745 17.8413 11.3662 17.5554C11.0579 17.2695 10.869 16.8776 10.8375 16.4583L10.8333 16.3333V11.3333C10.8332 10.9129 10.992 10.5079 11.2779 10.1995C11.5638 9.89123 11.9557 9.70237 12.375 9.67083L12.5 9.66667H15.8333ZM15.8333 3C16.2754 3 16.6993 3.17559 17.0118 3.48816C17.3244 3.80072 17.5 4.22464 17.5 4.66667V6.33333C17.5 6.77536 17.3244 7.19928 17.0118 7.51184C16.6993 7.8244 16.2754 8 15.8333 8H12.5C12.058 8 11.634 7.8244 11.3215 7.51184C11.0089 7.19928 10.8333 6.77536 10.8333 6.33333V4.66667C10.8333 4.22464 11.0089 3.80072 11.3215 3.48816C11.634 3.17559 12.058 3 12.5 3H15.8333Z" fill="#9E9E9E"/>
<path fill-rule="evenodd" clip-rule="evenodd" d="M7.5 3C7.94203 3 8.36595 3.17559 8.67851 3.48816C8.99107 3.80072 9.16667 4.22464 9.16667 4.66667V9.66667C9.16667 10.1087 8.99107 10.5326 8.67851 10.8452C8.36595 11.1577 7.94203 11.3333 7.5 11.3333H4.16667C3.72464 11.3333 3.30072 11.1577 2.98816 10.8452C2.67559 10.5326 2.5 10.1087 2.5 9.66667V4.66667C2.5 4.22464 2.67559 3.80072 2.98816 3.48816C3.30072 3.17559 3.72464 3 4.16667 3H7.5Z" fill="#9E9E9E"/>
<path opacity="0.3" fill-rule="evenodd" clip-rule="evenodd" d="M7.5 13C7.94203 13 8.36595 13.1756 8.67851 13.4882C8.99107 13.8007 9.16667 14.2246 9.16667 14.6667V16.3333C9.16667 16.7754 8.99107 17.1993 8.67851 17.5118C8.36595 17.8244 7.94203 18 7.5 18H4.16667C3.72464 18 3.30072 17.8244 2.98816 17.5118C2.67559 17.1993 2.5 16.7754 2.5 16.3333V14.6667C2.5 14.2246 2.67559 13.8007 2.98816 13.4882C3.30072 13.1756 3.72464 13 4.16667 13H7.5Z" fill="#9E9E9E"/>
</svg>
