<svg width="50" height="50" viewBox="0 0 50 50" fill="none" xmlns="http://www.w3.org/2000/svg">
<rect width="50" height="50" rx="25" fill="#EE6A5F" fill-opacity="0.1"/>
<path d="M13.75 17.9825C13.75 17.3769 14.1817 16.886 14.7143 16.886L18.0446 16.8854C18.7063 16.8663 19.29 16.3879 19.5152 15.6802C19.5211 15.6615 19.5279 15.6386 19.5523 15.5553L19.6958 15.0657C19.7836 14.7655 19.8601 14.504 19.9672 14.2702C20.3901 13.3467 21.1726 12.7054 22.0768 12.5412C22.3057 12.4997 22.5481 12.4998 22.8264 12.5H27.1739C27.4521 12.4998 27.6945 12.4997 27.9234 12.5412C28.8276 12.7054 29.6101 13.3467 30.033 14.2702C30.1401 14.504 30.2166 14.7655 30.3044 15.0657L30.4479 15.5553C30.4722 15.6386 30.4791 15.6615 30.485 15.6802C30.7103 16.3879 31.4097 16.8669 32.0714 16.886H35.2857C35.8182 16.886 36.25 17.3769 36.25 17.9825C36.25 18.588 35.8182 19.079 35.2857 19.079H14.7143C14.1817 19.079 13.75 18.588 13.75 17.9825Z" fill="#EE6A5F"/>
<path fill-rule="evenodd" clip-rule="evenodd" d="M24.4945 37.4998H25.5055C28.9839 37.4998 30.7231 37.4998 31.8539 36.3924C32.9848 35.285 33.1004 33.4685 33.3317 29.8354L33.6651 24.6005C33.7908 22.6293 33.8535 21.6437 33.2861 21.0191C32.7189 20.3945 31.7609 20.3945 29.845 20.3945H20.155C18.2391 20.3945 17.2811 20.3945 16.7138 21.0191C16.1465 21.6437 16.2093 22.6293 16.3348 24.6005L16.6682 29.8354C16.8996 33.4685 17.0153 35.285 18.1461 36.3924C19.2769 37.4998 21.0161 37.4998 24.4945 37.4998ZM22.8079 25.2354C22.7564 24.6931 22.2969 24.2974 21.7817 24.3516C21.2665 24.4059 20.8906 24.8895 20.9422 25.4318L21.5671 32.0108C21.6187 32.553 22.0781 32.9488 22.5932 32.8945C23.1085 32.8403 23.4844 32.3566 23.4329 31.8144L22.8079 25.2354ZM28.2183 24.3516C28.7335 24.4059 29.1094 24.8895 29.0579 25.4318L28.4329 32.0108C28.3814 32.553 27.9219 32.9488 27.4067 32.8945C26.8915 32.8403 26.5156 32.3566 26.5671 31.8144L27.1921 25.2354C27.2436 24.6931 27.7031 24.2974 28.2183 24.3516Z" fill="#EE6A5F"/>
</svg>
