<svg width="40" height="40" viewBox="0 0 40 40" fill="none" xmlns="http://www.w3.org/2000/svg">
<path opacity="0.5" d="M5 16.6667C5 10.3813 5 7.23859 6.95262 5.28596C8.90525 3.33334 12.0479 3.33334 18.3333 3.33334H21.6667C27.952 3.33334 31.0948 3.33334 33.0473 5.28596C35 7.23859 35 10.3813 35 16.6667V23.3333C35 29.6187 35 32.7615 33.0473 34.714C31.0948 36.6667 27.952 36.6667 21.6667 36.6667H18.3333C12.0479 36.6667 8.90525 36.6667 6.95262 34.714C5 32.7615 5 29.6187 5 23.3333V16.6667Z" fill="#00BF63"/>
<path d="M27.5315 27.5022C27.8232 27.2747 28.0877 27.0102 28.6169 26.481L35.2125 19.8853C35.3719 19.726 35.2989 19.4513 35.0859 19.3773C34.3074 19.1073 33.2945 18.6002 32.3472 17.6528C31.3999 16.7055 30.8927 15.6927 30.6227 14.9141C30.5487 14.7011 30.274 14.6281 30.1147 14.7876L23.519 21.3832C22.9899 21.9123 22.7254 22.1768 22.4979 22.4685C22.2295 22.8127 21.9994 23.1848 21.8117 23.5788C21.6525 23.9127 21.5342 24.2677 21.2977 24.9775L20.9919 25.8947L20.5057 27.353L20.0499 28.7205C19.9335 29.0698 20.0244 29.4548 20.2847 29.7153C20.5452 29.9757 20.9302 30.0665 21.2795 29.9502L22.647 29.4943L24.1054 29.0082L25.0225 28.7023C25.7322 28.4658 26.0874 28.3475 26.4212 28.1883C26.8152 28.0007 27.1874 27.7705 27.5315 27.5022Z" fill="#00BF63"/>
<path d="M37.2775 17.8203C38.6853 16.4126 38.6853 14.1302 37.2775 12.7225C35.8698 11.3147 33.5875 11.3147 32.1796 12.7225L31.9676 12.9345C31.763 13.1391 31.6703 13.4249 31.7215 13.7098C31.7536 13.8889 31.8131 14.1509 31.9216 14.4634C32.1385 15.0886 32.548 15.9091 33.3195 16.6805C34.0908 17.452 34.9115 17.8615 35.5365 18.0783C35.8491 18.1868 36.111 18.2463 36.2901 18.2785C36.575 18.3297 36.8608 18.237 37.0655 18.0323L37.2775 17.8203Z" fill="#00BF63"/>
<path fill-rule="evenodd" clip-rule="evenodd" d="M12.0834 15C12.0834 14.3097 12.643 13.75 13.3334 13.75H24.1667C24.857 13.75 25.4167 14.3097 25.4167 15C25.4167 15.6903 24.857 16.25 24.1667 16.25H13.3334C12.643 16.25 12.0834 15.6903 12.0834 15ZM12.0834 21.6667C12.0834 20.9763 12.643 20.4167 13.3334 20.4167H18.3334C19.0237 20.4167 19.5834 20.9763 19.5834 21.6667C19.5834 22.357 19.0237 22.9167 18.3334 22.9167H13.3334C12.643 22.9167 12.0834 22.357 12.0834 21.6667ZM12.0834 28.3333C12.0834 27.643 12.643 27.0833 13.3334 27.0833H15.8334C16.5237 27.0833 17.0834 27.643 17.0834 28.3333C17.0834 29.0237 16.5237 29.5833 15.8334 29.5833H13.3334C12.643 29.5833 12.0834 29.0237 12.0834 28.3333Z" fill="#00BF63"/>
</svg>
