<svg width="21" height="18" viewBox="0 0 21 18" fill="none" xmlns="http://www.w3.org/2000/svg">
<path d="M8.1375 9C8.1375 7.67974 9.19527 6.60938 10.5 6.60938C11.8047 6.60938 12.8625 7.67974 12.8625 9C12.8625 10.3203 11.8047 11.3906 10.5 11.3906C9.19527 11.3906 8.1375 10.3203 8.1375 9Z" fill="#1C274C"/>
<path fill-rule="evenodd" clip-rule="evenodd" d="M0 9C0 10.7419 0.446208 11.3285 1.33863 12.5017C3.12056 14.8442 6.10901 17.5 10.5 17.5C14.891 17.5 17.8794 14.8442 19.6614 12.5017C20.5537 11.3285 21 10.7419 21 9C21 7.25814 20.5537 6.67156 19.6614 5.49835C17.8794 3.15578 14.891 0.5 10.5 0.5C6.10901 0.5 3.12056 3.15578 1.33863 5.49835C0.446208 6.67156 0 7.25814 0 9ZM10.5 5.01562C8.32538 5.01562 6.5625 6.79949 6.5625 9C6.5625 11.2005 8.32538 12.9844 10.5 12.9844C12.6747 12.9844 14.4375 11.2005 14.4375 9C14.4375 6.79949 12.6747 5.01562 10.5 5.01562Z" fill="#1C274C"/>
</svg>
