<svg width="20" height="18" viewBox="0 0 20 18" fill="none" xmlns="http://www.w3.org/2000/svg">
<path d="M18.6047 9C18.6047 8.27049 18.5146 7.84607 18.3677 7.49884C18.2498 7.22015 18.0857 6.96437 17.839 6.62038L17.5636 6.24281C16.0478 4.18641 13.5811 1.95714 10 1.95714C6.53085 1.95714 4.1075 4.04934 2.5814 6.04967L2.43641 6.24281C2.02842 6.79633 1.78945 7.12728 1.63227 7.49884C1.4854 7.84606 1.39535 8.27048 1.39535 9C1.39535 9.72951 1.4854 10.1539 1.63227 10.5012C1.78945 10.8727 2.02843 11.2037 2.43641 11.7572L2.5814 11.9503C4.10751 13.9506 6.53085 16.0429 10 16.0429C13.5811 16.0429 16.0478 13.8135 17.5636 11.7572L17.839 11.3796C18.0857 11.0356 18.2498 10.7799 18.3677 10.5012C18.5146 10.1539 18.6047 9.7295 18.6047 9ZM12.093 9C12.093 7.79282 11.156 6.81429 10 6.81429C8.84401 6.81429 7.90698 7.79282 7.90698 9C7.90698 10.2072 8.84401 11.1857 10 11.1857C11.156 11.1857 12.093 10.2072 12.093 9ZM13.4884 9C13.4884 11.0119 11.9266 12.6429 10 12.6429C8.07338 12.6429 6.51163 11.0119 6.51163 9C6.51163 6.98806 8.07338 5.35714 10 5.35714C11.9266 5.35714 13.4884 6.98806 13.4884 9ZM20 9C20 9.86294 19.8923 10.5029 19.6439 11.0901C19.4653 11.5123 19.2216 11.8844 18.9495 12.263L18.6693 12.6459C17.0277 14.873 14.1992 17.5 10 17.5C5.93195 17.5 3.15033 15.0346 1.48801 12.8557L1.33067 12.6459C0.94804 12.1268 0.594222 11.653 0.356105 11.0901C0.107695 10.5029 0 9.86294 0 9C0 8.13706 0.107693 7.49711 0.356105 6.90991C0.594225 6.34704 0.94804 5.87322 1.33067 5.35411L1.48801 5.14426C3.15034 2.96534 5.93197 0.5 10 0.5C14.1992 0.5 17.0277 3.12696 18.6693 5.35411L18.9495 5.73699C19.2216 6.11563 19.4653 6.48774 19.6439 6.90991C19.8923 7.49711 20 8.13705 20 9Z" fill="#1C274C"/>
</svg>
