<svg width="25" height="25" viewBox="0 0 25 25" fill="none" xmlns="http://www.w3.org/2000/svg">
<g clip-path="url(#clip0_906_782)">
<path d="M20.7031 6.53123C21.4323 6.94581 21.8802 7.72185 21.875 8.5604V16.1479C21.875 16.9906 21.4135 17.7677 20.6687 18.1771L13.6375 22.625C13.2889 22.8164 12.8977 22.9167 12.5 22.9167C12.1023 22.9167 11.7111 22.8164 11.3625 22.625L4.33125 18.1771C3.96684 17.9779 3.66263 17.6845 3.45043 17.3276C3.23823 16.9706 3.12583 16.5632 3.125 16.1479V8.55935C3.125 7.71665 3.58646 6.9406 4.33125 6.53123L11.3625 2.3854C11.7214 2.18752 12.1245 2.08374 12.5344 2.08374C12.9442 2.08374 13.3474 2.18752 13.7062 2.3854L20.7375 6.53123H20.7031Z" stroke="#1C274C" stroke-width="2" stroke-linecap="round" stroke-linejoin="round"/>
<path d="M12.5 16.6667V16.6767" stroke="#1C274C" stroke-width="2" stroke-linecap="round" stroke-linejoin="round"/>
<path d="M12.5 13.5417C12.9685 13.5431 13.4238 13.3865 13.7923 13.0973C14.1609 12.8081 14.4212 12.4031 14.5313 11.9477C14.6414 11.4924 14.5947 11.0132 14.3989 10.5876C14.2031 10.162 13.8695 9.81477 13.4521 9.60208C13.0377 9.3898 12.5637 9.32398 12.1071 9.41533C11.6505 9.50668 11.2383 9.74982 10.9375 10.1052" stroke="#1C274C" stroke-width="2" stroke-linecap="round" stroke-linejoin="round"/>
</g>
<defs>
<clipPath id="clip0_906_782">
<rect width="25" height="25" fill="white"/>
</clipPath>
</defs>
</svg>
