<svg width="35" height="34" viewBox="0 0 35 34" fill="none" xmlns="http://www.w3.org/2000/svg">
<g clip-path="url(#clip0_12_286)">
<path d="M17.3032 0.629639C21.9468 0.629639 25.9082 2.2693 29.1875 5.54862C32.4668 8.82794 34.1065 12.7762 34.1065 17.3935C34.1065 21.0664 33.0309 24.3588 30.8796 27.2708C28.7284 30.1829 25.9738 32.2161 22.6157 33.3704C21.8812 33.4753 21.5139 33.1867 21.5139 32.5046V27.9398C21.5139 26.5232 21.1204 25.4738 20.3333 24.7917C22.642 24.5293 24.4915 23.821 25.8819 22.6667C27.2724 21.5124 27.9676 19.4923 27.9676 16.6065C27.9676 14.8225 27.3904 13.3009 26.2361 12.0417C26.8133 10.6775 26.7608 9.18211 26.0787 7.55556C25.1343 7.29322 23.6127 7.87038 21.5139 9.28705C20.1497 8.91976 18.733 8.73612 17.2639 8.73612C15.7948 8.73612 14.4043 8.91976 13.0926 9.28705C12.1481 8.65742 11.2955 8.19831 10.5347 7.90973C9.77392 7.62115 9.23611 7.5031 8.9213 7.55556H8.44907C7.81944 9.18211 7.76697 10.6775 8.29167 12.0417C7.13735 13.3009 6.56018 14.8225 6.56018 16.6065C6.56018 19.4923 7.26852 21.5124 8.68518 22.6667C10.1019 23.821 11.9383 24.5293 14.1944 24.7917C13.6173 25.3164 13.2762 26.0772 13.1713 27.0741C10.9676 28.0185 9.34105 27.5463 8.29167 25.6574C7.66204 24.608 6.7963 24.0309 5.69444 23.9259C5.58951 23.9259 5.47145 23.9391 5.34028 23.9653C5.20911 23.9915 5.07793 24.0833 4.94676 24.2408C4.81559 24.3982 5.03858 24.6343 5.61574 24.9491C6.35031 25.3164 6.9537 26.1296 7.42593 27.3889C7.47839 27.4938 7.53086 27.6119 7.58333 27.7431C7.6358 27.8742 7.80633 28.1235 8.09491 28.4908C8.38349 28.858 8.72454 29.1335 9.11806 29.3171C9.51157 29.5008 10.0494 29.6713 10.7315 29.8287C11.4136 29.9861 12.2006 29.9337 13.0926 29.6713V32.5046C13.0926 33.1867 12.7253 33.4753 11.9907 33.3704C8.63272 32.2161 5.87809 30.1829 3.72685 27.2708C1.57562 24.3588 0.5 21.0664 0.5 17.3935C0.5 12.7762 2.13966 8.82794 5.41898 5.54862C8.6983 2.2693 12.6597 0.629639 17.3032 0.629639Z" fill="black"/>
</g>
<defs>
<clipPath id="clip0_12_286">
<rect width="34" height="34" fill="white" transform="translate(0.5)"/>
</clipPath>
</defs>
</svg>
