<svg width="56" height="57" viewBox="0 0 56 57" fill="none" xmlns="http://www.w3.org/2000/svg">
<rect width="56" height="57" rx="10" fill="#FAFAFA"/>
<g clip-path="url(#clip0_468_15140)">
<path d="M45.9836 28.8461C45.9836 27.3302 45.8611 26.224 45.5961 25.0769H28.3594V31.9188H38.4769C38.273 33.6191 37.1715 36.1797 34.7236 37.9004L34.6893 38.1294L40.1392 42.3693L40.5168 42.4072C43.9845 39.191 45.9836 34.4589 45.9836 28.8461Z" fill="#4285F4"/>
<path d="M28.3574 46.8729C33.3142 46.8729 37.4754 45.234 40.5149 42.4072L34.7217 37.9004C33.1714 38.9861 31.0907 39.744 28.3574 39.744C23.5026 39.744 19.3822 36.528 17.9133 32.0828L17.698 32.1011L12.0311 36.5054L11.957 36.7123C14.976 42.7348 21.1771 46.8729 28.3574 46.8729Z" fill="#34A853"/>
<path d="M17.9145 32.0828C17.527 30.9357 17.3027 29.7065 17.3027 28.4365C17.3027 27.1663 17.527 25.9373 17.8941 24.7901L17.8839 24.5458L12.1459 20.0708L11.9582 20.1605C10.714 22.6597 10 25.4662 10 28.4365C10 31.4068 10.714 34.2131 11.9582 36.7123L17.9145 32.0828Z" fill="#FBBC05"/>
<path d="M28.3574 17.1287C31.8047 17.1287 34.1301 18.6241 35.456 19.8738L40.6372 14.7935C37.4552 11.8232 33.3142 10 28.3574 10C21.1771 10 14.976 14.1379 11.957 20.1605L17.893 24.7901C19.3822 20.3449 23.5026 17.1287 28.3574 17.1287Z" fill="#EB4335"/>
</g>
<defs>
<clipPath id="clip0_468_15140">
<rect width="36" height="37" fill="white" transform="translate(10 10)"/>
</clipPath>
</defs>
</svg>
