<svg width="60" height="60" viewBox="0 0 60 60" fill="none" xmlns="http://www.w3.org/2000/svg">
<path fill-rule="evenodd" clip-rule="evenodd" d="M12.9091 30C12.9091 28.0946 13.2256 26.268 13.7904 24.5546L3.90436 17.0053C1.97763 20.9173 0.89209 25.3253 0.89209 30C0.89209 34.6706 1.97629 39.076 3.90036 42.9853L13.781 35.4213C13.2216 33.716 12.9091 31.896 12.9091 30Z" fill="#FBBC05"/>
<path fill-rule="evenodd" clip-rule="evenodd" d="M30.267 12.6666C34.4062 12.6666 38.1449 14.1333 41.0824 16.5333L49.6278 7.99996C44.4204 3.46663 37.7443 0.666626 30.267 0.666626C18.6586 0.666626 8.68174 7.30529 3.9043 17.0053L13.7903 24.5546C16.0682 17.64 22.5614 12.6666 30.267 12.6666Z" fill="#EB4335"/>
<path fill-rule="evenodd" clip-rule="evenodd" d="M30.267 47.3333C22.5614 47.3333 16.0682 42.3599 13.7903 35.4453L3.9043 42.9933C8.68174 52.6946 18.6586 59.3333 30.267 59.3333C37.4319 59.3333 44.2722 56.7893 49.4062 52.0226L40.0222 44.7679C37.3744 46.4359 34.0404 47.3333 30.267 47.3333Z" fill="#34A853"/>
<path fill-rule="evenodd" clip-rule="evenodd" d="M58.3069 30C58.3069 28.2666 58.0398 26.4 57.6392 24.6666H30.2671V36H46.0228C45.235 39.864 43.0906 42.8346 40.0223 44.768L49.4062 52.0226C54.7992 47.0173 58.3069 39.5613 58.3069 30Z" fill="#4285F4"/>
</svg>
