<svg width="17" height="18" viewBox="0 0 17 18" fill="none" xmlns="http://www.w3.org/2000/svg">
<path d="M14.9444 14.5428C16.2256 13.0546 17 11.1178 17 8.99999C17 6.88224 16.2256 4.94538 14.9444 3.45719L11.3126 7.089C11.6832 7.63361 11.9 8.29151 11.9 8.99999C11.9 9.70846 11.6832 10.3664 11.3126 10.911L14.9444 14.5428Z" fill="#1C274C"/>
<path d="M14.0428 15.4444C12.5546 16.7256 10.6178 17.5 8.50004 17.5C6.38229 17.5 4.44543 16.7256 2.95724 15.4444L6.58905 11.8126C7.13367 12.1833 7.79157 12.4 8.50004 12.4C9.20852 12.4 9.86642 12.1833 10.411 11.8126L14.0428 15.4444Z" fill="#1C274C"/>
<path d="M2.05564 14.5428L5.68746 10.911C5.31671 10.3664 5.1 9.70846 5.1 8.99999C5.1 8.29151 5.31671 7.63361 5.68746 7.089L2.05564 3.45719C0.774469 4.94538 0 6.88224 0 8.99999C0 11.1178 0.774469 13.0546 2.05564 14.5428Z" fill="#1C274C"/>
<path d="M8.50004 5.6C7.79157 5.6 7.13367 5.8167 6.58905 6.18745L2.95724 2.55564C4.44543 1.27447 6.38229 0.5 8.50004 0.5C10.6178 0.5 12.5546 1.27447 14.0428 2.55564L10.411 6.18745C9.86642 5.8167 9.20852 5.6 8.50004 5.6Z" fill="#1C274C"/>
</svg>
