<svg width="20" height="18" viewBox="0 0 20 18" fill="none" xmlns="http://www.w3.org/2000/svg">
<path d="M14.4587 16.8533C14.4587 17.2104 14.7558 17.5 15.1224 17.5C15.4889 17.5 15.7861 17.2104 15.7861 16.8533H14.4587ZM3.74494 13.3938C4.11148 13.3938 4.40863 13.1042 4.40863 12.747C4.40863 12.3898 4.11148 12.1003 3.74494 12.1003V13.3938ZM11.5091 16.8533C11.5091 17.2104 11.8062 17.5 12.1728 17.5C12.5393 17.5 12.8365 17.2104 12.8365 16.8533H11.5091ZM12.8365 14.3895C12.8365 14.0323 12.5393 13.7427 12.1728 13.7427C11.8062 13.7427 11.5091 14.0323 11.5091 14.3895H12.8365ZM17.6613 2.38482C17.3157 2.26575 16.9365 2.44222 16.8143 2.77897C16.6921 3.11573 16.8733 3.48525 17.2188 3.60431L17.6613 2.38482ZM17.2188 7.61126C16.8733 7.73036 16.6921 8.09983 16.8143 8.4366C16.9365 8.77336 17.3157 8.94983 17.6613 8.83074L17.2188 7.61126ZM15.0946 3.15022C14.7491 3.03114 14.3699 3.20762 14.2476 3.54437C14.1255 3.88112 14.3066 4.25064 14.6521 4.36971L15.0946 3.15022ZM14.6521 6.8459C14.3066 6.9649 14.1255 7.33446 14.2476 7.67123C14.3699 8.00799 14.7491 8.18446 15.0946 8.06537L14.6521 6.8459ZM8.80172 7.8913C7.07369 7.8913 5.67288 6.52627 5.67288 4.8424H4.34551C4.34551 7.24068 6.3406 9.18478 8.80172 9.18478V7.8913ZM5.67288 4.8424C5.67288 3.15852 7.07369 1.79348 8.80172 1.79348V0.5C6.3406 0.5 4.34551 2.44416 4.34551 4.8424H5.67288ZM8.80172 1.79348C10.5297 1.79348 11.9305 3.15852 11.9305 4.8424H13.2579C13.2579 2.44416 11.2628 0.5 8.80172 0.5V1.79348ZM11.9305 4.8424C11.9305 5.8921 11.3867 6.81827 10.5556 7.36772L11.3008 8.43807C12.4804 7.6582 13.2579 6.33888 13.2579 4.8424H11.9305ZM10.5556 7.36772C10.0556 7.69821 9.4528 7.8913 8.80172 7.8913V9.18478C9.72681 9.18478 10.5878 8.90936 11.3008 8.43807L10.5556 7.36772ZM15.7861 16.8533V14.8001H14.4587V16.8533H15.7861ZM10.4871 9.63648H7.66271V10.93H10.4871V9.63648ZM3.84394 6.82954L3.33346 5.08849L2.05717 5.44384L2.56765 7.18488L3.84394 6.82954ZM0.0515654 5.94488L1.5303 11.7087L2.81804 11.3951L1.33931 5.63116L0.0515654 5.94488ZM1.5303 11.7087C1.78435 12.6991 2.69743 13.3938 3.74494 13.3938V12.1003C3.30652 12.1003 2.92437 11.8095 2.81804 11.3951L1.5303 11.7087ZM1.69984 3.88771C0.594517 3.88771 -0.216516 4.89994 0.0515654 5.94488L1.33931 5.63116C1.28067 5.40261 1.45807 5.18119 1.69984 5.18119V3.88771ZM3.33346 5.08849C3.12507 4.37774 2.4584 3.88771 1.69984 3.88771V5.18119C1.86576 5.18119 2.01158 5.28837 2.05717 5.44384L3.33346 5.08849ZM7.66271 9.63648C5.88948 9.63648 4.33109 8.49102 3.84394 6.82954L2.56765 7.18488C3.2176 9.40162 5.29684 10.93 7.66271 10.93V9.63648ZM15.7861 14.8001C15.7861 11.9483 13.4137 9.63648 10.4871 9.63648V10.93C12.6806 10.93 14.4587 12.6627 14.4587 14.8001H15.7861ZM12.8365 16.8533V14.3895H11.5091V16.8533H12.8365ZM18.0339 4.10518C18.4429 4.5037 18.6726 5.0442 18.6726 5.60779H20C20 4.70115 19.6304 3.83165 18.9725 3.19055L18.0339 4.10518ZM18.6726 5.60779C18.6726 6.17137 18.4429 6.71184 18.0339 7.11041L18.9725 8.02499C19.6304 7.38389 20 6.51442 20 5.60779H18.6726ZM17.2188 3.60431C17.5226 3.70899 17.8018 3.87894 18.0339 4.10518L18.9725 3.19055C18.599 2.8266 18.1499 2.55318 17.6613 2.38482L17.2188 3.60431ZM18.0339 7.11041C17.8018 7.33659 17.5226 7.50659 17.2188 7.61126L17.6613 8.83074C18.1499 8.6624 18.599 8.38902 18.9725 8.02499L18.0339 7.11041ZM15.1559 4.67924C15.4086 4.9255 15.5506 5.25951 15.5506 5.60779H16.8779C16.8779 4.91646 16.5961 4.25345 16.0945 3.76461L15.1559 4.67924ZM15.5506 5.60779C15.5506 5.95607 15.4086 6.29008 15.1559 6.53634L16.0945 7.45097C16.5961 6.96212 16.8779 6.29912 16.8779 5.60779H15.5506ZM14.6521 4.36971C14.8399 4.4344 15.0124 4.53943 15.1559 4.67924L16.0945 3.76461C15.8097 3.48708 15.4672 3.27858 15.0946 3.15022L14.6521 4.36971ZM15.1559 6.53634C15.0124 6.67615 14.8399 6.78113 14.6521 6.8459L15.0946 8.06537C15.4672 7.93704 15.8097 7.72851 16.0945 7.45097L15.1559 6.53634Z" fill="#1C274C"/>
</svg>
