<svg width="22" height="22" viewBox="0 0 22 22" fill="none" xmlns="http://www.w3.org/2000/svg">
<g opacity="0.5">
<path fill-rule="evenodd" clip-rule="evenodd" d="M6.35633 3.66667H6.41668H15.6437C16.4563 3.66663 17.1564 3.66659 17.7172 3.74198C18.318 3.82276 18.8941 4.00494 19.3612 4.47213C19.8284 4.93933 20.0106 5.51532 20.0914 6.1162C20.1668 6.67689 20.1668 7.37704 20.1667 8.18964V13.8104C20.1668 14.6229 20.1668 15.3231 20.0914 15.8838C20.0106 16.4847 19.8284 17.0607 19.3612 17.5279C18.8941 17.9951 18.318 18.1772 17.7172 18.2581C17.1564 18.3334 16.4563 18.3334 15.6437 18.3333H6.35633C5.54373 18.3334 4.84356 18.3334 4.28287 18.2581C3.68199 18.1772 3.106 17.9951 2.6388 17.5279C2.17161 17.0607 1.98944 16.4847 1.90865 15.8838C1.83326 15.3231 1.8333 14.6229 1.83335 13.8103V8.25001V8.18966C1.8333 7.37706 1.83326 6.67689 1.90865 6.1162C1.98944 5.51532 2.17161 4.93933 2.6388 4.47213C3.106 4.00494 3.68199 3.82276 4.28287 3.74198C4.84356 3.66659 5.54373 3.66663 6.35633 3.66667ZM7.79168 9.16667C7.53855 9.16667 7.33335 9.37192 7.33335 9.62501C7.33335 9.8781 7.53855 10.0833 7.79168 10.0833C8.04481 10.0833 8.25001 9.8781 8.25001 9.62501C8.25001 9.37192 8.04481 9.16667 7.79168 9.16667ZM5.50001 9.62501C5.50001 8.35936 6.52603 7.33334 7.79168 7.33334C9.05733 7.33334 10.0833 8.35936 10.0833 9.62501C10.0833 10.8906 9.05733 11.9167 7.79168 11.9167C6.52603 11.9167 5.50001 10.8906 5.50001 9.62501ZM11.9167 7.33334C11.4104 7.33334 11 7.74375 11 8.25001C11 8.75626 11.4104 9.16667 11.9167 9.16667H15.5833C16.0896 9.16667 16.5 8.75626 16.5 8.25001C16.5 7.74375 16.0896 7.33334 15.5833 7.33334H11.9167ZM11 11C11 10.4937 11.4104 10.0833 11.9167 10.0833H15.5833C16.0896 10.0833 16.5 10.4937 16.5 11C16.5 11.5063 16.0896 11.9167 15.5833 11.9167H11.9167C11.4104 11.9167 11 11.5063 11 11ZM6.41668 12.8333C5.91042 12.8333 5.50001 13.2437 5.50001 13.75C5.50001 14.2563 5.91042 14.6667 6.41668 14.6667H15.5833C16.0896 14.6667 16.5 14.2563 16.5 13.75C16.5 13.2437 16.0896 12.8333 15.5833 12.8333H6.41668Z" fill="#1C274C"/>
</g>
</svg>
