<svg width="100" height="100" viewBox="0 0 100 100" fill="none" xmlns="http://www.w3.org/2000/svg">
<rect width="100" height="100" rx="50" fill="#00BF63" fill-opacity="0.1"/>
<path opacity="0.5" d="M29.1665 58.3333C29.1665 52.4408 29.1665 49.4946 30.9971 47.664C32.8277 45.8333 35.7739 45.8333 41.6665 45.8333H58.3332C64.2257 45.8333 67.1719 45.8333 69.0025 47.664C70.8332 49.4946 70.8332 52.4408 70.8332 58.3333C70.8332 64.2258 70.8332 67.1721 69.0025 69.0027C67.1719 70.8333 64.2257 70.8333 58.3332 70.8333H41.6665C35.7739 70.8333 32.8277 70.8333 30.9971 69.0027C29.1665 67.1721 29.1665 64.2258 29.1665 58.3333Z" fill="#00BF63"/>
<path d="M51.5625 54.1667C51.5625 53.3037 50.8629 52.6042 50 52.6042C49.1371 52.6042 48.4375 53.3037 48.4375 54.1667V62.5C48.4375 63.3629 49.1371 64.0625 50 64.0625C50.8629 64.0625 51.5625 63.3629 51.5625 62.5V54.1667Z" fill="#00BF63"/>
<path d="M39.0625 41.6667C39.0625 35.6261 43.9594 30.7292 50 30.7292C56.0406 30.7292 60.9375 35.6261 60.9375 41.6667V45.8408C62.1196 45.8519 63.1531 45.8792 64.0625 45.9471V41.6667C64.0625 33.9002 57.7665 27.6042 50 27.6042C42.2335 27.6042 35.9375 33.9002 35.9375 41.6667V45.9471C36.8469 45.8792 37.8805 45.8519 39.0625 45.8408V41.6667Z" fill="#00BF63"/>
</svg>
