<svg width="20" height="20" viewBox="0 0 20 20" fill="none" xmlns="http://www.w3.org/2000/svg">
<g clip-path="url(#clip0_374_2366)">
<path d="M0.625 10C0.625 11.8438 1.15625 13.5625 2.0625 15H17.9062C18.8125 13.5625 19.3438 11.8438 19.3438 10C19.3438 8.15625 18.8125 6.4375 17.9062 5H2.0625C1.15625 6.4375 0.625 8.15625 0.625 10Z" fill="#ED4C5C"/>
<path d="M17.9375 5C16.2813 2.375 13.3438 0.625 10 0.625C6.65625 0.625 3.71875 2.375 2.0625 5H17.9375ZM2.0625 15C3.71875 17.625 6.65625 19.375 10 19.375C13.3438 19.375 16.2813 17.625 17.9375 15H2.0625Z" fill="#2A5F9E"/>
<path d="M14.3438 11.1563V10.1875C14.375 10.0625 14.4687 9.96875 14.5625 9.9375V9.0625C14.4687 9.0625 14.4062 9.1875 14.4062 9.21875V8.84375C14.375 8.8125 14.3125 8.8125 14.25 8.84375V8.9375H14.0625V8.53125C14 8.53125 14 8.71875 13.875 8.71875C13.8125 8.71875 13.8125 8.625 13.8437 8.5625C13.875 8.5 13.9063 8.40625 13.875 8.28125C13.8438 8.375 13.75 8.4375 13.75 8.34375C13.7813 8.21875 13.875 8.1875 13.8125 8C13.7813 8.15625 13.6875 8.15625 13.7188 8.0625C13.75 7.96875 13.8125 7.90625 13.7188 7.75C13.6875 7.90625 13.625 7.90625 13.625 7.8125C13.625 7.65625 13.625 7.5 13.4375 7.4375C13.4375 7.4375 13.4375 7.28125 13.3438 7.28125C13.25 7.28125 13.25 7.4375 13.25 7.4375C13.0625 7.5 13.0625 7.65625 13.0625 7.8125C13.0625 7.90625 13 7.9375 12.9688 7.75C12.9062 7.90625 12.9688 7.9375 12.9688 8.0625C13 8.15625 12.9063 8.15625 12.875 8C12.8125 8.1875 12.9063 8.21875 12.9375 8.34375C12.9688 8.40625 12.8438 8.375 12.8125 8.25C12.75 8.40625 12.8125 8.5 12.8437 8.53125C12.875 8.59375 12.875 8.6875 12.8125 8.6875C12.6875 8.6875 12.6875 8.5 12.625 8.5V9.25H11.1563V8.59375C11.0625 8.625 11.0312 8.71875 11.0312 8.71875V8.84375H10.9375C10.9375 8.84375 10.875 8.84375 10.875 8.71875C10.875 8.59375 10.9063 8.53125 11 8.53125V8.28125C11 8.28125 10.7812 8.3125 10.7812 8.5625V8.34375C10.7187 8.34375 10.7187 8.4375 10.7187 8.65625H10.6562V8.4375C10.6562 8.3125 10.7812 8.3125 10.7812 8.21875C10.7812 8.21875 10.8125 8.0625 10.75 8C10.6875 8.1875 10.625 8.15625 10.625 8.0625C10.625 8 10.6875 7.9375 10.7812 7.75C10.8125 7.6875 10.7813 7.53125 10.75 7.46875C10.7188 7.625 10.7187 7.6875 10.6562 7.6875C10.625 7.6875 10.5938 7.65625 10.5938 7.59375C10.5938 7.5 10.6563 7.46875 10.6875 7.375C10.7188 7.28125 10.6875 7.1875 10.6562 7.125C10.625 7.28125 10.625 7.3125 10.5938 7.3125C10.4688 7.28125 10.5937 7.09375 10.625 7.03125C10.6563 6.9375 10.5938 6.875 10.5938 6.875C10.5625 7 10.5312 7 10.5 7C10.4375 7 10.4688 6.90625 10.5313 6.84375C10.5625 6.8125 10.5625 6.75 10.5313 6.6875C10.5 6.78125 10.4063 6.78125 10.4375 6.71875L10.4688 6.53125H10.375V6.125H10.25C10.25 6.03125 10.1875 5.9375 10.0625 5.9375C9.9375 5.9375 9.90625 6.0625 9.875 6.125H9.6875V6.53125H9.59375L9.625 6.75C9.625 6.8125 9.5625 6.8125 9.53125 6.71875C9.5 6.78125 9.46875 6.84375 9.53125 6.875C9.59375 6.9375 9.59375 7.03125 9.5625 7.03125C9.53125 7.03125 9.5 7.03125 9.46875 6.90625C9.46875 6.90625 9.40625 7 9.4375 7.0625C9.46875 7.09375 9.59375 7.28125 9.46875 7.34375C9.40625 7.34375 9.40625 7.28125 9.40625 7.15625C9.34375 7.21875 9.3125 7.3125 9.375 7.40625C9.40625 7.5 9.46875 7.53125 9.46875 7.625C9.46875 7.6875 9.4375 7.71875 9.40625 7.71875C9.34375 7.71875 9.3125 7.65625 9.3125 7.5C9.28125 7.5625 9.25 7.71875 9.28125 7.78125C9.375 7.9375 9.4375 8 9.4375 8.09375C9.4375 8.15625 9.34375 8.21875 9.3125 8.03125C9.28125 8.09375 9.28125 8.25 9.28125 8.25C9.28125 8.34375 9.40625 8.34375 9.40625 8.46875V8.71875H9.34375C9.34375 8.5 9.34375 8.40625 9.25 8.40625V8.625C9.25 8.375 9.03125 8.34375 9.03125 8.34375V8.59375C9.125 8.59375 9.15625 8.65625 9.15625 8.78125C9.15625 8.90625 9.09375 8.90625 9.09375 8.90625H8.96875V8.78125C8.96875 8.78125 8.9375 8.6875 8.84375 8.65625V9.3125H7.40625V8.5625C7.34375 8.5625 7.34375 8.75 7.21875 8.75C7.15625 8.75 7.15625 8.65625 7.1875 8.59375C7.21875 8.53125 7.25 8.4375 7.21875 8.3125C7.1875 8.4375 7.09375 8.46875 7.09375 8.40625C7.125 8.28125 7.21875 8.25 7.15625 8.0625C7.125 8.21875 7.03125 8.21875 7.0625 8.125C7.09375 8.03125 7.15625 7.96875 7.0625 7.8125C7.03125 7.96875 6.96875 7.96875 6.96875 7.875C6.96875 7.71875 6.96875 7.5625 6.78125 7.5C6.78125 7.5 6.78125 7.34375 6.6875 7.34375C6.59375 7.34375 6.5625 7.4375 6.5625 7.4375C6.375 7.5 6.375 7.65625 6.375 7.8125C6.375 7.90625 6.3125 7.9375 6.28125 7.75C6.21875 7.90625 6.28125 7.9375 6.28125 8.0625C6.3125 8.15625 6.21875 8.15625 6.1875 8C6.125 8.1875 6.21875 8.21875 6.25 8.34375C6.28125 8.40625 6.15625 8.375 6.125 8.25C6.0625 8.40625 6.125 8.5 6.15625 8.53125C6.1875 8.59375 6.1875 8.6875 6.125 8.6875C6 8.6875 6 8.5 5.9375 8.5V8.90625H5.78125V8.8125C5.71875 8.78125 5.65625 8.78125 5.625 8.8125V9.1875C5.625 9.1875 5.5625 9.03125 5.46875 9.03125V9.9375C5.53125 9.96875 5.65625 10.0625 5.6875 10.1875V11.1563C5.65625 11.25 5.5625 11.375 5.5 11.4062H14.5938C14.4688 11.375 14.375 11.2813 14.3438 11.1563Z" fill="#E2E2E2"/>
<path d="M15.5313 13.1562V12.5625H15.2188V12.0625H14.9375V11.6875H14.7813V11.4062H5.21875V11.6875H5.0625V12.0625H4.78125V12.5625H4.46875V13.1562H4.1875V13.75H15.8125V13.1562H15.5313Z" fill="white"/>
<path d="M7.125 11.4062C7.0625 11.375 6.9375 11.2813 6.9375 11.1562V10.125L7.03125 9.96875H7.0625V9.65625C7 9.6875 6.96875 9.71875 6.90625 9.75C6.90625 9.71875 6.875 9.6875 6.875 9.65625C6.90625 9.625 7.03125 9.46875 7.0625 9.40625V9.15625C7.03125 9.15625 7 9.1875 6.96875 9.1875C7.03125 9.125 7.0625 9.0625 7.0625 9V8.75C7 8.75 6.90625 8.8125 6.875 8.90625C6.875 8.84375 6.84375 8.78125 6.8125 8.71875C6.84375 8.6875 6.9375 8.59375 6.9375 8.53125V8.375C6.875 8.375 6.84375 8.40625 6.78125 8.46875C6.78125 8.4375 6.78125 8.4375 6.75 8.40625L6.84375 8.28125V8.125C6.8125 8.125 6.78125 8.15625 6.75 8.1875C6.75 8.15625 6.71875 8.125 6.71875 8.09375L6.75 8V7.875C6.71875 7.875 6.71875 7.875 6.6875 7.90625C6.6875 7.875 6.65625 7.84375 6.65625 7.84375H6.6875L6.78125 7.78125V7.6875C6.75 7.6875 6.75 7.6875 6.71875 7.71875C6.6875 7.65625 6.65625 7.625 6.59375 7.59375C6.53125 7.625 6.5 7.65625 6.46875 7.71875C6.4375 7.6875 6.4375 7.6875 6.40625 7.6875V7.78125L6.5 7.84375H6.5625C6.5625 7.875 6.53125 7.875 6.53125 7.90625C6.5 7.875 6.5 7.875 6.46875 7.875V8L6.5 8.09375C6.5 8.125 6.46875 8.125 6.46875 8.15625C6.4375 8.09375 6.40625 8.09375 6.375 8.09375V8.25L6.46875 8.375C6.46875 8.40625 6.46875 8.40625 6.4375 8.4375C6.40625 8.375 6.34375 8.34375 6.28125 8.34375V8.5C6.28125 8.5625 6.375 8.65625 6.40625 8.6875C6.375 8.75 6.375 8.8125 6.34375 8.875C6.28125 8.78125 6.21875 8.71875 6.15625 8.71875V8.96875C6.15625 9 6.21875 9.09375 6.25 9.15625C6.21875 9.125 6.1875 9.125 6.15625 9.125V9.375C6.1875 9.4375 6.28125 9.5625 6.34375 9.59375C6.34375 9.625 6.3125 9.65625 6.3125 9.6875C6.28125 9.71875 6.25 9.6875 6.1875 9.6875V10L6.28125 10.1562V11.1875C6.28125 11.2812 6.15625 11.375 6.09375 11.4375H6.25V13.75H6.96875V11.4062H7.125ZM10.5313 8.84375V8.53125C10.4063 8.5625 10.3438 8.65625 10.3125 8.71875C10.3125 8.65625 10.2813 8.59375 10.25 8.53125C10.2813 8.40625 10.3125 8.34375 10.375 8.28125H10.4063V8C10.3125 8.03125 10.25 8.09375 10.2188 8.15625C10.2188 8.125 10.1875 8.03125 10.1563 7.96875L10.25 7.8125H10.375V7.53125C10.2813 7.5625 10.2188 7.625 10.2188 7.6875C10.2188 7.65625 10.1875 7.5625 10.1563 7.5L10.3125 7.375V7.1875C10.25 7.21875 10.1563 7.21875 10.1563 7.34375C10.1563 7.28125 10.125 7.21875 10.125 7.1875L10.2813 7.0625V6.875C10.2188 6.875 10.1563 6.90625 10.1563 6.96875C10.1563 6.9375 10.125 6.90625 10.125 6.875L10.2188 6.8125V6.65625C10.1875 6.65625 10.125 6.6875 10.125 6.75C10.125 6.65625 10.0937 6.65625 10.0312 6.625C10 6.65625 9.96875 6.65625 9.9375 6.75C9.9375 6.6875 9.875 6.6875 9.84375 6.65625V6.8125L9.9375 6.875C9.9375 6.90625 9.90625 6.9375 9.90625 6.96875C9.90625 6.875 9.84375 6.875 9.78125 6.875V7.03125L9.9375 7.15625C9.90625 7.1875 9.90625 7.25 9.90625 7.3125C9.90625 7.1875 9.8125 7.1875 9.75 7.15625V7.375L9.875 7.5C9.84375 7.5625 9.8125 7.65625 9.8125 7.6875C9.78125 7.625 9.71875 7.5625 9.65625 7.53125V7.8125H9.6875L9.78125 7.96875C9.75 8.03125 9.71875 8.09375 9.71875 8.15625C9.6875 8.09375 9.625 8.03125 9.53125 8V8.28125H9.5625C9.625 8.3125 9.6875 8.40625 9.6875 8.53125V8.6875C9.65625 8.625 9.5625 8.53125 9.46875 8.5V8.8125H9.53125C9.625 8.9375 9.65625 9.125 9.65625 9.25L9.5625 9.15625V9.46875H9.875C9.8125 9.5625 9.78125 9.65625 9.78125 9.78125C9.6875 9.75 9.6875 9.71875 9.59375 9.6875V10L9.65625 10.0937V11.1875C9.65625 11.2812 9.53125 11.375 9.46875 11.4375H9.625V13.75H10.3437V11.4062H10.5C10.4375 11.375 10.3125 11.2813 10.3125 11.1562V10.0625L10.375 9.96875V9.65625C10.25 9.6875 10.25 9.71875 10.2188 9.8125C10.2188 9.71875 10.1875 9.59375 10.125 9.5H10.4375V9.1875C10.4063 9.21875 10.375 9.21875 10.3437 9.25C10.3437 9.09375 10.375 8.9375 10.4688 8.8125C10.5 8.84375 10.5313 8.84375 10.5313 8.84375ZM13.875 11.4062C13.8125 11.375 13.6875 11.2813 13.6875 11.1562V10.125L13.7813 9.96875H13.8125V9.65625C13.75 9.6875 13.7188 9.71875 13.6563 9.71875C13.6563 9.6875 13.625 9.65625 13.625 9.625C13.6563 9.5625 13.7813 9.46875 13.8125 9.40625V9.15625C13.7813 9.15625 13.75 9.1875 13.7188 9.1875C13.7813 9.125 13.8125 9.03125 13.8125 9V8.75C13.75 8.75 13.6563 8.8125 13.625 8.90625C13.625 8.84375 13.5938 8.78125 13.5625 8.71875C13.5938 8.6875 13.6875 8.59375 13.6875 8.53125V8.375C13.625 8.375 13.5938 8.40625 13.5313 8.46875C13.5313 8.4375 13.5313 8.4375 13.5 8.40625L13.5938 8.28125V8.125C13.5625 8.125 13.5313 8.15625 13.5 8.1875C13.5 8.15625 13.4688 8.125 13.4688 8.125L13.5 8.03125V7.90625C13.4688 7.90625 13.4688 7.90625 13.4375 7.9375C13.4375 7.90625 13.4063 7.875 13.4063 7.875H13.4375L13.5313 7.8125V7.71875C13.5 7.71875 13.5 7.71875 13.4688 7.75C13.4375 7.6875 13.4063 7.65625 13.3438 7.625C13.2813 7.65625 13.25 7.6875 13.2188 7.75C13.1875 7.71875 13.1875 7.71875 13.1563 7.71875V7.8125L13.25 7.875H13.2813C13.2813 7.90625 13.25 7.90625 13.25 7.9375C13.2188 7.90625 13.2188 7.90625 13.1875 7.90625V8.03125L13.2188 8.125C13.1875 8.15625 13.1875 8.15625 13.1875 8.21875C13.1563 8.15625 13.125 8.15625 13.0938 8.15625V8.3125L13.1875 8.4375C13.1875 8.46875 13.1875 8.46875 13.1563 8.5C13.125 8.4375 13.0938 8.4375 13.0313 8.40625V8.5625C13.0313 8.625 13.125 8.71875 13.1563 8.75C13.125 8.8125 13.125 8.875 13.0938 8.9375C13.0313 8.84375 12.9688 8.78125 12.9063 8.78125V9.03125C12.9063 9.0625 12.9688 9.15625 13 9.21875C12.9688 9.1875 12.9375 9.1875 12.9063 9.1875V9.4375C12.9375 9.5 13.0625 9.625 13.0938 9.6875C13.0938 9.71875 13.0625 9.75 13.0625 9.78125C13.0313 9.75 12.9688 9.71875 12.9063 9.6875V10H12.9375L13.0313 10.1562V11.1875C13.0313 11.2812 12.9063 11.375 12.8438 11.4375H13V13.75H13.7188V11.4062H13.875Z" fill="white"/>
</g>
<defs>
<clipPath id="clip0_374_2366">
<rect width="20" height="20" fill="white"/>
</clipPath>
</defs>
</svg>
