<svg width="100" height="100" viewBox="0 0 100 100" fill="none" xmlns="http://www.w3.org/2000/svg">
<rect width="100" height="100" rx="50" fill="#00BF63" fill-opacity="0.1"/>
<path opacity="0.5" d="M58.7295 29.1667H41.2712C33.6878 29.1667 29.167 33.6876 29.167 41.2709V58.7084C29.167 66.3126 33.6878 70.8334 41.2712 70.8334H58.7087C66.292 70.8334 70.8128 66.3126 70.8128 58.7293V41.2709C70.8337 33.6876 66.3128 29.1667 58.7295 29.1667ZM60.417 61.3959C56.8545 61.3959 53.5212 59.8542 50.8545 57.0001C47.8337 59.7292 43.8962 61.3959 39.5837 61.3959C38.7295 61.3959 38.0212 60.6876 38.0212 59.8334C38.0212 58.9792 38.7295 58.2709 39.5837 58.2709C46.8128 58.2709 52.792 52.5417 53.5628 45.2084H50.0003H39.6045C38.7503 45.2084 38.042 44.5001 38.042 43.6459C38.042 42.7917 38.7503 42.1042 39.6045 42.1042H48.4378V40.1667C48.4378 39.3126 49.1462 38.6042 50.0003 38.6042C50.8545 38.6042 51.5628 39.3126 51.5628 40.1667V42.1042H55.0837C55.1253 42.1042 55.167 42.0834 55.2087 42.0834C55.2503 42.0834 55.292 42.1042 55.3337 42.1042H60.3962C61.2503 42.1042 61.9587 42.8126 61.9587 43.6667C61.9587 44.5209 61.2503 45.2292 60.3962 45.2292H56.6878C56.3753 48.7917 55.042 52.0626 53.0003 54.7293C55.0837 57.0418 57.6878 58.2917 60.417 58.2917C61.2712 58.2917 61.9795 59.0001 61.9795 59.8542C61.9795 60.7084 61.2712 61.3959 60.417 61.3959Z" fill="#00BF63"/>
</svg>
