<svg width="22" height="22" viewBox="0 0 22 22" fill="none" xmlns="http://www.w3.org/2000/svg">
<path opacity="0.5" d="M14.8408 1.83334H7.15918C3.82251 1.83334 1.83334 3.82251 1.83334 7.15918V14.8317C1.83334 18.1775 3.82251 20.1667 7.15918 20.1667H14.8317C18.1683 20.1667 20.1575 18.1775 20.1575 14.8408V7.15918C20.1667 3.82251 18.1775 1.83334 14.8408 1.83334ZM15.5833 16.0142C14.0158 16.0142 12.5492 15.3358 11.3758 14.08C10.0467 15.2808 8.31418 16.0142 6.41668 16.0142C6.04084 16.0142 5.72918 15.7025 5.72918 15.3267C5.72918 14.9508 6.04084 14.6392 6.41668 14.6392C9.59751 14.6392 12.2283 12.1183 12.5675 8.89168H11H6.42584C6.05001 8.89168 5.73834 8.58001 5.73834 8.20418C5.73834 7.82834 6.05001 7.52584 6.42584 7.52584H10.3125V6.67334C10.3125 6.29751 10.6242 5.98584 11 5.98584C11.3758 5.98584 11.6875 6.29751 11.6875 6.67334V7.52584H13.2367C13.255 7.52584 13.2733 7.51668 13.2917 7.51668C13.31 7.51668 13.3283 7.52584 13.3467 7.52584H15.5742C15.95 7.52584 16.2617 7.83751 16.2617 8.21334C16.2617 8.58918 15.95 8.90084 15.5742 8.90084H13.9425C13.805 10.4683 13.2183 11.9075 12.32 13.0808C13.2367 14.0983 14.3825 14.6483 15.5833 14.6483C15.9592 14.6483 16.2708 14.96 16.2708 15.3358C16.2708 15.7117 15.9592 16.0142 15.5833 16.0142Z" fill="#1C274C"/>
</svg>
