<svg width="25" height="25" viewBox="0 0 25 25" fill="none" xmlns="http://www.w3.org/2000/svg">
<g clip-path="url(#clip0_906_791)">
<path d="M3.125 12.5H4.16667M12.5 3.125V4.16667M20.8333 12.5H21.875M5.83333 5.83333L6.5625 6.5625M19.1667 5.83333L18.4375 6.5625" stroke="#1C274C" stroke-width="2" stroke-linecap="round" stroke-linejoin="round"/>
<path d="M9.37533 16.6667C8.50082 16.0108 7.85484 15.0964 7.5289 14.053C7.20296 13.0096 7.21359 11.89 7.55927 10.853C7.90495 9.81596 8.56816 8.91397 9.45496 8.2748C10.3418 7.63563 11.4072 7.29169 12.5003 7.29169C13.5935 7.29169 14.6589 7.63563 15.5457 8.2748C16.4325 8.91397 17.0957 9.81596 17.4414 10.853C17.7871 11.89 17.7977 13.0096 17.4718 14.053C17.1458 15.0964 16.4998 16.0108 15.6253 16.6667C15.2186 17.0693 14.9124 17.5619 14.7314 18.1048C14.5505 18.6477 14.4999 19.2256 14.5837 19.7917C14.5837 20.3442 14.3642 20.8741 13.9735 21.2648C13.5828 21.6555 13.0529 21.875 12.5003 21.875C11.9478 21.875 11.4179 21.6555 11.0272 21.2648C10.6365 20.8741 10.417 20.3442 10.417 19.7917C10.5008 19.2256 10.4502 18.6477 10.2692 18.1048C10.0882 17.5619 9.78203 17.0693 9.37533 16.6667Z" stroke="#1C274C" stroke-width="2" stroke-linecap="round" stroke-linejoin="round"/>
<path d="M10.1045 17.7083H14.8962" stroke="#1C274C" stroke-width="2" stroke-linecap="round" stroke-linejoin="round"/>
</g>
<defs>
<clipPath id="clip0_906_791">
<rect width="25" height="25" fill="white"/>
</clipPath>
</defs>
</svg>
