<svg width="35" height="34" viewBox="0 0 35 34" fill="none" xmlns="http://www.w3.org/2000/svg">
<g clip-path="url(#clip0_12_283)">
<rect x="4" y="4" width="27" height="27" fill="white"/>
<path d="M29.4694 28.97H24.4316V21.0805C24.4316 19.1992 24.398 16.7774 21.8115 16.7774C19.1877 16.7774 18.7862 18.8272 18.7862 20.9436V28.9694H13.7486V12.7456H18.5847V14.9628H18.6524C19.1364 14.1352 19.8358 13.4544 20.6761 12.9929C21.5164 12.5314 22.4661 12.3064 23.4241 12.342C28.5301 12.342 29.4715 15.7005 29.4715 20.0698L29.4694 28.97ZM8.06422 10.528C6.44962 10.5283 5.14049 9.21954 5.14022 7.60494C5.13996 5.99034 6.44856 4.6812 8.06316 4.68094C9.67776 4.68054 10.9869 5.98927 10.9872 7.60388C10.9873 8.37924 10.6794 9.12291 10.1313 9.67128C9.58313 10.2197 8.83959 10.5278 8.06422 10.528ZM10.5831 28.9701H5.54012V12.7456H10.583V28.97L10.5831 28.9701ZM31.9808 0.00235248H3.00872C1.63942 -0.0130538 0.51649 1.08384 0.499756 2.45314V31.5461C0.515959 32.9161 1.63876 34.014 3.00858 33.9997H31.9808C33.3536 34.0167 34.4808 32.9187 34.4998 31.5461V2.45088C34.4802 1.07893 33.3529 -0.017835 31.9808 9.46654e-05" fill="#0A66C2"/>
</g>
<defs>
<clipPath id="clip0_12_283">
<rect width="34" height="34" fill="white" transform="translate(0.5)"/>
</clipPath>
</defs>
</svg>
