<svg width="25" height="25" viewBox="0 0 25 25" fill="none" xmlns="http://www.w3.org/2000/svg">
<g clip-path="url(#clip0_906_745)">
<path d="M20.3124 13.0958L12.4999 20.8333L4.68737 13.0958C4.17206 12.5944 3.76616 11.9917 3.49523 11.3257C3.2243 10.6596 3.0942 9.94474 3.11313 9.22597C3.13207 8.5072 3.29962 7.80014 3.60524 7.14931C3.91086 6.49848 4.34792 5.91797 4.88891 5.44435C5.42991 4.97074 6.0631 4.61426 6.74863 4.39738C7.43416 4.18049 8.15716 4.1079 8.87212 4.18417C9.58709 4.26044 10.2785 4.48391 10.9029 4.84053C11.5272 5.19714 12.071 5.67917 12.4999 6.25625C12.9306 5.68336 13.475 5.20554 14.0989 4.85271C14.7229 4.49989 15.4129 4.27964 16.1258 4.20575C16.8388 4.13187 17.5593 4.20594 18.2423 4.42333C18.9254 4.64072 19.5561 4.99674 20.0952 5.46913C20.6343 5.94152 21.0701 6.52009 21.3753 7.16864C21.6805 7.81719 21.8486 8.52175 21.8689 9.23824C21.8893 9.95472 21.7616 10.6677 21.4938 11.3326C21.2259 11.9974 20.8237 12.5998 20.3124 13.1021" stroke="#1C274C" stroke-width="2" stroke-linecap="round" stroke-linejoin="round"/>
<path d="M12.4998 6.25L9.06963 9.68021C8.87435 9.87555 8.76465 10.1405 8.76465 10.4167C8.76465 10.6929 8.87435 10.9578 9.06963 11.1531L9.63526 11.7188C10.354 12.4375 11.5207 12.4375 12.2394 11.7188L13.2811 10.6771C13.9027 10.0555 14.7458 9.70628 15.6248 9.70628C16.5039 9.70628 17.347 10.0555 17.9686 10.6771L20.3123 13.0208" stroke="#1C274C" stroke-width="2" stroke-linecap="round" stroke-linejoin="round"/>
<path d="M13.0205 16.1458L15.1038 18.2292" stroke="#1C274C" stroke-width="2" stroke-linecap="round" stroke-linejoin="round"/>
<path d="M15.625 13.5417L17.7083 15.625" stroke="#1C274C" stroke-width="2" stroke-linecap="round" stroke-linejoin="round"/>
</g>
<defs>
<clipPath id="clip0_906_745">
<rect width="25" height="25" fill="white"/>
</clipPath>
</defs>
</svg>
