<svg width="22" height="22" viewBox="0 0 22 22" fill="none" xmlns="http://www.w3.org/2000/svg">
<path opacity="0.5" d="M1.83334 14.6667C1.83334 12.074 1.83334 10.7776 2.6388 9.97213C3.44426 9.16666 4.74062 9.16666 7.33334 9.16666H14.6667C17.2594 9.16666 18.5557 9.16666 19.3612 9.97213C20.1667 10.7776 20.1667 12.074 20.1667 14.6667C20.1667 17.2594 20.1667 18.5557 19.3612 19.3612C18.5557 20.1667 17.2594 20.1667 14.6667 20.1667H7.33334C4.74062 20.1667 3.44426 20.1667 2.6388 19.3612C1.83334 18.5557 1.83334 17.2594 1.83334 14.6667Z" fill="#1C274C"/>
<path d="M11.6875 12.8333C11.6875 12.4537 11.3797 12.1458 11 12.1458C10.6203 12.1458 10.3125 12.4537 10.3125 12.8333V16.5C10.3125 16.8797 10.6203 17.1875 11 17.1875C11.3797 17.1875 11.6875 16.8797 11.6875 16.5V12.8333Z" fill="#1C274C"/>
<path d="M6.1875 7.33334C6.1875 4.67548 8.34213 2.52084 11 2.52084C13.6579 2.52084 15.8125 4.67548 15.8125 7.33334V9.16998C16.3326 9.17484 16.7874 9.18684 17.1875 9.21673V7.33334C17.1875 3.91608 14.4172 1.14584 11 1.14584C7.58274 1.14584 4.8125 3.91608 4.8125 7.33334V9.21673C5.21263 9.18684 5.66742 9.17484 6.1875 9.16998V7.33334Z" fill="#1C274C"/>
</svg>
