<svg width="17" height="18" viewBox="0 0 17 18" fill="none" xmlns="http://www.w3.org/2000/svg">
<path d="M8.51825 17.5C10.6495 17.4983 12.7026 16.6993 14.2728 15.2607C15.8429 13.8221 16.816 11.8483 17 9.72868L9.31387 9.72868L10.0036 10.4136C10.0718 10.4811 10.1259 10.5612 10.1629 10.6495C10.2 10.7379 10.2192 10.8327 10.2196 10.9284C10.2199 11.0242 10.2013 11.1191 10.1649 11.2076C10.1285 11.2962 10.0749 11.3768 10.0073 11.4447C9.93974 11.5127 9.85945 11.5667 9.77095 11.6037C9.68248 11.6407 9.58756 11.6599 9.49164 11.6602C9.39569 11.6606 9.30066 11.642 9.2119 11.6057C9.12318 11.5693 9.04248 11.5159 8.97445 11.4484L7.0292 9.51736L7.0292 9.51372C6.98894 9.47423 6.95343 9.43021 6.92336 9.38256C6.9035 9.3513 6.88639 9.3184 6.87226 9.28419C6.86861 9.2769 6.86496 9.27326 6.86496 9.26597C6.84949 9.22695 6.83726 9.18673 6.82847 9.14574L6.82847 9.13845C6.81803 9.09306 6.8131 9.04657 6.81387 9C6.8131 8.9534 6.81803 8.90691 6.82847 8.86156C6.83259 8.82385 6.84241 8.78697 6.85766 8.75225C6.86095 8.7395 6.86584 8.72726 6.87226 8.71582C6.87526 8.70704 6.87891 8.69852 6.88321 8.69032C6.89237 8.66689 6.90464 8.64485 6.91971 8.62474C6.9281 8.60816 6.93785 8.59231 6.94891 8.57737C6.97029 8.54589 6.99475 8.5166 7.0219 8.48993L7.0292 8.48264L8.97445 6.52979C9.04183 6.46192 9.12197 6.40799 9.21029 6.37109C9.29858 6.33422 9.39332 6.31509 9.48905 6.31483C9.58478 6.31509 9.67949 6.33422 9.76781 6.37109C9.85613 6.40799 9.93624 6.46192 10.0036 6.52979C10.0719 6.59672 10.1263 6.67655 10.1635 6.76457C10.2007 6.85263 10.22 6.94718 10.2203 7.04274C10.2207 7.13831 10.202 7.23296 10.1654 7.32128C10.1289 7.40959 10.0751 7.48979 10.0073 7.55723L9.29562 8.27133L17 8.27133C16.816 6.15172 15.8429 4.17792 14.2728 2.73929C12.7026 1.30067 10.6495 0.501712 8.51825 0.499999C6.26026 0.501712 4.09515 1.39769 2.49814 2.99127C0.901132 4.58485 0.00270175 6.74584 7.43093e-07 9C0.00270135 11.2541 0.901131 13.4151 2.49814 15.0087C4.09515 16.6023 6.26025 17.4983 8.51825 17.5Z" fill="#F05752"/>
</svg>
