<svg width="22" height="16" viewBox="0 0 22 16" fill="none" xmlns="http://www.w3.org/2000/svg">
<path fill-rule="evenodd" clip-rule="evenodd" d="M3.15218 2.31719C2.5029 2.84774 2.06806 3.7086 2.06806 5.05899V10.9411C2.06806 12.2914 2.5029 13.1523 3.15218 13.6829C3.81105 14.2212 4.80377 14.5123 6.1263 14.5123H15.6751C16.9976 14.5123 17.9903 14.2212 18.6493 13.6829C19.2985 13.1523 19.7333 12.2914 19.7333 10.9411V5.05899C19.7333 3.7086 19.2985 2.84774 18.6493 2.31719C17.9903 1.77879 16.9976 1.48774 15.6751 1.48774H6.1263C4.80377 1.48774 3.81105 1.77879 3.15218 2.31719ZM2.17755 1.39354C3.18971 0.566463 4.5842 0.227295 6.1263 0.227295H15.6751C17.2172 0.227295 18.6117 0.566463 19.6238 1.39354C20.6456 2.22847 21.1657 3.46835 21.1657 5.05899V10.9411C21.1657 12.5317 20.6456 13.7716 19.6238 14.6065C18.6117 15.4336 17.2172 15.7728 15.6751 15.7728H6.1263C4.5842 15.7728 3.18971 15.4336 2.17755 14.6065C1.15579 13.7716 0.635742 12.5317 0.635742 10.9411V5.05899C0.635742 3.46835 1.15579 2.22847 2.17755 1.39354Z" fill="#757575"/>
<path fill-rule="evenodd" clip-rule="evenodd" d="M17.9325 4.05998C18.1744 4.33539 18.1167 4.73119 17.8038 4.944L12.507 8.54575C11.5612 9.18875 10.2415 9.18875 9.29579 8.54575L3.99901 4.944C3.68603 4.73119 3.62837 4.33539 3.87021 4.05998C4.11205 3.78455 4.56181 3.73381 4.87479 3.94663L10.1715 7.54833C10.6014 7.84066 11.2014 7.84066 11.6311 7.54833L16.928 3.94663C17.241 3.73381 17.6907 3.78455 17.9325 4.05998Z" fill="#757575"/>
</svg>
