<svg width="19" height="19" viewBox="0 0 19 19" fill="none" xmlns="http://www.w3.org/2000/svg">
<path d="M14.7326 6.58187C14.7325 3.95822 12.4331 1.75581 9.5 1.75581C6.56694 1.75581 4.26753 3.95822 4.26744 6.58187C4.26744 9.36835 6.03003 12.5975 8.67489 13.7279C9.19763 13.9513 9.80237 13.9513 10.3251 13.7279C12.9699 12.5975 14.7326 9.36835 14.7326 6.58187ZM15.9884 6.58187C15.9884 9.77258 14.0102 13.5186 10.8186 14.8827C9.98078 15.2406 9.01955 15.2406 8.18172 14.8827C4.99012 13.5186 3.01163 9.77258 3.01163 6.58187C3.01172 3.1812 5.95989 0.5 9.5 0.5C13.0401 0.5 15.9883 3.1812 15.9884 6.58187Z" fill="#757575"/>
<path d="M10.5465 6.98837C10.5465 6.41039 10.078 5.94186 9.5 5.94186C8.92201 5.94186 8.45349 6.41039 8.45349 6.98837C8.45349 7.56637 8.922 8.03488 9.5 8.03488C10.078 8.03488 10.5465 7.56637 10.5465 6.98837ZM11.8023 6.98837C11.8023 8.25994 10.7716 9.2907 9.5 9.2907C8.22844 9.2907 7.19767 8.25994 7.19767 6.98837C7.19767 5.71684 8.22843 4.68605 9.5 4.68605C10.7716 4.68605 11.8023 5.71684 11.8023 6.98837Z" fill="#757575"/>
<path d="M0.5 14.1047C0.5 13.2684 0.937859 12.5433 1.5766 11.9649C1.83362 11.7321 2.23074 11.7517 2.46352 12.0087C2.69627 12.2657 2.67668 12.6628 2.41969 12.8956C1.94441 13.326 1.75581 13.738 1.75581 14.1047C1.75581 14.744 2.36197 15.532 3.83772 16.196C5.25452 16.8336 7.25588 17.2442 9.5 17.2442C11.7441 17.2442 13.7455 16.8336 15.1623 16.196C16.638 15.532 17.2442 14.744 17.2442 14.1047C17.2442 13.738 17.0556 13.326 16.5803 12.8956C16.3233 12.6628 16.3037 12.2657 16.5365 12.0087C16.7547 11.7678 17.1171 11.7354 17.3734 11.924L17.4234 11.9649L17.5405 12.0751C18.115 12.6344 18.5 13.3206 18.5 14.1047C18.5 15.546 17.232 16.6419 15.6777 17.3413C14.0644 18.0673 11.8796 18.5 9.5 18.5C7.12035 18.5 4.93561 18.0673 3.32231 17.3413C1.76796 16.6419 0.5 15.546 0.5 14.1047Z" fill="#757575"/>
</svg>
