<svg width="50" height="50" viewBox="0 0 50 50" fill="none" xmlns="http://www.w3.org/2000/svg">
<path d="M8.33334 42.7083V7.29167C8.33334 5 10.2083 3.125 12.5 3.125H37.5C39.7917 3.125 41.6667 5 41.6667 7.29167V42.7083C41.6667 45 39.7917 46.875 37.5 46.875H12.5C10.2083 46.875 8.33334 45 8.33334 42.7083Z" fill="#E38939"/>
<path d="M37.5 6.25H12.5C11.875 6.25 11.4583 6.66667 11.4583 7.29167V39.5833C11.4583 40.2083 11.875 40.625 12.5 40.625H37.5C38.125 40.625 38.5417 40.2083 38.5417 39.5833V7.29167C38.5417 6.66667 38.125 6.25 37.5 6.25Z" fill="#FFF3E0"/>
<path d="M25 45.3125C25.8629 45.3125 26.5625 44.6129 26.5625 43.75C26.5625 42.8871 25.8629 42.1875 25 42.1875C24.1371 42.1875 23.4375 42.8871 23.4375 43.75C23.4375 44.6129 24.1371 45.3125 25 45.3125Z" fill="#A6642A"/>
</svg>
