<svg width="50" height="50" viewBox="0 0 50 50" fill="none" xmlns="http://www.w3.org/2000/svg">
<path d="M41.0416 23.9585L40.2083 19.7918L27.0833 22.5002V8.3335H22.9166V21.146L8.43748 11.771L6.14581 15.3127L21.9791 25.521L9.79165 41.4585L13.125 43.9585L24.8958 28.5418L33.6458 41.771L37.1875 39.4793L28.4375 26.4585L41.0416 23.9585Z" fill="#CFD8DC"/>
<path d="M25 32.2918C29.0271 32.2918 32.2916 29.0272 32.2916 25.0002C32.2916 20.9731 29.0271 17.7085 25 17.7085C20.9729 17.7085 17.7083 20.9731 17.7083 25.0002C17.7083 29.0272 20.9729 32.2918 25 32.2918Z" fill="#3F51B5"/>
<path d="M25 13.5417C27.8764 13.5417 30.2083 11.2098 30.2083 8.33333C30.2083 5.45685 27.8764 3.125 25 3.125C22.1235 3.125 19.7916 5.45685 19.7916 8.33333C19.7916 11.2098 22.1235 13.5417 25 13.5417Z" fill="#00BCD4"/>
<path d="M40.625 27.0832C43.5014 27.0832 45.8333 24.7513 45.8333 21.8748C45.8333 18.9984 43.5014 16.6665 40.625 16.6665C37.7485 16.6665 35.4166 18.9984 35.4166 21.8748C35.4166 24.7513 37.7485 27.0832 40.625 27.0832Z" fill="#00BCD4"/>
<path d="M7.29165 18.7502C10.1681 18.7502 12.5 16.4183 12.5 13.5418C12.5 10.6653 10.1681 8.3335 7.29165 8.3335C4.41516 8.3335 2.08331 10.6653 2.08331 13.5418C2.08331 16.4183 4.41516 18.7502 7.29165 18.7502Z" fill="#00BCD4"/>
<path d="M11.4583 47.9167C14.3348 47.9167 16.6667 45.5848 16.6667 42.7083C16.6667 39.8319 14.3348 37.5 11.4583 37.5C8.58185 37.5 6.25 39.8319 6.25 42.7083C6.25 45.5848 8.58185 47.9167 11.4583 47.9167Z" fill="#00BCD4"/>
<path d="M35.4166 45.8332C38.2931 45.8332 40.625 43.5013 40.625 40.6248C40.625 37.7484 38.2931 35.4165 35.4166 35.4165C32.5402 35.4165 30.2083 37.7484 30.2083 40.6248C30.2083 43.5013 32.5402 45.8332 35.4166 45.8332Z" fill="#00BCD4"/>
</svg>
