<svg width="80" height="80" viewBox="0 0 80 80" fill="none" xmlns="http://www.w3.org/2000/svg">
<rect width="80" height="80" rx="40" fill="#FFCC00" fill-opacity="0.1"/>
<path opacity="0.5" d="M51.2485 35.0002V36.1737C51.2485 37.582 51.6505 38.9588 52.4037 40.1305L54.2493 43.0022C55.9353 45.625 54.6483 49.19 51.716 50.0195C44.0455 52.1892 35.9546 52.1892 28.2839 50.0195C25.3518 49.19 24.0647 45.625 25.7506 43.0022L27.5963 40.1305C28.3495 38.9588 28.7515 37.582 28.7515 36.1737V35.0002C28.7515 28.5568 33.7876 23.3335 40 23.3335C46.2123 23.3335 51.2485 28.5568 51.2485 35.0002Z" fill="#FFCC00"/>
<path d="M41.25 30C41.25 29.3097 40.6903 28.75 40 28.75C39.3097 28.75 38.75 29.3097 38.75 30V36.6667C38.75 37.357 39.3097 37.9167 40 37.9167C40.6903 37.9167 41.25 37.357 41.25 36.6667V30Z" fill="#FFCC00"/>
<path d="M32.0719 50.9082C33.1568 54.2502 36.2961 56.6662 39.9997 56.6662C43.7033 56.6662 46.8425 54.2502 47.9275 50.9082C42.685 51.892 37.3143 51.892 32.0719 50.9082Z" fill="#FFCC00"/>
</svg>
