<svg width="100" height="100" viewBox="0 0 100 100" fill="none" xmlns="http://www.w3.org/2000/svg">
<rect width="100" height="100" rx="50" fill="#00BF63" fill-opacity="0.1"/>
<path opacity="0.5" d="M64.0606 44.4054V45.7671C64.0606 47.4013 64.5631 48.9989 65.5046 50.3585L67.8117 53.6906C69.9192 56.7341 68.3104 60.8707 64.645 61.8333C55.0569 64.3508 44.9432 64.3508 35.3549 61.8333C31.6897 60.8707 30.0809 56.7341 32.1883 53.6906L34.4954 50.3585C35.4369 48.9989 35.9393 47.4013 35.9393 45.7671V44.4054C35.9393 36.9289 42.2345 30.8679 50 30.8679C57.7654 30.8679 64.0606 36.9289 64.0606 44.4054Z" fill="#00BF63"/>
<path d="M51.5625 38.6035C51.5625 37.8025 50.8629 37.1531 50 37.1531C49.1371 37.1531 48.4375 37.8025 48.4375 38.6035V46.3392C48.4375 47.1403 49.1371 47.7897 50 47.7897C50.8629 47.7897 51.5625 47.1403 51.5625 46.3392V38.6035Z" fill="#00BF63"/>
<path d="M40.0898 62.8645C41.446 66.7424 45.3701 69.5458 49.9995 69.5458C54.6291 69.5458 58.5531 66.7424 59.9093 62.8645C53.3562 64.0061 46.6428 64.0061 40.0898 62.8645Z" fill="#00BF63"/>
</svg>
