<svg width="14" height="14" viewBox="0 0 14 14" fill="none" xmlns="http://www.w3.org/2000/svg">
<path d="M11.7672 14H2.19389C1.61203 14 1.05401 13.7682 0.642579 13.3556C0.231141 12.943 0 12.3834 0 11.8V2.2C0 1.61652 0.231141 1.05694 0.642579 0.644368C1.05401 0.231784 1.61203 0 2.19389 0H6.98057C7.13925 0 7.29146 0.063216 7.40363 0.175736C7.51588 0.288256 7.5789 0.440872 7.5789 0.6C7.5789 0.759128 7.51588 0.911744 7.40363 1.02426C7.29146 1.13678 7.13925 1.2 6.98057 1.2H2.19389C1.92941 1.2 1.67577 1.30536 1.48875 1.4929C1.30174 1.68043 1.19667 1.93478 1.19667 2.2V11.8C1.19667 12.0652 1.30174 12.3196 1.48875 12.5071C1.67577 12.6946 1.92941 12.8 2.19389 12.8H11.7672C12.0317 12.8 12.2854 12.6946 12.4724 12.5071C12.6594 12.3196 12.7645 12.0652 12.7645 11.8V7C12.7645 6.84088 12.8275 6.68824 12.9397 6.57576C13.0519 6.4632 13.2041 6.4 13.3628 6.4C13.5215 6.4 13.6737 6.4632 13.7859 6.57576C13.8981 6.68824 13.9611 6.84088 13.9611 7V11.8C13.9611 12.3834 13.73 12.943 13.3185 13.3556C12.9071 13.7682 12.3491 14 11.7672 14Z" fill="#9E9E9E"/>
<path d="M13.3628 4.4C13.2048 4.39793 13.0537 4.33405 12.942 4.22198C12.8302 4.1099 12.7665 3.95849 12.7645 3.8V1.2H10.1717C10.013 1.2 9.86079 1.13678 9.74862 1.02426C9.63637 0.911744 9.57335 0.759128 9.57335 0.6C9.57335 0.440872 9.63637 0.288256 9.74862 0.175736C9.86079 0.063216 10.013 0 10.1717 0H13.3628C13.5208 0.002072 13.6719 0.0659519 13.7836 0.178024C13.8954 0.290104 13.9591 0.441512 13.9611 0.6V3.8C13.9591 3.95849 13.8954 4.1099 13.7836 4.22198C13.6719 4.33405 13.5208 4.39793 13.3628 4.4Z" fill="#9E9E9E"/>
<path d="M8.17723 6.4C8.02334 6.38816 7.88014 6.3164 7.77834 6.2C7.68022 6.09 7.62597 5.9476 7.62597 5.8C7.62597 5.6524 7.68022 5.51 7.77834 5.4L12.9639 0.199999C13.0187 0.141047 13.0848 0.0937669 13.1582 0.0609749C13.2316 0.0281829 13.3108 0.0105509 13.3911 0.00912688C13.4715 0.00770288 13.5512 0.0225269 13.6257 0.0527029C13.7003 0.0828789 13.7679 0.127791 13.8247 0.184767C13.8816 0.241743 13.9264 0.309607 13.9564 0.384319C13.9865 0.459031 14.0013 0.539055 13.9999 0.619615C13.9985 0.700183 13.9809 0.779631 13.9482 0.853231C13.9155 0.926831 13.8684 0.993071 13.8096 1.048L8.57612 6.2C8.47433 6.3164 8.33113 6.38816 8.17723 6.4Z" fill="#9E9E9E"/>
</svg>
