<svg width="20" height="18" viewBox="0 0 20 18" fill="none" xmlns="http://www.w3.org/2000/svg">
<path d="M13.5304 12.2995L13.9736 11.8589L12.9445 10.8239L12.5014 11.2646L13.5304 12.2995ZM15.4618 11.6743L17.3206 12.6848L18.0177 11.4026L16.1588 10.3921L15.4618 11.6743ZM17.6785 14.6932L16.2963 16.0675L17.3253 17.1024L18.7075 15.7281L17.6785 14.6932ZM15.4541 16.51C14.0434 16.6414 10.3937 16.5243 6.4421 12.5951L5.41307 13.63C9.72526 17.9177 13.8295 18.1271 15.5895 17.9631L15.4541 16.51ZM6.4421 12.5951C2.67543 8.8498 2.05148 5.69972 1.97381 4.3331L0.516732 4.41591C0.614475 6.13593 1.38707 9.6269 5.41307 13.63L6.4421 12.5951ZM7.78023 6.58195L8.05927 6.30448L7.03027 5.26957L6.75122 5.54704L7.78023 6.58195ZM8.2814 2.76758L7.05455 1.12874L5.88623 2.00336L7.11307 3.64222L8.2814 2.76758ZM2.92823 0.772033L1.40108 2.29051L2.43012 3.32543L3.95726 1.80694L2.92823 0.772033ZM7.26573 6.0645C6.75122 5.54704 6.75052 5.54773 6.74982 5.54843C6.74959 5.54867 6.74889 5.54938 6.74841 5.54985C6.74746 5.55082 6.74648 5.55179 6.7455 5.55279C6.74352 5.5548 6.74148 5.5569 6.73938 5.55908C6.73517 5.56344 6.73071 5.56817 6.72602 5.57327C6.71663 5.58346 6.70633 5.59511 6.69529 5.60828C6.67324 5.6346 6.64824 5.66701 6.62197 5.70578C6.56931 5.78351 6.51192 5.88628 6.46323 6.01553C6.36386 6.27925 6.31059 6.62689 6.37737 7.05738C6.50798 7.89926 7.08777 9.01131 8.57299 10.4881L9.60199 9.45313C8.21212 8.07114 7.88102 7.23012 7.81953 6.83364C7.79025 6.64495 7.8206 6.55208 7.82897 6.53009C7.83403 6.51649 7.83646 6.5151 7.83024 6.52439C7.82712 6.52894 7.82197 6.53605 7.81389 6.54563C7.8099 6.55043 7.80513 6.55586 7.79959 6.56191C7.79677 6.56494 7.79385 6.56812 7.79054 6.57145C7.78898 6.57313 7.78733 6.57483 7.78558 6.57658C7.7847 6.57746 7.78383 6.57834 7.78295 6.57924C7.78256 6.57969 7.78188 6.58037 7.78159 6.58059C7.78091 6.58127 7.78023 6.58195 7.26573 6.0645ZM8.57299 10.4881C10.0587 11.9653 11.1759 12.5402 12.0192 12.6696C12.4501 12.7357 12.7976 12.683 13.0611 12.5848C13.1903 12.5366 13.2933 12.4799 13.3711 12.4277C13.41 12.4017 13.4425 12.3769 13.4689 12.355C13.4821 12.3441 13.4938 12.3339 13.504 12.3245C13.5092 12.3198 13.5139 12.3155 13.5183 12.3113C13.5206 12.3091 13.5226 12.3071 13.5246 12.3052C13.5256 12.3042 13.5266 12.3032 13.5276 12.3022C13.5281 12.3017 13.5288 12.3011 13.529 12.3009C13.5297 12.3002 13.5304 12.2995 13.0159 11.782C12.5014 11.2646 12.5021 11.2639 12.5028 11.2632C12.5029 11.263 12.5036 11.2623 12.5041 11.2619C12.505 11.261 12.5059 11.2601 12.5067 11.2592C12.5086 11.2576 12.5102 11.2559 12.5119 11.2543C12.5153 11.2511 12.5185 11.2481 12.5215 11.2453C12.5276 11.2399 12.533 11.2351 12.5379 11.2312C12.5474 11.2232 12.5545 11.2182 12.5589 11.2152C12.5679 11.2091 12.5661 11.2118 12.5517 11.2172C12.5279 11.226 12.4324 11.2565 12.2405 11.227C11.8384 11.1654 10.9915 10.8346 9.60199 9.45313L8.57299 10.4881ZM7.05455 1.12874C6.06281 -0.196028 4.11264 -0.405651 2.92823 0.772033L3.95726 1.80694C4.47456 1.29257 5.39331 1.34493 5.88623 2.00336L7.05455 1.12874ZM1.97381 4.3331C1.95467 3.99636 2.10912 3.64459 2.43012 3.32543L1.40108 2.29051C0.878292 2.81033 0.467296 3.54618 0.516732 4.41591L1.97381 4.3331ZM16.2963 16.0675C16.0289 16.3334 15.7423 16.4831 15.4541 16.51L15.5895 17.9631C16.3043 17.8964 16.8899 17.5354 17.3253 17.1024L16.2963 16.0675ZM8.05927 6.30448C9.01714 5.35203 9.08836 3.84551 8.2814 2.76758L7.11307 3.64222C7.50566 4.16662 7.44728 4.85493 7.03027 5.26957L8.05927 6.30448ZM17.3206 12.6848C18.1163 13.1174 18.2403 14.1345 17.6785 14.6932L18.7075 15.7281C20.0115 14.4314 19.6094 12.2679 18.0177 11.4026L17.3206 12.6848ZM13.9736 11.8589C14.3472 11.4874 14.9486 11.3953 15.4618 11.6743L16.1588 10.3921C15.1045 9.81896 13.7961 9.97726 12.9445 10.8239L13.9736 11.8589Z" fill="#757575"/>
</svg>
