<svg width="80" height="80" viewBox="0 0 80 80" fill="none" xmlns="http://www.w3.org/2000/svg">
<rect width="80" height="80" rx="40" fill="#00BF63" fill-opacity="0.1"/>
<path opacity="0.5" d="M43.3333 26.6665H36.6666C30.3812 26.6665 27.2386 26.6665 25.2859 28.6191C23.3333 30.5718 23.3333 33.7144 23.3333 39.9998C23.3333 46.2852 23.3333 49.428 25.2859 51.3805C27.2386 53.3332 30.3812 53.3332 36.6666 53.3332H43.3333C49.6186 53.3332 52.7615 53.3332 54.714 51.3805C56.6666 49.428 56.6666 46.2852 56.6666 39.9998C56.6666 33.7144 56.6666 30.5718 54.714 28.6191C52.7615 26.6665 49.6186 26.6665 43.3333 26.6665Z" fill="#00BF63"/>
<path d="M42.0833 35C42.0833 34.3097 42.643 33.75 43.3333 33.75H51.6666C52.357 33.75 52.9166 34.3097 52.9166 35C52.9166 35.6903 52.357 36.25 51.6666 36.25H43.3333C42.643 36.25 42.0833 35.6903 42.0833 35Z" fill="#00BF63"/>
<path d="M43.75 40C43.75 39.3097 44.3097 38.75 45 38.75H51.6667C52.357 38.75 52.9167 39.3097 52.9167 40C52.9167 40.6903 52.357 41.25 51.6667 41.25H45C44.3097 41.25 43.75 40.6903 43.75 40Z" fill="#00BF63"/>
<path d="M45.4167 45C45.4167 44.3097 45.9764 43.75 46.6667 43.75H51.6667C52.357 43.75 52.9167 44.3097 52.9167 45C52.9167 45.6903 52.357 46.25 51.6667 46.25H46.6667C45.9764 46.25 45.4167 45.6903 45.4167 45Z" fill="#00BF63"/>
<path d="M35 38.3332C36.841 38.3332 38.3334 36.8408 38.3334 34.9998C38.3334 33.1589 36.841 31.6665 35 31.6665C33.1591 31.6665 31.6667 33.1589 31.6667 34.9998C31.6667 36.8408 33.1591 38.3332 35 38.3332Z" fill="#00BF63"/>
<path d="M35 48.3332C41.6666 48.3332 41.6666 46.8408 41.6666 44.9998C41.6666 43.1588 38.6818 41.6665 35 41.6665C31.3181 41.6665 28.3333 43.1588 28.3333 44.9998C28.3333 46.8408 28.3333 48.3332 35 48.3332Z" fill="#00BF63"/>
</svg>
