<svg width="138" height="130" viewBox="0 0 138 130" fill="none" xmlns="http://www.w3.org/2000/svg">
<path d="M1.77424 43.6437C0.666687 51.1862 0.666687 61.0677 0.666687 74.3959C0.666687 100.166 0.666687 113.051 8.67243 121.057C16.6782 129.063 29.5632 129.063 55.3333 129.063H82.6667C108.437 129.063 121.322 129.063 129.328 121.057C137.333 113.051 137.333 100.166 137.333 74.3959C137.333 61.0685 137.333 51.1874 136.226 43.6451C120.669 53.7572 110.698 60.2062 101.459 64.1777V67.5631C101.459 70.3936 99.1644 72.6881 96.3339 72.6881C93.541 72.6881 91.2698 70.4539 91.2102 67.6752C76.6532 71.5129 61.348 71.5128 46.7911 67.6749C46.7316 70.4538 44.4604 72.6881 41.6673 72.6881C38.8368 72.6881 36.5423 70.3936 36.5423 67.5631V64.1772C27.3033 60.2055 17.3319 53.7562 1.77424 43.6437Z" fill="#E0E0E0"/>
<path fill-rule="evenodd" clip-rule="evenodd" d="M59.306 0.937527L59.1665 0.937514C58.3909 0.937395 57.7871 0.937303 57.2159 0.971896C49.9696 1.41075 43.6243 5.98425 40.9164 12.7199C40.7018 13.2538 40.3486 14.3142 40.0967 15.0705L40.0701 15.1501C39.3656 17.0629 38.0935 18.7194 36.6207 19.9024C35.0663 19.9526 33.5817 20.0175 32.1625 20.1012C20.9288 20.764 13.7999 22.6075 8.67243 27.7349C7.00058 29.4068 5.67786 31.2914 4.63137 33.4618C5.0248 33.596 5.40815 33.7807 5.77261 34.0176C20.1246 43.3464 29.1418 49.1814 36.6343 52.9246C37.0884 50.5589 39.1691 48.7715 41.6673 48.7715C44.4977 48.7715 46.7923 51.066 46.7923 53.8965V57.0255C61.2751 61.3959 76.7261 61.396 91.2089 57.0258V53.8965C91.2089 51.066 93.5035 48.7715 96.3339 48.7715C98.8323 48.7715 100.913 50.5591 101.367 52.9251C108.86 49.1819 117.877 43.3468 132.23 34.0176C132.594 33.7811 132.976 33.5967 133.369 33.4625C132.322 31.2918 131 29.407 129.328 27.7349C124.2 22.6075 117.071 20.764 105.837 20.1012C104.49 20.0218 103.084 19.9593 101.615 19.9101C101.523 19.8347 101.43 19.7569 101.337 19.6767C99.6918 18.2556 98.4058 16.3816 97.7576 14.6239L97.7361 14.5594C97.4909 13.8236 97.3001 13.2508 97.0867 12.7199C94.3789 5.98425 88.0335 1.41075 80.7872 0.971896C80.216 0.937303 79.6123 0.937395 78.8366 0.937514L59.306 0.937527ZM88.2538 18.4697L88.2228 18.3964L88.1896 18.3137L88.1583 18.2321L88.1335 18.1641L88.1213 18.1299L88.0924 18.0463L88.0662 17.9692L88.0519 17.9263L88.0332 17.8693L88.0179 17.8212L88.0059 17.7823C87.7368 16.9759 87.6541 16.7365 87.5764 16.5432C86.3456 13.4815 83.4613 11.4026 80.1676 11.2031C79.9471 11.1898 79.6769 11.1875 78.6971 11.1875H59.306C58.3262 11.1875 58.056 11.1898 57.8356 11.2031C54.5423 11.4026 51.6585 13.4808 50.4273 16.5417L50.4092 16.5894L50.3548 16.7392C50.3095 16.8663 50.2543 17.0251 50.1906 17.2115C50.0777 17.5421 49.9509 17.9215 49.8223 18.3069L49.8099 18.3473L49.7946 18.3953L49.7759 18.4523L49.7616 18.4951L49.7354 18.5723L49.7064 18.656L49.6943 18.6902L49.6694 18.7582L49.6381 18.84L49.6048 18.9228L49.5763 18.9905L49.5719 19.0005C49.4767 19.2454 49.3759 19.4899 49.2696 19.7336C51.2078 19.7292 53.2275 19.7292 55.3334 19.7292H82.6667C84.7951 19.7292 86.8357 19.7292 88.7929 19.7337C88.5983 19.3161 88.4183 18.8944 88.2538 18.4697Z" fill="#E0E0E0"/>
</svg>
