<svg width="80" height="80" viewBox="0 0 80 80" fill="none" xmlns="http://www.w3.org/2000/svg">
<rect width="80" height="80" rx="40" fill="#AF52DE" fill-opacity="0.1"/>
<path opacity="0.5" d="M25 36.6668C25 30.3814 25 27.2387 26.9526 25.2861C28.9052 23.3335 32.0479 23.3335 38.3333 23.3335H41.6667C47.952 23.3335 51.0948 23.3335 53.0473 25.2861C55 27.2387 55 30.3814 55 36.6668V43.3335C55 49.6188 55 52.7617 53.0473 54.7142C51.0948 56.6668 47.952 56.6668 41.6667 56.6668H38.3333C32.0479 56.6668 28.9052 56.6668 26.9526 54.7142C25 52.7617 25 49.6188 25 43.3335V36.6668Z" fill="#AF52DE"/>
<path d="M47.5315 47.502C47.8232 47.2745 48.0877 47.01 48.6169 46.4808L55.2125 39.8851C55.3719 39.7258 55.2989 39.4511 55.0859 39.3771C54.3074 39.1071 53.2945 38.6 52.3472 37.6526C51.3999 36.7053 50.8927 35.6925 50.6227 34.914C50.5487 34.7009 50.274 34.6279 50.1147 34.7874L43.519 41.383C42.9899 41.9121 42.7254 42.1766 42.4979 42.4683C42.2295 42.8125 41.9994 43.1846 41.8117 43.5786C41.6525 43.9125 41.5342 44.2675 41.2977 44.9773L40.9919 45.8945L40.5057 47.3528L40.0499 48.7203C39.9335 49.0696 40.0244 49.4546 40.2847 49.7151C40.5452 49.9755 40.9302 50.0663 41.2795 49.95L42.647 49.4941L44.1054 49.008L45.0225 48.7021C45.7322 48.4656 46.0874 48.3473 46.4212 48.1881C46.8152 48.0005 47.1874 47.7703 47.5315 47.502Z" fill="#AF52DE"/>
<path d="M57.2775 37.8202C58.6853 36.4124 58.6853 34.13 57.2775 32.7223C55.8698 31.3146 53.5875 31.3146 52.1796 32.7223L51.9676 32.9344C51.763 33.139 51.6703 33.4248 51.7215 33.7096C51.7536 33.8888 51.8131 34.1507 51.9216 34.4633C52.1385 35.0884 52.548 35.909 53.3195 36.6803C54.0908 37.4518 54.9115 37.8613 55.5365 38.0782C55.8491 38.1867 56.111 38.2462 56.2901 38.2783C56.575 38.3295 56.8608 38.2368 57.0655 38.0322L57.2775 37.8202Z" fill="#AF52DE"/>
<path fill-rule="evenodd" clip-rule="evenodd" d="M32.0833 35C32.0833 34.3097 32.643 33.75 33.3333 33.75H44.1666C44.857 33.75 45.4166 34.3097 45.4166 35C45.4166 35.6903 44.857 36.25 44.1666 36.25H33.3333C32.643 36.25 32.0833 35.6903 32.0833 35ZM32.0833 41.6667C32.0833 40.9763 32.643 40.4167 33.3333 40.4167H38.3333C39.0236 40.4167 39.5833 40.9763 39.5833 41.6667C39.5833 42.357 39.0236 42.9167 38.3333 42.9167H33.3333C32.643 42.9167 32.0833 42.357 32.0833 41.6667ZM32.0833 48.3333C32.0833 47.643 32.643 47.0833 33.3333 47.0833H35.8333C36.5237 47.0833 37.0833 47.643 37.0833 48.3333C37.0833 49.0237 36.5237 49.5833 35.8333 49.5833H33.3333C32.643 49.5833 32.0833 49.0237 32.0833 48.3333Z" fill="#AF52DE"/>
</svg>
