<svg width="80" height="80" viewBox="0 0 80 80" fill="none" xmlns="http://www.w3.org/2000/svg">
<rect width="80" height="80" rx="40" fill="#007AFF" fill-opacity="0.1"/>
<path opacity="0.1" d="M51.6667 38.3333C51.6667 45.6972 45.6972 51.6667 38.3333 51.6667C30.9695 51.6667 25 45.6972 25 38.3333C25 30.9695 30.9695 25 38.3333 25C45.6972 25 51.6667 30.9695 51.6667 38.3333Z" fill="#007AFF"/>
<path d="M48.3333 48.3335L55 55.0002" stroke="#007AFF" stroke-width="3" stroke-linecap="round" stroke-linejoin="round"/>
<path d="M51.6667 38.3333C51.6667 45.6972 45.6972 51.6667 38.3333 51.6667C30.9695 51.6667 25 45.6972 25 38.3333C25 30.9695 30.9695 25 38.3333 25C45.6972 25 51.6667 30.9695 51.6667 38.3333Z" stroke="#007AFF" stroke-width="3"/>
</svg>
