<svg width="50" height="50" viewBox="0 0 50 50" fill="none" xmlns="http://www.w3.org/2000/svg">
<path d="M25 31.25C21.5625 31.25 18.75 28.4375 18.75 25C18.75 21.5625 21.5625 18.75 25 18.75V5.20831C14.0625 5.20831 5.20834 14.0625 5.20834 25C5.20834 35.9375 14.0625 44.7916 25 44.7916C29.5833 44.7916 33.8542 43.2291 37.2917 40.5208L28.9583 29.8958C27.8125 30.7291 26.4583 31.25 25 31.25Z" fill="#00BCD4"/>
<path d="M31.25 25H44.7917C44.7917 14.0625 35.9375 5.20831 25 5.20831V18.75C28.4375 18.75 31.25 21.5625 31.25 25Z" fill="#448AFF"/>
<path d="M44.7917 25H31.25C31.25 26.9792 30.3125 28.75 28.8542 29.8958L37.1875 40.5208C41.875 36.875 44.7917 31.25 44.7917 25Z" fill="#3F51B5"/>
</svg>
