<svg width="80" height="80" viewBox="0 0 80 80" fill="none" xmlns="http://www.w3.org/2000/svg">
<rect width="80" height="80" rx="40" fill="#32ADE6" fill-opacity="0.1"/>
<path opacity="0.5" d="M56.6667 40.0002C56.6667 49.2048 49.2047 56.6668 40 56.6668C30.7953 56.6668 23.3333 49.2048 23.3333 40.0002C23.3333 30.7954 30.7953 23.3335 40 23.3335C49.2047 23.3335 56.6667 30.7954 56.6667 40.0002Z" fill="#32ADE6"/>
<path d="M46.7172 34.9496C47.2053 35.4378 47.2053 36.2292 46.7172 36.7173L38.3838 45.0507C37.8957 45.5388 37.1043 45.5388 36.6161 45.0507L33.2828 41.7173C32.7946 41.2292 32.7946 40.4378 33.2828 39.9497C33.7709 39.4615 34.5624 39.4615 35.0506 39.9497L37.5 42.399L41.2247 38.6743L44.9495 34.9496C45.4377 34.4615 46.229 34.4615 46.7172 34.9496Z" fill="#32ADE6"/>
</svg>
