<svg width="17" height="18" viewBox="0 0 17 18" fill="none" xmlns="http://www.w3.org/2000/svg">
<path d="M8.5 15.8C4.74446 15.8 1.7 12.7556 1.7 9H0C0 13.6944 3.80558 17.5 8.5 17.5V15.8ZM8.5 2.2C12.2556 2.2 15.3 5.24446 15.3 9H17C17 4.30558 13.1944 0.5 8.5 0.5V2.2ZM1.7 9C1.7 7.12199 2.46019 5.42317 3.69168 4.19168L2.48959 2.98959C0.952323 4.52686 0 6.65302 0 9H1.7ZM3.69168 4.19168C4.92317 2.96019 6.62199 2.2 8.5 2.2V0.5C6.15302 0.5 4.02686 1.45232 2.48959 2.98959L3.69168 4.19168ZM2.48959 4.19168L13.3084 15.0104L14.5104 13.8084L3.69168 2.98959L2.48959 4.19168ZM15.3 9C15.3 10.878 14.5398 12.5768 13.3084 13.8084L14.5104 15.0104C16.0477 13.4731 17 11.3469 17 9H15.3ZM13.3084 13.8084C12.0768 15.0398 10.378 15.8 8.5 15.8V17.5C10.8469 17.5 12.9731 16.5477 14.5104 15.0104L13.3084 13.8084Z" fill="#1C274C"/>
</svg>
