<svg width="44" height="44" viewBox="0 0 44 44" fill="none" xmlns="http://www.w3.org/2000/svg">
<path fill-rule="evenodd" clip-rule="evenodd" d="M16.7033 2.6406C16.1675 3.09717 15.8996 3.32547 15.6135 3.51723C14.9577 3.95679 14.2212 4.26187 13.4466 4.41479C13.1087 4.4815 12.7579 4.5095 12.0562 4.56549C10.2931 4.70619 9.41161 4.77653 8.67615 5.0363C6.97512 5.63713 5.63713 6.97512 5.0363 8.67615C4.77653 9.41161 4.70619 10.2931 4.56549 12.0562C4.5095 12.7579 4.4815 13.1087 4.41479 13.4466C4.26187 14.2212 3.95679 14.9577 3.51723 15.6135C3.32547 15.8996 3.09718 16.1675 2.6406 16.7033C1.49344 18.0494 0.91983 18.7225 0.583474 19.4262C-0.194491 21.0539 -0.194491 22.9461 0.583474 24.5738C0.919832 25.2775 1.49342 25.9506 2.6406 27.2967C3.09713 27.8324 3.32548 28.1004 3.51723 28.3865C3.95679 29.0423 4.26187 29.7788 4.41479 30.5534C4.4815 30.8913 4.5095 31.2421 4.56549 31.9438C4.70619 33.7069 4.77653 34.5884 5.0363 35.3238C5.63713 37.0249 6.97512 38.3629 8.67615 38.9637C9.4116 39.2235 10.2931 39.2938 12.0562 39.4345C12.7579 39.4905 13.1087 39.5185 13.4466 39.5852C14.2212 39.7381 14.9577 40.0432 15.6135 40.4828C15.8996 40.6745 16.1675 40.9028 16.7033 41.3594C18.0494 42.5066 18.7225 43.0802 19.4262 43.4165C21.0539 44.1945 22.9461 44.1945 24.5738 43.4165C25.2775 43.0802 25.9506 42.5066 27.2967 41.3594C27.8325 40.9028 28.1004 40.6745 28.3865 40.4828C29.0423 40.0432 29.7788 39.7381 30.5534 39.5852C30.8913 39.5185 31.2421 39.4905 31.9438 39.4345C33.7069 39.2938 34.5884 39.2235 35.3238 38.9637C37.0249 38.3629 38.3629 37.0249 38.9637 35.3238C39.2235 34.5884 39.2938 33.7069 39.4345 31.9438C39.4905 31.2421 39.5185 30.8913 39.5852 30.5534C39.7381 29.7788 40.0432 29.0423 40.4828 28.3865C40.6745 28.1004 40.9028 27.8325 41.3594 27.2967C42.5066 25.9506 43.0802 25.2775 43.4165 24.5738C44.1945 22.9461 44.1945 21.0539 43.4165 19.4262C43.0802 18.7225 42.5066 18.0494 41.3594 16.7033C40.9028 16.1675 40.6745 15.8996 40.4828 15.6135C40.0432 14.9577 39.7381 14.2212 39.5852 13.4466C39.5185 13.1087 39.4905 12.7579 39.4345 12.0562C39.2938 10.2931 39.2235 9.4116 38.9637 8.67615C38.3629 6.97512 37.0249 5.63713 35.3238 5.0363C34.5884 4.77653 33.7069 4.70619 31.9438 4.56549C31.2421 4.5095 30.8913 4.4815 30.5534 4.41479C29.7788 4.26187 29.0423 3.95679 28.3865 3.51723C28.1004 3.32547 27.8325 3.09718 27.2967 2.6406C25.9506 1.49342 25.2775 0.919832 24.5738 0.583474C22.9461 -0.194491 21.0539 -0.194491 19.4262 0.583474C18.7225 0.91983 18.0494 1.49343 16.7033 2.6406ZM31.6217 17.2989C32.3209 16.5997 32.3209 15.466 31.6217 14.7668C30.9224 14.0675 29.7888 14.0675 29.0895 14.7668L18.419 25.4373L14.9104 21.9287C14.2112 21.2295 13.0775 21.2295 12.3783 21.9287C11.679 22.628 11.679 23.7616 12.3783 24.4609L17.1529 29.2355C17.8521 29.9347 18.9858 29.9347 19.6851 29.2355L31.6217 17.2989Z" fill="#E0E0E0"/>
</svg>
