<svg width="50" height="50" viewBox="0 0 50 50" fill="none" xmlns="http://www.w3.org/2000/svg">
<path d="M25 4.1665C13.5417 4.1665 4.16666 13.5415 4.16666 24.9998C4.16666 36.4582 13.5417 45.8332 25 45.8332C36.4583 45.8332 45.8333 36.4582 45.8333 24.9998C45.8333 13.5415 36.4583 4.1665 25 4.1665Z" fill="#7CB342"/>
<path d="M46.875 25C46.875 37.1875 36.9792 46.875 25 46.875C13.0208 46.875 3.125 37.1875 3.125 25C3.125 12.8125 12.8125 3.125 25 3.125C37.1875 3.125 46.875 12.8125 46.875 25ZM24.7917 35.1042C24.7917 34.6875 24.5833 34.4792 24.1667 34.2708C22.8125 33.8542 21.5625 33.8542 20.4167 32.7083C20.2083 32.2917 20.2083 31.875 20 31.3542C19.5833 30.9375 18.4375 30.7292 17.8125 30.5208H13.4375C12.8125 30.3125 12.2917 29.375 11.875 28.75C11.875 28.5417 11.875 28.125 11.4583 28.125C11.0417 27.9167 10.625 28.3333 10.1042 28.125C9.89583 27.9167 9.89583 27.7083 9.89583 27.5C9.89583 26.875 10.3125 26.1458 10.7292 25.7292C11.3542 25.3125 12.0833 25.9375 12.7083 25.9375C12.9167 25.9375 12.9167 25.9375 13.125 26.1458C13.75 26.3542 13.9583 27.1875 13.9583 27.9167V28.3333C13.9583 28.5417 14.1667 28.5417 14.375 28.5417C14.5833 27.3958 14.5833 26.3542 14.7917 25.2083C14.7917 23.8542 16.1458 22.6042 17.1875 22.1875C17.6042 21.9792 17.8125 22.3958 18.3333 22.1875C19.6875 21.7708 22.9167 20.4167 22.2917 18.6458C21.875 17.0833 20.5208 15.625 18.75 15.8333C18.3333 16.0417 18.125 16.25 17.7083 16.4583C17.0833 16.875 15.7292 18.2292 15.1042 18.2292C13.9583 18.0208 13.9583 16.4583 14.2708 15.8333C14.4792 15 16.4583 12.0833 17.8125 12.6042L18.6458 13.4375C19.0625 13.6458 19.7917 13.6458 20.4167 13.6458C20.625 13.6458 20.8333 13.6458 21.0417 13.4375C21.25 13.2292 21.25 13.2292 21.25 13.0208C21.25 12.3958 20.625 11.6667 20.2083 11.25C19.7917 10.8333 19.0625 10.4167 18.4375 10.1042C16.25 9.47917 12.7083 10.3125 11.0417 11.875C9.375 13.4375 8.02083 16.0417 7.08333 18.2292C6.66667 19.5833 6.25 21.25 6.04167 22.8125C5.83333 23.8542 5.625 24.7917 6.25 25.8333C6.875 27.1875 8.22917 28.4375 9.58333 29.375C10.4167 30 12.1875 30 13.125 31.1458C13.75 31.9792 13.5417 33.125 13.5417 34.1667C13.5417 35.5208 14.375 36.5625 14.8958 37.7083C15.1042 38.3333 15.3125 39.2708 15.5208 39.8958C15.5208 40.1042 15.7292 41.4583 15.7292 41.6667C17.0833 42.2917 18.125 43.0208 19.6875 43.4375C19.8958 43.4375 20.7292 42.0833 20.7292 41.875C21.3542 41.25 21.875 40.3125 22.5 39.8958C22.9167 39.6875 23.3333 39.4792 23.8542 39.0625C24.2708 38.6458 24.4792 37.7083 24.6875 37.0833C24.7917 36.5625 25 35.7292 24.7917 35.1042ZM25.2083 14.8958C25.4167 14.8958 25.625 14.6875 26.0417 14.4792C26.6667 14.0625 27.3958 13.3333 28.0208 12.9167C28.6458 12.5 29.375 11.7708 29.7917 11.3542C30.4167 10.9375 30.9375 10 31.1458 9.375C31.3542 8.95833 31.9792 8.02083 31.7708 7.39583C31.5625 6.97917 30.4167 6.77083 30 6.5625C28.2292 6.14583 26.7708 5.9375 25 5.9375C24.375 5.9375 23.4375 6.14583 23.2292 6.77083C23.0208 7.91667 23.8542 7.60417 24.7917 7.91667C24.7917 7.91667 25 9.6875 25 9.89583C25.2083 10.9375 24.5833 11.6667 24.5833 12.7083C24.5833 13.3333 24.5833 14.4792 25 14.8958H25.2083ZM43.5417 30.2083C43.75 29.7917 43.75 29.0625 43.9583 28.6458C44.1667 27.6042 44.1667 26.4583 44.1667 25.4167C44.1667 23.2292 43.9583 21.0417 43.3333 19.0625C42.9167 18.4375 42.7083 17.7083 42.5 17.0833C42.0833 15.9375 41.4583 14.8958 40.5208 14.0625C39.6875 12.9167 38.5417 9.89583 36.5625 10.8333C35.9375 11.0417 35.5208 11.875 35 12.3958C34.5833 13.0208 34.1667 13.75 33.6458 14.375C33.4375 14.5833 33.2292 15 33.4375 15.2083C33.4375 15.4167 33.6458 15.4167 33.8542 15.4167C34.2708 15.625 34.4792 15.625 34.8958 15.8333C35.1042 15.8333 35.3125 16.0417 35.1042 16.25C35.1042 16.25 35.1042 16.4583 34.8958 16.4583C33.8542 17.6042 32.7083 18.4375 31.6667 19.4792C31.4583 19.6875 31.25 20.1042 31.25 20.3125C31.25 20.5208 31.4583 20.5208 31.4583 20.7292C31.4583 20.9375 31.25 20.9375 31.0417 21.1458C30.625 21.3542 30.2083 21.5625 29.8958 21.7708C29.6875 22.1875 29.8958 22.9167 29.6875 23.3333C29.4792 24.4792 28.8542 25.3125 28.3333 26.3542C27.9167 26.9792 27.7083 27.7083 27.2917 28.3333C27.2917 29.1667 27.0833 29.8958 27.5 30.5208C28.5417 32.0833 30.5208 31.1458 32.0833 31.875C32.5 32.0833 32.9167 32.0833 33.2292 32.5C33.8542 33.125 33.8542 34.2708 34.0625 34.8958C34.2708 35.7292 34.4792 36.6667 34.8958 37.5C35.1042 38.5417 35.5208 39.6875 35.7292 40.5208C37.7083 38.9583 39.4792 37.2917 40.7292 35.1042C42.2917 33.75 42.9167 31.9792 43.5417 30.2083Z" fill="#0277BD"/>
</svg>
