<svg width="108" height="23" viewBox="0 0 108 23" fill="none" xmlns="http://www.w3.org/2000/svg">
<path d="M9.96667 0L19.9333 5.75V17.25L9.96667 23L0 17.25V5.75L9.96667 0Z" fill="white"/>
<path d="M12.7202 8.24167V14.5028C12.7202 15.3717 12.4687 16.0489 11.9657 16.5344C11.4628 17.0115 10.7893 17.25 9.94535 17.25C9.09287 17.25 8.40236 17.003 7.87382 16.5089C7.35381 16.0148 7.0938 15.3248 7.0938 14.4389H8.88401C8.89254 14.8222 8.98205 15.1204 9.15254 15.3333C9.33157 15.5463 9.58731 15.6528 9.91978 15.6528C10.2437 15.6528 10.4909 15.5506 10.6614 15.3461C10.8319 15.1417 10.9172 14.8606 10.9172 14.5028V8.24167H12.7202Z" fill="#00BF63"/>
<path d="M12.6008 5.75V7.19389H8.87975V9.48111H11.7313V10.8994H8.87975V14.6689H7.08954V5.75H12.6008Z" fill="#00BF63"/>
<path d="M35.2973 6.10267V13.432C35.2973 14.5667 34.9753 15.4407 34.3313 16.054C33.6976 16.6673 32.8389 16.974 31.7553 16.974C30.6207 16.974 29.7109 16.652 29.026 16.008C28.3411 15.364 27.9987 14.4491 27.9987 13.2633H30.6053C30.6053 13.7131 30.6973 14.0556 30.8813 14.2907C31.0653 14.5156 31.3311 14.628 31.6787 14.628C31.9956 14.628 32.2409 14.5258 32.4147 14.3213C32.5884 14.1169 32.6753 13.8204 32.6753 13.432V6.10267H35.2973Z" fill="#FAFAFA"/>
<path d="M41.3099 16.9893C40.4717 16.9893 39.7152 16.8104 39.0406 16.4527C38.3761 16.0949 37.8497 15.5838 37.4613 14.9193C37.083 14.2549 36.8939 13.478 36.8939 12.5887C36.8939 11.7096 37.0881 10.9378 37.4766 10.2733C37.865 9.59867 38.3966 9.08244 39.0713 8.72467C39.7459 8.36689 40.5024 8.188 41.3406 8.188C42.1788 8.188 42.9352 8.36689 43.6099 8.72467C44.2846 9.08244 44.8161 9.59867 45.2046 10.2733C45.593 10.9378 45.7873 11.7096 45.7873 12.5887C45.7873 13.4678 45.5879 14.2447 45.1893 14.9193C44.8008 15.5838 44.2641 16.0949 43.5792 16.4527C42.9046 16.8104 42.1481 16.9893 41.3099 16.9893ZM41.3099 14.72C41.8108 14.72 42.235 14.536 42.5826 14.168C42.9404 13.8 43.1192 13.2736 43.1192 12.5887C43.1192 11.9038 42.9455 11.3773 42.5979 11.0093C42.2606 10.6413 41.8415 10.4573 41.3406 10.4573C40.8295 10.4573 40.4053 10.6413 40.0679 11.0093C39.7306 11.3671 39.5619 11.8936 39.5619 12.5887C39.5619 13.2736 39.7255 13.8 40.0526 14.168C40.3899 14.536 40.809 14.72 41.3099 14.72Z" fill="#FAFAFA"/>
<path d="M49.8003 9.522C50.0456 9.12333 50.3983 8.80133 50.8583 8.556C51.3183 8.31067 51.8447 8.188 52.4376 8.188C53.1429 8.188 53.7818 8.36689 54.3543 8.72467C54.9267 9.08244 55.3765 9.59355 55.7036 10.258C56.0409 10.9224 56.2096 11.6942 56.2096 12.5733C56.2096 13.4524 56.0409 14.2293 55.7036 14.904C55.3765 15.5684 54.9267 16.0847 54.3543 16.4527C53.7818 16.8104 53.1429 16.9893 52.4376 16.9893C51.8345 16.9893 51.308 16.8718 50.8583 16.6367C50.4085 16.3913 50.0558 16.0693 49.8003 15.6707V16.8667H47.1783V5.52H49.8003V9.522ZM53.5416 12.5733C53.5416 11.9191 53.3576 11.408 52.9896 11.04C52.6318 10.6618 52.1872 10.4727 51.6556 10.4727C51.1343 10.4727 50.6896 10.6618 50.3216 11.04C49.9638 11.4182 49.7849 11.9344 49.7849 12.5887C49.7849 13.2429 49.9638 13.7591 50.3216 14.1373C50.6896 14.5156 51.1343 14.7047 51.6556 14.7047C52.1769 14.7047 52.6216 14.5156 52.9896 14.1373C53.3576 13.7489 53.5416 13.2276 53.5416 12.5733Z" fill="#FAFAFA"/>
<path d="M64.5925 6.10267V8.20333H60.2072V10.4727H63.4885V12.512H60.2072V16.8667H57.5852V6.10267H64.5925Z" fill="#FAFAFA"/>
<path d="M74.4193 8.31067V16.8667H71.7973V15.7013C71.5315 16.0796 71.1686 16.3862 70.7086 16.6213C70.2588 16.8462 69.7579 16.9587 69.2059 16.9587C68.5517 16.9587 67.9741 16.8156 67.4733 16.5293C66.9724 16.2329 66.5839 15.8087 66.3079 15.2567C66.0319 14.7047 65.8939 14.0556 65.8939 13.3093V8.31067H68.5006V12.9567C68.5006 13.5291 68.6488 13.9738 68.9453 14.2907C69.2417 14.6076 69.6404 14.766 70.1413 14.766C70.6524 14.766 71.0561 14.6076 71.3526 14.2907C71.649 13.9738 71.7973 13.5291 71.7973 12.9567V8.31067H74.4193Z" fill="#FAFAFA"/>
<path d="M79.7833 16.9893C79.0371 16.9893 78.3726 16.8616 77.79 16.606C77.2073 16.3504 76.7473 16.0029 76.41 15.5633C76.0726 15.1136 75.8835 14.6127 75.8426 14.0607H78.434C78.4646 14.3571 78.6026 14.5973 78.8479 14.7813C79.0933 14.9653 79.3948 15.0573 79.7526 15.0573C80.0797 15.0573 80.3302 14.996 80.504 14.8733C80.688 14.7404 80.78 14.5718 80.78 14.3673C80.78 14.122 80.6522 13.9431 80.3966 13.8307C80.1411 13.708 79.7271 13.5751 79.1546 13.432C78.5413 13.2889 78.0302 13.1407 77.6213 12.9873C77.2124 12.8238 76.8597 12.5733 76.5633 12.236C76.2668 11.8884 76.1186 11.4233 76.1186 10.8407C76.1186 10.35 76.2515 9.90533 76.5173 9.50667C76.7933 9.09778 77.192 8.77578 77.7133 8.54067C78.2448 8.30556 78.8735 8.188 79.5993 8.188C80.6726 8.188 81.516 8.45378 82.1293 8.98533C82.7528 9.51689 83.1106 10.2222 83.2026 11.1013H80.78C80.7391 10.8049 80.6062 10.5698 80.3813 10.396C80.1666 10.2222 79.8804 10.1353 79.5226 10.1353C79.216 10.1353 78.9808 10.1967 78.8173 10.3193C78.6537 10.4318 78.572 10.5902 78.572 10.7947C78.572 11.04 78.6997 11.224 78.9553 11.3467C79.2211 11.4693 79.63 11.592 80.182 11.7147C80.8157 11.8782 81.332 12.0418 81.7306 12.2053C82.1293 12.3587 82.4768 12.6142 82.7733 12.972C83.0799 13.3196 83.2384 13.7898 83.2486 14.3827C83.2486 14.8836 83.1055 15.3333 82.8193 15.732C82.5433 16.1204 82.1395 16.4271 81.608 16.652C81.0866 16.8769 80.4784 16.9893 79.7833 16.9893Z" fill="#FAFAFA"/>
<path d="M86.1714 7.42133C85.7114 7.42133 85.3332 7.28844 85.0368 7.02267C84.7505 6.74667 84.6074 6.40933 84.6074 6.01067C84.6074 5.60178 84.7505 5.26444 85.0368 4.99867C85.3332 4.72267 85.7114 4.58467 86.1714 4.58467C86.6212 4.58467 86.9892 4.72267 87.2754 4.99867C87.5719 5.26444 87.7201 5.60178 87.7201 6.01067C87.7201 6.40933 87.5719 6.74667 87.2754 7.02267C86.9892 7.28844 86.6212 7.42133 86.1714 7.42133ZM87.4748 8.31067V16.8667H84.8527V8.31067H87.4748Z" fill="#FAFAFA"/>
<path d="M93.2695 16.9893C92.4313 16.9893 91.6749 16.8104 91.0002 16.4527C90.3358 16.0949 89.8093 15.5838 89.4209 14.9193C89.0427 14.2549 88.8535 13.478 88.8535 12.5887C88.8535 11.7096 89.0478 10.9378 89.4362 10.2733C89.8247 9.59867 90.3562 9.08244 91.0309 8.72467C91.7056 8.36689 92.462 8.188 93.3002 8.188C94.1384 8.188 94.8949 8.36689 95.5695 8.72467C96.2442 9.08244 96.7758 9.59867 97.1642 10.2733C97.5527 10.9378 97.7469 11.7096 97.7469 12.5887C97.7469 13.4678 97.5475 14.2447 97.1489 14.9193C96.7604 15.5838 96.2238 16.0949 95.5389 16.4527C94.8642 16.8104 94.1078 16.9893 93.2695 16.9893ZM93.2695 14.72C93.7704 14.72 94.1947 14.536 94.5422 14.168C94.9 13.8 95.0789 13.2736 95.0789 12.5887C95.0789 11.9038 94.9051 11.3773 94.5575 11.0093C94.2202 10.6413 93.8011 10.4573 93.3002 10.4573C92.7891 10.4573 92.3649 10.6413 92.0275 11.0093C91.6902 11.3671 91.5216 11.8936 91.5216 12.5887C91.5216 13.2736 91.6851 13.8 92.0122 14.168C92.3495 14.536 92.7687 14.72 93.2695 14.72Z" fill="#FAFAFA"/>
<path d="M104.351 8.21867C105.353 8.21867 106.15 8.54578 106.743 9.2C107.346 9.844 107.648 10.7333 107.648 11.868V16.8667H105.041V12.2207C105.041 11.6482 104.893 11.2036 104.597 10.8867C104.3 10.5698 103.901 10.4113 103.401 10.4113C102.9 10.4113 102.501 10.5698 102.205 10.8867C101.908 11.2036 101.76 11.6482 101.76 12.2207V16.8667H99.1379V8.31067H101.76V9.44533C102.026 9.06711 102.383 8.77067 102.833 8.556C103.283 8.33111 103.789 8.21867 104.351 8.21867Z" fill="#FAFAFA"/>
</svg>
