<svg width="20" height="20" viewBox="0 0 20 20" fill="none" xmlns="http://www.w3.org/2000/svg">
<g opacity="0.5" clip-path="url(#clip0_440_2231)">
<path d="M10.0002 0C4.48605 0 0.000152588 4.48595 0.000152588 10C0.000152588 15.5141 4.48599 20 10.0001 20C15.5142 20 20 15.5141 20 10C20 4.48595 15.5142 0 10.0002 0ZM10.0002 3.38026C11.2132 3.38026 12.3508 3.70853 13.3295 4.28042L4.28057 13.3294C3.70863 12.3507 3.38036 11.213 3.38036 10C3.38036 6.34984 6.35005 3.38026 10.0002 3.38026ZM10.0002 16.6197C8.7871 16.6197 7.64952 16.2915 6.67078 15.7196L15.7197 6.67063C16.2916 7.64937 16.6199 8.787 16.6199 10C16.6199 13.6502 13.6502 16.6197 10.0002 16.6197Z" fill="#1C274C"/>
</g>
<defs>
<clipPath id="clip0_440_2231">
<rect width="20" height="20" fill="white"/>
</clipPath>
</defs>
</svg>
